<svg viewBox="0 0 600 300" xmlns="http://www.w3.org/2000/svg" fill-rule="evenodd" clip-rule="evenodd" stroke-linejoin="round" stroke-miterlimit="2"><path fill="#1c1c1c" d="M-6.69-6.04h611.93v312.59H-6.69z"/><path d="M29.44 70.3c-1.32 0-2.35-.35-3.06-1.08-.71-.71-1.08-1.75-1.08-3.1 0-1.3.35-2.32 1.07-3.05.7-.73 1.7-1.09 3-1.09.8 0 1.46.14 2.02.44.56.27.95.7 1.2 1.22l-1.25.93a2.4 2.4 0 00-2.03-1.16c-.74 0-1.32.23-1.72.7-.42.45-.62 1.1-.62 1.93 0 .92.23 1.62.68 2.1a2.6 2.6 0 001.97.73 15.07 15.07 0 002.36-.2l.18 1.4c-.44.1-.9.16-1.36.2-.46.02-.91.04-1.36.04zM37.9 70.3a3.2 3.2 0 01-2.59-1.1 4.57 4.57 0 01-.93-3.06c0-1.32.31-2.36.93-3.07a3.2 3.2 0 012.59-1.09c1.12 0 1.98.36 2.59 1.09.62.71.93 1.75.93 3.07 0 1.31-.31 2.35-.93 3.07-.6.73-1.47 1.1-2.59 1.1zm0-1.43c.59 0 1.04-.24 1.36-.72.33-.48.49-1.15.49-2.01 0-.87-.16-1.54-.49-2.02a1.58 1.58 0 00-1.36-.71c-.59 0-1.04.25-1.36.71a3.56 3.56 0 00-.48 2.02c0 .86.15 1.53.48 2.01.32.48.77.72 1.36.72zM43.71 70.15v-8.03h1.46l.12 1.46h.18c.09-1.07.8-1.6 2.12-1.6.85 0 1.5.25 1.97.76.46.53.7 1.26.7 2.19v5.22h-1.62v-5.22c0-.48-.12-.86-.37-1.12-.25-.26-.6-.4-1.05-.4-1.27 0-1.9.74-1.9 2.23v4.51h-1.6zM55.45 70.3a14.78 14.78 0 01-2.75-.23l.2-1.45c.52.09.98.14 1.39.18.41.05.79.07 1.16.07.8 0 1.4-.08 1.77-.24.37-.17.54-.42.54-.76 0-.25-.06-.43-.19-.54a1.23 1.23 0 00-.59-.28l-1.86-.46a4.7 4.7 0 01-1.73-.76c-.38-.3-.56-.75-.56-1.35 0-.89.34-1.52 1-1.9.69-.41 1.77-.6 3.26-.6.75 0 1.44.05 2.13.14l-.17 1.4c-.4-.03-.76-.07-1.07-.08l-.93-.03c-.89 0-1.54.08-1.96.23-.4.16-.6.4-.6.76 0 .23.1.4.26.5.16.1.42.2.76.3l1.49.35c.84.2 1.46.48 1.84.8.4.34.6.84.6 1.5 0 .84-.33 1.48-.95 1.87-.64.39-1.65.59-3.04.59zM66.53 70.3c-1.22 0-2.09-.26-2.63-.75-.55-.51-.82-1.32-.82-2.42v-3.7h-2.02v-1.3h2.02V59.7h1.6v2.42h3.65v1.32H64.7v3.61c0 .64.15 1.1.46 1.38.31.3.83.44 1.54.44.25 0 .51-.02.79-.05.3-.02.6-.06.98-.11l.18 1.41a12.78 12.78 0 01-2.1.19z" fill="#fb4934" fill-rule="nonzero"/><path d="M83.94 70.3c-1.32 0-2.34-.35-3.05-1.08-.72-.71-1.09-1.75-1.09-3.1 0-1.3.36-2.32 1.07-3.05.7-.73 1.7-1.09 3.01-1.09.8 0 1.46.14 2.02.44.55.27.94.7 1.19 1.22l-1.24.93a2.4 2.4 0 00-2.03-1.16c-.75 0-1.32.23-1.72.7-.42.45-.62 1.1-.62 1.93 0 .92.23 1.62.68 2.1a2.6 2.6 0 001.97.73 15.07 15.07 0 002.36-.2l.18 1.4c-.45.1-.9.16-1.36.2-.47.02-.92.04-1.37.04zM92.4 70.3a3.2 3.2 0 01-2.58-1.1 4.57 4.57 0 01-.93-3.06c0-1.32.3-2.36.93-3.07a3.2 3.2 0 012.59-1.09c1.11 0 1.98.36 2.59 1.09.62.71.93 1.75.93 3.07 0 1.31-.31 2.35-.93 3.07-.6.73-1.48 1.1-2.6 1.1zm0-1.43c.6 0 1.05-.24 1.37-.72.33-.48.48-1.15.48-2.01 0-.87-.15-1.54-.48-2.02a1.58 1.58 0 00-1.36-.71c-.6 0-1.04.25-1.37.71a3.56 3.56 0 00-.48 2.02c0 .86.16 1.53.48 2.01.33.48.78.72 1.37.72zM102.6 70.3c-.92 0-1.59-.26-2-.75-.41-.51-.63-1.32-.63-2.42v-7h-2.36V58.8h3.97v8.25c0 .42.03.76.13 1.04.08.26.23.47.46.59.24.12.6.19 1.04.19.42 0 .96-.1 1.61-.3l.19 1.41a9.45 9.45 0 01-2.4.33zM111.7 70.3c-.94 0-1.6-.26-2.02-.75-.4-.51-.62-1.32-.62-2.42v-7h-2.36V58.8h3.97v8.25c0 .42.03.76.12 1.04.08.26.23.47.47.59.23.12.59.19 1.04.19.41 0 .96-.1 1.6-.3l.2 1.41a9.45 9.45 0 01-2.4.33z" fill="#fabd2f" fill-rule="nonzero"/><path d="M124.96 63.6v-1.42h7.57v1.41h-7.57zm0 3.78v-1.41h7.57v1.4h-7.57zM143.64 70.15v-8.03h1.46l.12 1.46h.17c.1-1.07.81-1.6 2.13-1.6.85 0 1.5.25 1.97.76.46.53.7 1.26.7 2.19v5.22h-1.62v-5.22c0-.48-.12-.86-.37-1.12-.25-.26-.6-.4-1.05-.4-1.28 0-1.9.74-1.9 2.23v4.51h-1.6zM156.77 70.3c-1.36 0-2.43-.35-3.18-1.08-.74-.71-1.11-1.75-1.11-3.1 0-1.3.32-2.32.94-3.05a3.37 3.37 0 012.69-1.09c1.08 0 1.92.33 2.5.98.6.65.9 1.61.9 2.87 0 .35 0 .71-.04 1.02h-5.43c.14.67.47 1.18.96 1.52a3.2 3.2 0 001.94.53c.34 0 .67-.02 1-.07.32-.03.65-.07.97-.15l.2 1.41a13.38 13.38 0 01-2.34.22zm-.65-6.92c-.62 0-1.12.2-1.49.59-.37.38-.59.94-.65 1.65h4.08c0-.72-.17-1.27-.51-1.65a1.84 1.84 0 00-1.43-.6zM161.98 70.15l-.91-8.03h1.52l.6 6.82h.14l.95-6.82h1.45l.95 6.82h.14l.68-6.82h1.6l-1.13 8.03H166l-.95-6.37h-.1l-.92 6.37h-2.05z" fill="#8ec07c" fill-rule="nonzero"/><path d="M179.92 70.15V59.41h1.52v5.81a4.01 4.01 0 003.08-1.95c.33-.54.58-1.15.75-1.82a9 9 0 00.23-2.04h1.56c0 1.1-.18 2.15-.55 3.16-.38 1-.9 1.85-1.62 2.54l2.69 5.04h-1.83l-2.13-4.1a5.63 5.63 0 01-2.18.66v3.44h-1.52zM192.77 60.85c-.31 0-.57-.1-.8-.33a1.08 1.08 0 01-.32-.79c0-.3.11-.57.33-.79.22-.21.48-.32.79-.32a1.11 1.11 0 011.13 1.11 1.11 1.11 0 01-1.13 1.12zm-3.77 9.3v-1.32h3.06v-5.38h-2.6v-1.33h4.2v6.71h2.47v1.32H189zM198.15 70.15v-8.03h1.45l.13 1.46h.17c.1-1.07.8-1.6 2.12-1.6.86 0 1.5.25 1.97.76.47.53.7 1.26.7 2.19v5.22h-1.61v-5.22c0-.48-.13-.86-.37-1.12-.25-.26-.6-.4-1.06-.4-1.27 0-1.89.74-1.89 2.23v4.51h-1.61zM211.88 70.3c-1.22 0-2.09-.26-2.63-.75-.54-.51-.82-1.32-.82-2.42v-3.7h-2.02v-1.3h2.02V59.7h1.6v2.42h3.65v1.32h-3.64v3.61c0 .64.15 1.1.46 1.38.31.3.83.44 1.54.44.25 0 .51-.02.79-.05.3-.02.6-.06.98-.11l.18 1.41a12.78 12.78 0 01-2.1.19zM219.59 70.3a3.2 3.2 0 01-2.6-1.1 4.57 4.57 0 01-.92-3.06c0-1.32.3-2.36.93-3.07a3.2 3.2 0 012.59-1.09c1.11 0 1.98.36 2.59 1.09.62.71.93 1.75.93 3.07 0 1.31-.31 2.35-.93 3.07-.6.73-1.48 1.1-2.6 1.1zm0-1.43c.59 0 1.04-.24 1.36-.72.33-.48.48-1.15.48-2.01 0-.87-.15-1.54-.48-2.02a1.58 1.58 0 00-1.36-.71c-.6 0-1.04.25-1.37.71a3.56 3.56 0 00-.48 2.02c0 .86.16 1.53.48 2.01.33.48.78.72 1.37.72z" fill="#fabd2f" fill-rule="nonzero"/><path d="M231.32 71.67c-1.64 0-2.91-.6-3.81-1.81-.92-1.21-1.37-2.92-1.37-5.13 0-2.17.45-3.86 1.37-5.06a4.49 4.49 0 013.81-1.78h.36l-.14 1.36h-.06c-1.21 0-2.13.48-2.78 1.44-.65.95-.97 2.3-.97 4.04 0 1.76.32 3.14.97 4.12a3.16 3.16 0 002.78 1.46h.06l.14 1.36h-.36zM234.75 71.67l.14-1.36h.06c1.2 0 2.12-.5 2.78-1.46.65-.98.97-2.36.97-4.12 0-1.74-.32-3.09-.97-4.04a3.16 3.16 0 00-2.78-1.44h-.06l-.14-1.36h.36c1.64 0 2.91.59 3.83 1.78.9 1.2 1.34 2.89 1.34 5.06 0 2.21-.45 3.92-1.34 5.13a4.52 4.52 0 01-3.83 1.81h-.36z" fill="#bdae93" fill-rule="nonzero"/><path d="M246.84 70.3c-.3 0-.57-.1-.79-.32-.22-.23-.33-.5-.33-.8 0-.31.11-.58.33-.8.22-.21.48-.32.8-.32.3 0 .56.1.78.32.22.22.33.49.33.8 0 .3-.11.57-.33.8-.22.22-.48.33-.79.33z" fill="#fbf1c7" fill-rule="nonzero"/><path d="M256.54 70.3c-1.31 0-2.34-.35-3.05-1.08-.71-.71-1.08-1.75-1.08-3.1 0-1.3.35-2.32 1.07-3.05.7-.73 1.7-1.09 3-1.09.8 0 1.46.14 2.02.44.56.27.94.7 1.2 1.22l-1.25.93a2.4 2.4 0 00-2.03-1.16c-.74 0-1.32.23-1.72.7-.42.45-.62 1.1-.62 1.93 0 .92.23 1.62.68 2.1a2.6 2.6 0 001.97.73 15.07 15.07 0 002.36-.2l.18 1.4c-.45.1-.9.16-1.36.2-.47.02-.92.04-1.37.04zM265.01 70.3a3.2 3.2 0 01-2.59-1.1 4.57 4.57 0 01-.93-3.06c0-1.32.31-2.36.93-3.07a3.2 3.2 0 012.59-1.09c1.12 0 1.98.36 2.59 1.09.62.71.93 1.75.93 3.07 0 1.31-.31 2.35-.93 3.07-.6.73-1.47 1.1-2.59 1.1zm0-1.43c.59 0 1.04-.24 1.36-.72.33-.48.48-1.15.48-2.01 0-.87-.15-1.54-.48-2.02a1.58 1.58 0 00-1.36-.71c-.59 0-1.04.25-1.36.71a3.56 3.56 0 00-.48 2.02c0 .86.15 1.53.48 2.01.32.48.77.72 1.36.72zM275.21 70.3c-.93 0-1.6-.26-2.02-.75-.4-.51-.62-1.32-.62-2.42v-7h-2.35V58.8h3.97v8.25c0 .42.03.76.12 1.04.08.26.23.47.47.59.23.12.59.19 1.03.19.42 0 .97-.1 1.62-.3l.18 1.41a9.45 9.45 0 01-2.4.33zM284.3 70.3c-.93 0-1.6-.26-2.02-.75-.4-.51-.62-1.32-.62-2.42v-7h-2.36V58.8h3.97v8.25c0 .42.03.76.13 1.04.07.26.23.47.46.59s.59.19 1.04.19c.42 0 .96-.1 1.61-.3l.19 1.41a9.45 9.45 0 01-2.4.33zM293.04 70.3c-1.37 0-2.44-.35-3.18-1.08-.74-.71-1.12-1.75-1.12-3.1 0-1.3.33-2.32.95-3.05a3.37 3.37 0 012.68-1.09c1.09 0 1.92.33 2.51.98.6.65.9 1.61.9 2.87 0 .35-.01.71-.04 1.02h-5.43c.14.67.46 1.18.96 1.52a3.2 3.2 0 001.94.53c.34 0 .67-.02 1-.07.32-.03.64-.07.97-.15l.2 1.41a13.38 13.38 0 01-2.34.22zm-.65-6.92c-.62 0-1.12.2-1.5.59-.36.38-.58.94-.64 1.65h4.07c0-.72-.17-1.27-.5-1.65a1.84 1.84 0 00-1.43-.6zM301.97 70.3c-1.32 0-2.34-.35-3.06-1.08-.71-.71-1.08-1.75-1.08-3.1 0-1.3.35-2.32 1.07-3.05.7-.73 1.7-1.09 3-1.09.8 0 1.46.14 2.02.44.56.27.95.7 1.2 1.22l-1.25.93a2.4 2.4 0 00-2.03-1.16c-.74 0-1.31.23-1.72.7-.42.45-.62 1.1-.62 1.93 0 .92.23 1.62.68 2.1a2.6 2.6 0 001.97.73 15.07 15.07 0 002.36-.2l.19 1.4c-.45.1-.9.16-1.37.2-.46.02-.91.04-1.36.04zM311.81 70.3c-1.22 0-2.1-.26-2.63-.75-.55-.51-.83-1.32-.83-2.42v-3.7h-2.01v-1.3h2.01V59.7h1.62v2.42h3.64v1.32h-3.64v3.61c0 .64.15 1.1.46 1.38.31.3.82.44 1.54.44.25 0 .5-.02.79-.05.3-.02.6-.06.97-.11l.19 1.41a12.78 12.78 0 01-2.1.19zM319.95 60.85c-.31 0-.57-.1-.8-.33a1.08 1.08 0 01-.32-.79c0-.3.11-.57.33-.79.22-.21.48-.32.79-.32a1.11 1.11 0 011.13 1.11 1.11 1.11 0 01-1.13 1.12zm-3.77 9.3v-1.32h3.06v-5.38h-2.6v-1.33h4.2v6.71h2.47v1.32h-7.13zM328.6 70.3a3.2 3.2 0 01-2.59-1.1 4.57 4.57 0 01-.93-3.06c0-1.32.31-2.36.93-3.07a3.2 3.2 0 012.59-1.09c1.12 0 1.98.36 2.59 1.09.62.71.93 1.75.93 3.07 0 1.31-.31 2.35-.93 3.07-.6.73-1.47 1.1-2.59 1.1zm0-1.43c.59 0 1.04-.24 1.36-.72.33-.48.48-1.15.48-2.01 0-.87-.15-1.54-.48-2.02a1.58 1.58 0 00-1.36-.71c-.59 0-1.04.25-1.36.71a3.56 3.56 0 00-.49 2.02c0 .86.16 1.53.49 2.01.32.48.77.72 1.36.72zM334.41 70.15v-8.03h1.46l.13 1.46h.17c.09-1.07.8-1.6 2.12-1.6.85 0 1.5.25 1.97.76.46.53.7 1.26.7 2.19v5.22h-1.62v-5.22c0-.48-.12-.86-.37-1.12-.25-.26-.6-.4-1.05-.4-1.27 0-1.9.74-1.9 2.23v4.51h-1.6z" fill="#b8bb26" fill-rule="nonzero"/><path d="M349.42 71.67c-1.64 0-2.91-.6-3.81-1.81-.92-1.21-1.37-2.92-1.37-5.13 0-2.17.45-3.86 1.37-5.06a4.49 4.49 0 013.81-1.78h.36l-.14 1.36h-.06c-1.21 0-2.13.48-2.78 1.44-.65.95-.98 2.3-.98 4.04 0 1.76.33 3.14.98 4.12a3.16 3.16 0 002.78 1.46h.06l.14 1.36h-.36z" fill="#bdae93" fill-rule="nonzero"/><path d="M353.6 64.25l-.15-4.84h1.75l-.15 4.84h-1.46zm3.06 0l-.15-4.84h1.75l-.16 4.84h-1.44z" fill="#fbf1c7" fill-rule="nonzero"/><path d="M366.32 70.3c-1.23 0-2.1-.26-2.64-.75-.54-.51-.82-1.32-.82-2.42v-3.7h-2.02v-1.3h2.02V59.7h1.61v2.42h3.65v1.32h-3.65v3.61c0 .64.16 1.1.47 1.38.3.3.82.44 1.53.44.25 0 .51-.02.8-.05.29-.02.6-.06.97-.11l.19 1.41a12.78 12.78 0 01-2.11.19zM373 70.3c-.89 0-1.58-.2-2.06-.6-.48-.4-.73-.97-.73-1.72 0-.84.3-1.49.93-1.95a4.4 4.4 0 012.62-.68c.6 0 1.15.06 1.6.2v-.44c0-.54-.2-.93-.56-1.18a3.26 3.26 0 00-1.7-.4l-1.92-.06.16-1.41 1.63.01c1.32.02 2.3.31 2.94.86.65.56.98 1.36.98 2.42v3.34l1.35.18v1.28l-2.57.08-.07-1.77h-.17c-.04.6-.3 1.07-.73 1.38-.43.31-1 .47-1.7.47zm.25-1.28c.46 0 .86-.1 1.17-.26a1.67 1.67 0 00.93-1.49v-.48a3.15 3.15 0 00-.85-.13 15.1 15.1 0 00-.83-.03c-1.3 0-1.94.4-1.94 1.21 0 .78.5 1.18 1.52 1.18zM382.49 70.3a14.78 14.78 0 01-2.75-.23l.19-1.45c.53.09 1 .14 1.4.18.41.05.78.07 1.16.07.8 0 1.4-.08 1.76-.24.38-.17.55-.42.55-.76 0-.25-.07-.43-.19-.54a1.23 1.23 0 00-.59-.28l-1.86-.46a4.7 4.7 0 01-1.74-.76c-.37-.3-.55-.75-.55-1.35 0-.89.34-1.52 1-1.9.69-.41 1.77-.6 3.26-.6.74 0 1.44.05 2.12.14l-.17 1.4c-.4-.03-.76-.07-1.07-.08l-.93-.03c-.88 0-1.53.08-1.95.23-.4.16-.6.4-.6.76 0 .23.09.4.26.5.15.1.42.2.76.3l1.49.35c.83.2 1.45.48 1.84.8.39.34.6.84.6 1.5 0 .84-.33 1.48-.95 1.87-.64.39-1.65.59-3.04.59zM388.86 70.15V58.8h1.61v6.87h.43c.67 0 1.21-.1 1.65-.34.43-.23.76-.6 1-1.13.25-.51.44-1.21.55-2.08h1.66c-.25 1.97-.86 3.35-1.85 4.16l2.37 3.87h-1.98l-1.86-3.18c-.36.1-.75.14-1.16.14h-.81v3.04h-1.61zM400.65 70.3a14.78 14.78 0 01-2.74-.23l.19-1.45c.52.09.99.14 1.4.18.41.05.78.07 1.15.07.81 0 1.4-.08 1.77-.24.37-.17.54-.42.54-.76 0-.25-.06-.43-.18-.54a1.23 1.23 0 00-.6-.28l-1.85-.46a4.7 4.7 0 01-1.74-.76c-.37-.3-.56-.75-.56-1.35 0-.89.35-1.52 1.01-1.9.68-.41 1.77-.6 3.26-.6.74 0 1.44.05 2.12.14l-.17 1.4c-.4-.03-.76-.07-1.07-.08l-.93-.03c-.88 0-1.53.08-1.95.23-.4.16-.6.4-.6.76 0 .23.09.4.26.5.15.1.42.2.76.3l1.48.35c.84.2 1.46.48 1.85.8.39.34.59.84.59 1.5 0 .84-.33 1.48-.95 1.87-.63.39-1.64.59-3.04.59z" fill="#b8bb26" fill-rule="nonzero"/><path d="M408.1 64.25l-.14-4.84h1.75l-.16 4.84h-1.45zm3.07 0L411 59.4h1.75l-.15 4.84h-1.44z" fill="#fbf1c7" fill-rule="nonzero"/><path d="M416.44 71.67l.14-1.36h.06c1.2 0 2.12-.5 2.77-1.46.65-.98.98-2.36.98-4.12 0-1.74-.33-3.09-.98-4.04a3.16 3.16 0 00-2.77-1.44h-.06l-.14-1.36h.35c1.65 0 2.92.59 3.83 1.78.9 1.2 1.35 2.89 1.35 5.06 0 2.21-.45 3.92-1.35 5.13a4.52 4.52 0 01-3.83 1.81h-.35z" fill="#bdae93" fill-rule="nonzero"/><path d="M428.53 64.21c-.31 0-.57-.1-.8-.32a1.08 1.08 0 01-.32-.8c0-.3.11-.57.33-.78.22-.22.48-.33.79-.33.3 0 .57.11.79.33.22.21.33.48.33.79 0 .3-.11.57-.33.79-.22.22-.48.32-.8.32zm-1.5 9.24l.6-5.22h1.77l-.92 5.22h-1.45z" fill="#fbf1c7" fill-rule="nonzero"/><path d="M27.8 112.43c-.9 0-1.59-.2-2.07-.6-.48-.41-.73-.99-.73-1.73 0-.84.31-1.49.93-1.95a4.4 4.4 0 012.62-.68c.6 0 1.15.06 1.6.2v-.44c0-.54-.19-.93-.56-1.18a3.26 3.26 0 00-1.69-.4l-1.92-.06.15-1.41 1.63.01c1.32.02 2.31.31 2.95.86.65.55.97 1.36.97 2.42v3.34l1.35.17v1.3l-2.57.07-.06-1.77h-.17c-.05.6-.3 1.07-.73 1.38-.44.31-1.01.47-1.7.47zm.24-1.29c.47 0 .87-.1 1.18-.26.3-.17.54-.4.7-.66.15-.27.23-.54.23-.83v-.48a3.15 3.15 0 00-.85-.13 15.1 15.1 0 00-.84-.03c-1.3 0-1.94.4-1.94 1.21 0 .78.5 1.18 1.52 1.18zM37.28 112.43a14.78 14.78 0 01-2.74-.24l.18-1.45c.53.09 1 .14 1.4.18.42.05.79.06 1.16.06.8 0 1.4-.07 1.77-.23.37-.17.54-.42.54-.76 0-.25-.06-.43-.19-.54a1.23 1.23 0 00-.59-.28l-1.86-.46a4.7 4.7 0 01-1.73-.76c-.37-.3-.56-.75-.56-1.35 0-.89.34-1.52 1-1.91.69-.4 1.78-.59 3.26-.59.75 0 1.45.05 2.13.14l-.17 1.4c-.4-.04-.76-.07-1.07-.08l-.93-.03c-.89 0-1.54.07-1.96.23-.4.15-.6.4-.6.76 0 .23.1.4.26.5.16.1.42.2.76.29l1.49.36c.84.2 1.46.48 1.85.8.38.34.58.84.58 1.5 0 .84-.32 1.48-.94 1.87-.64.38-1.64.59-3.04.59zM46.05 112.27l-3.19-8.03h1.66l2.62 6.82h.12l1.96-6.82h1.66l-2.31 7.32a9.7 9.7 0 01-1.03 2.32 3.8 3.8 0 01-1.33 1.3c-.51.3-1.12.49-1.83.58l-1.36.14-.08-1.43 1.25-.15a3.28 3.28 0 001.59-.6c.41-.3.77-.78 1.05-1.45h-.78zM52.8 112.27v-8.03h1.45l.13 1.46h.17c.1-1.07.8-1.6 2.12-1.6.86 0 1.5.25 1.97.76.47.53.7 1.26.7 2.19v5.22h-1.61v-5.22c0-.48-.13-.86-.37-1.12-.25-.26-.6-.4-1.06-.4-1.27 0-1.89.74-1.89 2.23v4.51H52.8zM65.77 112.43c-1.31 0-2.34-.36-3.05-1.09-.71-.71-1.09-1.75-1.09-3.1 0-1.3.36-2.33 1.07-3.05.7-.73 1.7-1.09 3.01-1.09.8 0 1.46.14 2.02.43.56.28.94.7 1.2 1.23l-1.25.93a2.4 2.4 0 00-2.03-1.16c-.74 0-1.32.23-1.72.7-.42.44-.62 1.1-.62 1.93 0 .92.23 1.62.68 2.1a2.6 2.6 0 001.97.72 15.07 15.07 0 002.36-.2l.18 1.41c-.45.1-.9.16-1.36.19-.47.03-.92.05-1.37.05z" fill="#fb4934" fill-rule="nonzero"/><path d="M81.82 112.27v-4.88h-2.53v-1.32h2.53v-1.15c0-2.77 1.27-4.15 3.8-4.15.59 0 1.13.04 1.67.15l-.17 1.38-.84-.08-.71-.01c-1.43 0-2.14.88-2.14 2.63v1.23h3.29v1.32h-3.29v4.88h-1.61zM91.7 112.43a2.5 2.5 0 01-1.96-.76c-.47-.5-.7-1.21-.7-2.13v-5.3h1.61v5.3c0 .47.13.82.4 1.07.26.25.63.37 1.1.37.58 0 1.03-.18 1.33-.55.3-.38.45-1 .45-1.86v-4.33h1.6v6.57l1.1.17v1.3l-2.58.07-.1-1.63h-.15a2.06 2.06 0 01-2.1 1.7zM98.22 112.27v-8.03h1.46l.12 1.46h.17c.1-1.07.8-1.6 2.13-1.6.85 0 1.5.25 1.96.76.47.53.7 1.26.7 2.19v5.22h-1.61v-5.22c0-.48-.12-.86-.37-1.12-.25-.26-.6-.4-1.06-.4-1.27 0-1.89.74-1.89 2.23v4.51h-1.61zM111.2 112.43c-1.32 0-2.35-.36-3.06-1.09-.71-.71-1.08-1.75-1.08-3.1 0-1.3.35-2.33 1.07-3.05.7-.73 1.7-1.09 3-1.09.8 0 1.46.14 2.02.43.56.28.94.7 1.2 1.23l-1.25.93a2.4 2.4 0 00-2.03-1.16c-.74 0-1.32.23-1.72.7-.42.44-.62 1.1-.62 1.93 0 .92.23 1.62.68 2.1a2.6 2.6 0 001.97.72 15.07 15.07 0 002.36-.2l.18 1.41c-.45.1-.9.16-1.36.19-.47.03-.91.05-1.36.05zM121.04 112.43c-1.23 0-2.1-.27-2.64-.76-.54-.51-.82-1.32-.82-2.42v-3.7h-2.01v-1.31h2.01v-2.42h1.61v2.42h3.65v1.32h-3.65v3.61c0 .64.16 1.1.47 1.38.31.3.82.43 1.53.43.25 0 .52-.01.8-.04.29-.02.6-.06.97-.11l.19 1.41a12.78 12.78 0 01-2.11.19zM129.18 102.97c-.31 0-.58-.11-.8-.33a1.08 1.08 0 01-.32-.79c0-.3.11-.57.33-.79.21-.22.48-.32.79-.32a1.11 1.11 0 011.13 1.11c0 .31-.1.58-.33.8-.21.21-.5.32-.8.32zm-3.77 9.3v-1.32h3.05v-5.38h-2.6v-1.33h4.22v6.71h2.46v1.32h-7.13zM137.83 112.43a3.2 3.2 0 01-2.6-1.1 4.57 4.57 0 01-.92-3.07c0-1.32.3-2.36.93-3.07a3.2 3.2 0 012.59-1.09c1.11 0 1.98.36 2.59 1.09.62.7.93 1.75.93 3.07 0 1.31-.31 2.35-.93 3.07-.6.72-1.48 1.1-2.6 1.1zm0-1.45c.59 0 1.04-.23 1.36-.7.33-.49.48-1.16.48-2.02 0-.87-.15-1.54-.48-2.02a1.58 1.58 0 00-1.36-.71c-.6 0-1.04.25-1.37.71a3.56 3.56 0 00-.48 2.02c0 .86.16 1.53.48 2.01.33.48.78.71 1.37.71zM143.64 112.27v-8.03h1.46l.12 1.46h.17c.1-1.07.81-1.6 2.13-1.6.85 0 1.5.25 1.97.76.46.53.7 1.26.7 2.19v5.22h-1.62v-5.22c0-.48-.12-.86-.37-1.12-.25-.26-.6-.4-1.05-.4-1.28 0-1.9.74-1.9 2.23v4.51h-1.6z" fill="#8ec07c" fill-rule="nonzero"/><path d="M164.46 112.43c-1 0-1.8-.36-2.36-1.06a4.82 4.82 0 01-.83-3.04c0-1.35.28-2.38.83-3.13a2.82 2.82 0 012.38-1.1c1.27 0 1.98.53 2.12 1.6h.14v-4.78h1.61v11.35l-1.44.08-.14-1.32h-.17c-.06.47-.28.8-.65 1.04-.39.23-.88.36-1.49.36zm-1.61-4.1c0 1.82.62 2.73 1.87 2.73 1.35 0 2.02-.45 2.02-1.36v-1.94c0-1.54-.68-2.3-2.03-2.3-.6 0-1.05.25-1.38.75-.31.5-.48 1.2-.48 2.12zM174.94 112.43c-1.36 0-2.43-.36-3.18-1.09-.74-.71-1.11-1.75-1.11-3.1 0-1.3.32-2.33.94-3.05a3.37 3.37 0 012.68-1.09c1.09 0 1.93.33 2.52.98.59.65.9 1.61.9 2.87 0 .35-.02.7-.05 1.02h-5.43c.14.67.47 1.18.96 1.52a3.2 3.2 0 001.94.53c.34 0 .67-.02 1-.07.32-.03.65-.07.97-.15l.2 1.4a13.38 13.38 0 01-2.34.22zm-.65-6.93c-.62 0-1.12.2-1.49.59-.37.38-.59.94-.65 1.65h4.08c0-.72-.17-1.27-.51-1.65a1.84 1.84 0 00-1.43-.6zM179.56 112.27v-8.03h1.41l.11 1h.12c.07-.77.53-1.14 1.38-1.14.34 0 .62.1.84.28.23.2.39.48.45.87h.14c.02-.31.14-.6.37-.8.22-.24.54-.35.98-.35.56 0 .96.14 1.2.43.26.31.38.8.38 1.46v6.28h-1.6v-6.14c0-.54-.21-.82-.62-.82-.52 0-.79.36-.79 1.09v5.87h-1.36V106c0-.46-.22-.68-.64-.68-.5 0-.77.36-.77 1.09v5.87h-1.6zM192.34 112.43a3.2 3.2 0 01-2.6-1.1 4.57 4.57 0 01-.92-3.07c0-1.32.3-2.36.93-3.07a3.2 3.2 0 012.59-1.09c1.11 0 1.98.36 2.58 1.09.62.7.93 1.75.93 3.07 0 1.31-.3 2.35-.93 3.07-.6.72-1.47 1.1-2.58 1.1zm0-1.45c.58 0 1.03-.23 1.36-.7.32-.49.48-1.16.48-2.02 0-.87-.16-1.54-.48-2.02a1.58 1.58 0 00-1.36-.71c-.6 0-1.04.25-1.37.71a3.56 3.56 0 00-.48 2.02c0 .86.16 1.53.48 2.01.33.48.78.71 1.37.71z" fill="#b8bb26" fill-rule="nonzero"/><path d="M204.07 113.8c-1.64 0-2.91-.61-3.81-1.82-.92-1.21-1.37-2.92-1.37-5.14 0-2.17.45-3.86 1.37-5.05a4.49 4.49 0 013.81-1.78h.36l-.14 1.36h-.06c-1.21 0-2.13.48-2.78 1.44-.65.95-.98 2.3-.98 4.03 0 1.77.33 3.15.98 4.13a3.16 3.16 0 002.78 1.46h.06l.14 1.36h-.36z" fill="#bdae93" fill-rule="nonzero"/><path d="M206.57 112.27v-1.32h1.78v-5.4h-1.47v-1.31h2.77l.28 2.06h.19c.07-1.47.82-2.2 2.2-2.2.84 0 1.42.23 1.8.71.37.47.57 1.24.57 2.3h-1.6c0-.6-.09-1-.26-1.27-.17-.25-.45-.37-.84-.37-.68 0-1.2.27-1.53.86-.33.6-.5 1.41-.5 2.48v2.14h1.97v1.32h-5.36zM220.36 112.43c-1.36 0-2.43-.36-3.18-1.09-.74-.71-1.11-1.75-1.11-3.1 0-1.3.32-2.33.94-3.05a3.37 3.37 0 012.69-1.09c1.08 0 1.92.33 2.5.98.6.65.9 1.61.9 2.87 0 .35 0 .7-.04 1.02h-5.43c.14.67.47 1.18.97 1.52a3.2 3.2 0 001.93.53c.34 0 .67-.02 1-.07.32-.03.65-.07.97-.15l.2 1.4a13.38 13.38 0 01-2.34.22zm-.65-6.93c-.62 0-1.11.2-1.49.59-.37.38-.59.94-.65 1.65h4.08c0-.72-.17-1.27-.51-1.65a1.84 1.84 0 00-1.43-.6zM224.98 112.27v-8.03h1.41l.11 1h.13c.06-.77.52-1.14 1.38-1.14.34 0 .62.1.83.28.23.2.39.48.45.87h.14c.02-.31.14-.6.37-.8.22-.24.55-.35.98-.35.56 0 .96.14 1.21.43.25.31.37.8.37 1.46v6.28h-1.6v-6.14c0-.54-.21-.82-.62-.82-.52 0-.79.36-.79 1.09v5.87H228V106c0-.46-.22-.68-.64-.68-.5 0-.77.36-.77 1.09v5.87h-1.6zM237.76 112.43a3.2 3.2 0 01-2.6-1.1 4.57 4.57 0 01-.92-3.07c0-1.32.3-2.36.93-3.07a3.2 3.2 0 012.59-1.09c1.11 0 1.98.36 2.59 1.09.62.7.93 1.75.93 3.07 0 1.31-.31 2.35-.93 3.07-.6.72-1.48 1.1-2.6 1.1zm0-1.45c.59 0 1.04-.23 1.36-.7.33-.49.48-1.16.48-2.02 0-.87-.15-1.54-.48-2.02a1.58 1.58 0 00-1.36-.71c-.6 0-1.04.25-1.37.71a3.56 3.56 0 00-.48 2.02c0 .86.16 1.53.48 2.01.33.48.78.71 1.37.71zM248.22 112.43c-1.22 0-2.1-.27-2.63-.76-.55-.51-.83-1.32-.83-2.42v-3.7h-2.01v-1.31h2.01v-2.42h1.62v2.42h3.64v1.32h-3.64v3.61c0 .64.15 1.1.46 1.38.31.3.82.43 1.54.43.24 0 .5-.01.79-.04.3-.02.6-.06.97-.11l.19 1.41a12.78 12.78 0 01-2.1.19zM256.7 112.43c-1.36 0-2.43-.36-3.18-1.09-.74-.71-1.11-1.75-1.11-3.1 0-1.3.32-2.33.94-3.05a3.37 3.37 0 012.68-1.09c1.09 0 1.93.33 2.51.98.6.65.9 1.61.9 2.87 0 .35-.01.7-.04 1.02h-5.43c.14.67.47 1.18.96 1.52a3.2 3.2 0 001.94.53c.34 0 .67-.02 1-.07.32-.03.64-.07.97-.15l.2 1.4a13.38 13.38 0 01-2.34.22zm-.65-6.93c-.62 0-1.12.2-1.49.59-.37.38-.59.94-.65 1.65h4.08c0-.72-.17-1.27-.51-1.65a1.84 1.84 0 00-1.43-.6z" fill="#fbf1c7" fill-rule="nonzero"/><path d="M262 113.8l.14-1.37h.06c1.2 0 2.13-.5 2.78-1.46.65-.98.98-2.36.98-4.13 0-1.73-.33-3.08-.98-4.03a3.16 3.16 0 00-2.78-1.44h-.06l-.14-1.36h.36c1.64 0 2.91.59 3.83 1.78.9 1.2 1.35 2.88 1.35 5.05 0 2.22-.45 3.93-1.35 5.14a4.52 4.52 0 01-3.83 1.81H262z" fill="#bdae93" fill-rule="nonzero"/><path d="M284.88 113.88c-.82 0-1.45-.23-1.9-.72a2.95 2.95 0 01-.68-2.07l.01-1.25v-1.29a.8.8 0 00-.3-.67 1.95 1.95 0 00-.72-.32c-.27-.08-.51-.11-.72-.11v-1.2c.2 0 .44-.03.72-.12.26-.1.5-.22.71-.37a.69.69 0 00.31-.59v-1.3l-.01-1.24c0-.85.23-1.5.68-1.97.45-.47 1.08-.7 1.9-.7a4.86 4.86 0 011.3.16l-.18 1.28-.51-.06-.47-.01c-.35 0-.63.1-.82.34-.18.23-.28.54-.28.96 0 .43 0 .85.02 1.25.01.4.03.83.03 1.26 0 .5-.16.88-.45 1.16-.3.28-.7.42-1.24.44v.24c.54.02.95.16 1.24.45.3.28.45.67.45 1.15 0 .45-.02.89-.03 1.29-.02.39-.02.8-.02 1.22 0 .45.1.8.28 1.06.19.26.47.38.82.38l.47-.03.51-.04.17 1.28c-.15.05-.34.08-.54.11s-.44.03-.75.03z" fill="#fbf1c7" fill-rule="nonzero"/><path d="M64.13 133.49c-.88 0-1.58-.2-2.06-.6-.48-.41-.73-.99-.73-1.73 0-.84.3-1.49.93-1.95a4.4 4.4 0 012.62-.69c.6 0 1.15.07 1.6.2v-.43c0-.54-.19-.93-.56-1.18a3.26 3.26 0 00-1.7-.4l-1.91-.06.15-1.41 1.63.01c1.32.02 2.3.31 2.94.86.66.55.98 1.36.98 2.41v3.35l1.35.17v1.3l-2.57.07-.07-1.77h-.17c-.04.6-.29 1.07-.72 1.38-.44.31-1.01.47-1.71.47zm.25-1.3c.46 0 .87-.08 1.18-.25.3-.18.54-.4.7-.66.15-.27.23-.54.23-.83v-.48a3.15 3.15 0 00-.86-.13 15.1 15.1 0 00-.83-.03c-1.3 0-1.94.4-1.94 1.21 0 .78.5 1.18 1.52 1.18zM71.14 133.33l-.92-8.03h1.52l.6 6.82h.15l.94-6.82h1.46l.94 6.82h.14l.69-6.82h1.6l-1.14 8.03h-1.97l-.94-6.37h-.1l-.93 6.37h-2.04zM82.3 133.49c-.88 0-1.58-.2-2.06-.6-.48-.41-.73-.99-.73-1.73 0-.84.3-1.49.93-1.95a4.4 4.4 0 012.62-.69c.6 0 1.15.07 1.6.2v-.43c0-.54-.2-.93-.56-1.18a3.26 3.26 0 00-1.7-.4l-1.92-.06.16-1.41 1.63.01c1.32.02 2.3.31 2.94.86.65.55.98 1.36.98 2.41v3.35l1.35.17v1.3l-2.57.07-.07-1.77h-.17c-.04.6-.3 1.07-.73 1.38-.43.31-1 .47-1.7.47zm.25-1.3c.46 0 .87-.08 1.18-.25.3-.18.54-.4.7-.66.15-.27.23-.54.23-.83v-.48a3.15 3.15 0 00-.86-.13 15.1 15.1 0 00-.83-.03c-1.3 0-1.94.4-1.94 1.21 0 .78.5 1.18 1.52 1.18zM92.84 124.03c-.31 0-.57-.11-.79-.33a1.08 1.08 0 01-.33-.79c0-.3.11-.57.33-.79.22-.22.48-.32.8-.32a1.11 1.11 0 011.12 1.11 1.11 1.11 0 01-1.13 1.12zm-3.77 9.3v-1.32h3.06v-5.38h-2.6v-1.33h4.21v6.71h2.46v1.32h-7.13zM102.87 133.49c-1.22 0-2.1-.27-2.63-.76-.55-.52-.83-1.32-.83-2.42v-3.7H97.4v-1.31h2.01v-2.42h1.62v2.42h3.64v1.32h-3.64v3.61c0 .64.15 1.1.46 1.38.31.3.82.43 1.54.43.24 0 .5-.01.79-.04.3-.02.6-.06.97-.11l.19 1.41a12.78 12.78 0 01-2.1.19z" fill="#fb4934" fill-rule="nonzero"/><path d="M120.28 133.49c-1.32 0-2.34-.36-3.05-1.09-.72-.71-1.09-1.75-1.09-3.1 0-1.3.36-2.33 1.07-3.05.7-.73 1.7-1.09 3-1.09.8 0 1.47.14 2.02.43.56.28.95.7 1.2 1.23l-1.24.93a2.4 2.4 0 00-2.03-1.16c-.75 0-1.32.23-1.73.7-.41.44-.62 1.1-.62 1.93 0 .92.24 1.61.69 2.1a2.6 2.6 0 001.97.72 15.07 15.07 0 002.35-.2l.19 1.41c-.45.1-.9.16-1.37.19-.46.03-.91.05-1.36.05zM128.74 133.49a3.2 3.2 0 01-2.59-1.1 4.57 4.57 0 01-.93-3.07c0-1.32.31-2.36.93-3.07a3.2 3.2 0 012.6-1.09c1.11 0 1.98.36 2.58 1.09.62.7.93 1.75.93 3.07 0 1.31-.3 2.35-.93 3.07-.6.72-1.47 1.1-2.59 1.1zm0-1.45c.6 0 1.04-.23 1.37-.7.32-.49.48-1.16.48-2.02 0-.87-.16-1.54-.48-2.02a1.58 1.58 0 00-1.37-.71c-.59 0-1.03.24-1.36.71a3.56 3.56 0 00-.48 2.02c0 .86.15 1.53.48 2.01.33.48.77.71 1.36.71zM138.94 133.49c-.93 0-1.6-.27-2.01-.76-.4-.52-.62-1.32-.62-2.42v-7.01h-2.36v-1.32h3.97v8.25c0 .42.03.76.13 1.04.07.26.23.46.46.59.23.12.59.18 1.04.18.42 0 .96-.09 1.61-.3l.19 1.42a9.45 9.45 0 01-2.4.33zM148.03 133.49c-.93 0-1.6-.27-2.02-.76-.4-.52-.62-1.32-.62-2.42v-7.01h-2.35v-1.32H147v8.25c0 .42.03.76.12 1.04.08.26.23.46.46.59.24.12.6.18 1.04.18.42 0 .96-.09 1.62-.3l.18 1.42a9.45 9.45 0 01-2.4.33z" fill="#83a598" fill-rule="nonzero"/><path d="M156 133.49c-.31 0-.58-.11-.8-.33-.21-.23-.32-.5-.32-.8 0-.32.1-.58.33-.8.21-.21.48-.32.79-.32.3 0 .57.1.79.32.21.22.32.48.32.8 0 .3-.1.57-.32.8-.22.22-.48.33-.8.33z" fill="#fbf1c7" fill-rule="nonzero"/><path d="M165.7 133.49c-1.32 0-2.34-.36-3.05-1.09-.72-.71-1.09-1.75-1.09-3.1 0-1.3.36-2.33 1.07-3.05.7-.73 1.7-1.09 3.01-1.09.79 0 1.46.14 2.02.43.55.28.94.7 1.19 1.23l-1.24.93a2.4 2.4 0 00-2.03-1.16c-.75 0-1.32.23-1.72.7-.42.44-.62 1.1-.62 1.93 0 .92.23 1.61.68 2.1a2.6 2.6 0 001.97.72 15.07 15.07 0 002.35-.2l.19 1.41c-.45.1-.9.16-1.36.19-.47.03-.92.05-1.37.05zM170.23 133.33v-1.32H172v-5.4h-1.47v-1.31h2.77l.28 2.06h.19c.08-1.47.82-2.2 2.2-2.2.84 0 1.43.23 1.8.71.37.47.57 1.24.57 2.3h-1.6c0-.6-.09-1.01-.26-1.27-.17-.25-.45-.38-.84-.38-.68 0-1.19.28-1.53.87-.33.6-.5 1.41-.5 2.48v2.14h1.97v1.32h-5.36zM184.03 133.49c-1.37 0-2.44-.36-3.18-1.09-.75-.71-1.12-1.75-1.12-3.1 0-1.3.33-2.33.95-3.05a3.37 3.37 0 012.68-1.09c1.08 0 1.92.33 2.51.98.59.65.9 1.6.9 2.87 0 .35-.02.7-.05 1.02h-5.42c.14.67.46 1.18.96 1.52a3.2 3.2 0 001.94.53c.34 0 .66-.02.99-.07.32-.03.65-.07.98-.15l.2 1.4a13.38 13.38 0 01-2.34.22zm-.66-6.93c-.62 0-1.11.2-1.48.58-.38.4-.6.95-.66 1.66h4.08c0-.72-.17-1.27-.5-1.66a1.84 1.84 0 00-1.44-.58zM191.31 133.49c-.88 0-1.58-.2-2.06-.6-.48-.41-.73-.99-.73-1.73 0-.84.31-1.49.93-1.95a4.4 4.4 0 012.62-.69c.6 0 1.15.07 1.6.2v-.43c0-.54-.19-.93-.56-1.18a3.26 3.26 0 00-1.69-.4l-1.92-.06.15-1.41 1.63.01c1.32.02 2.31.31 2.95.86.65.55.97 1.36.97 2.41v3.35l1.35.17v1.3l-2.57.07-.06-1.77h-.17c-.05.6-.3 1.07-.73 1.38-.44.31-1.01.47-1.7.47zm.25-1.3c.46 0 .87-.08 1.18-.25.3-.18.54-.4.7-.66.15-.27.23-.54.23-.83v-.48a3.15 3.15 0 00-.85-.13 15.1 15.1 0 00-.84-.03c-1.3 0-1.94.4-1.94 1.21 0 .78.5 1.18 1.52 1.18zM202.8 133.49c-1.23 0-2.1-.27-2.64-.76-.54-.52-.82-1.32-.82-2.42v-3.7h-2.01v-1.31h2.01v-2.42h1.61v2.42h3.65v1.32h-3.65v3.61c0 .64.16 1.1.47 1.38.3.3.82.43 1.53.43.25 0 .52-.01.8-.04.29-.02.6-.06.97-.11l.19 1.41a12.78 12.78 0 01-2.11.19zM211.28 133.49c-1.37 0-2.43-.36-3.18-1.09-.74-.71-1.12-1.75-1.12-3.1 0-1.3.33-2.33.95-3.05a3.37 3.37 0 012.68-1.09c1.09 0 1.93.33 2.51.98.6.65.9 1.6.9 2.87 0 .35-.01.7-.04 1.02h-5.43c.14.67.47 1.18.96 1.52a3.2 3.2 0 001.94.53c.34 0 .67-.02 1-.07.32-.03.64-.07.97-.15l.2 1.4a13.38 13.38 0 01-2.34.22zm-.65-6.93c-.62 0-1.12.2-1.49.58-.37.4-.59.95-.65 1.66h4.08c0-.72-.17-1.27-.52-1.66a1.84 1.84 0 00-1.42-.58z" fill="#b8bb26" fill-rule="nonzero"/><path d="M222.24 134.85c-1.64 0-2.92-.6-3.81-1.81-.92-1.21-1.37-2.92-1.37-5.14 0-2.17.45-3.86 1.37-5.05a4.49 4.49 0 013.8-1.78h.37l-.14 1.36h-.07c-1.2 0-2.12.48-2.77 1.44-.65.95-.98 2.3-.98 4.03 0 1.77.33 3.15.98 4.13a3.16 3.16 0 002.77 1.46h.07l.14 1.36h-.36z" fill="#bdae93" fill-rule="nonzero"/><path d="M230.38 134.94c-.82 0-1.46-.23-1.91-.73a2.95 2.95 0 01-.68-2.06l.01-1.25v-1.29a.8.8 0 00-.3-.67 1.95 1.95 0 00-.72-.32c-.26-.08-.51-.11-.71-.11v-1.2c.2 0 .43-.03.71-.12.26-.1.51-.22.71-.37a.69.69 0 00.31-.59v-1.3l-.01-1.24c0-.86.23-1.5.68-1.97.45-.47 1.09-.7 1.9-.7a4.86 4.86 0 011.3.16l-.18 1.28-.5-.06-.47-.01c-.36 0-.64.1-.83.34-.18.23-.27.54-.27.96l.01 1.25c.02.4.03.82.03 1.26 0 .5-.15.88-.45 1.16-.3.28-.7.42-1.24.44v.24c.55.02.95.16 1.24.45.3.28.45.67.45 1.15 0 .45-.01.88-.03 1.29l-.01 1.22c0 .45.09.8.27 1.06.2.26.47.38.83.38l.46-.03.51-.04.17 1.28c-.15.05-.34.08-.54.11s-.43.03-.74.03zM247.96 133.49c-.93 0-1.6-.27-2.02-.76-.4-.52-.62-1.32-.62-2.42v-7.01h-2.36v-1.32h3.97v8.25c0 .42.03.76.13 1.04.08.26.23.46.46.59.24.12.6.18 1.04.18.42 0 .96-.09 1.61-.3l.19 1.42a9.45 9.45 0 01-2.4.33zM254.9 133.49c-.88 0-1.58-.2-2.06-.6-.48-.41-.73-.99-.73-1.73 0-.84.31-1.49.93-1.95a4.4 4.4 0 012.62-.69c.6 0 1.15.07 1.6.2v-.43c0-.54-.19-.93-.56-1.18a3.26 3.26 0 00-1.69-.4l-1.92-.06.15-1.41 1.63.01c1.32.02 2.31.31 2.95.86.65.55.97 1.36.97 2.41v3.35l1.35.17v1.3l-2.57.07-.06-1.77h-.17c-.05.6-.3 1.07-.73 1.38-.44.31-1.01.47-1.7.47zm.25-1.3c.46 0 .87-.08 1.18-.25.3-.18.54-.4.7-.66.15-.27.23-.54.23-.83v-.48a3.15 3.15 0 00-.85-.13 15.1 15.1 0 00-.84-.03c-1.3 0-1.94.4-1.94 1.21 0 .78.5 1.18 1.52 1.18zM261.74 133.33v-11.35h1.61v4.78h.14c.08-1.07.74-1.6 1.97-1.6 1.07 0 1.9.36 2.48 1.07.59.7.88 1.7.88 3 0 1.36-.38 2.41-1.14 3.14a4.51 4.51 0 01-3.26 1.12c-.45 0-.9-.02-1.35-.05l-1.33-.1zm1.61-4.51v3.26c.22.01.45.03.68.03l.7.01c.8 0 1.43-.25 1.86-.76.44-.5.65-1.2.65-2.12 0-.87-.17-1.54-.48-2.02a1.6 1.6 0 00-1.38-.7c-1.36 0-2.03.76-2.03 2.3zM274.87 133.49c-1.37 0-2.44-.36-3.18-1.09-.74-.71-1.12-1.75-1.12-3.1 0-1.3.33-2.33.95-3.05a3.37 3.37 0 012.68-1.09c1.09 0 1.92.33 2.51.98.6.65.9 1.6.9 2.87 0 .35-.01.7-.04 1.02h-5.43c.14.67.47 1.18.96 1.52a3.2 3.2 0 001.94.53c.34 0 .67-.02 1-.07.32-.03.64-.07.97-.15l.2 1.4a13.38 13.38 0 01-2.34.22zm-.65-6.93c-.62 0-1.12.2-1.5.58-.36.4-.58.95-.64 1.66h4.08c0-.72-.17-1.27-.52-1.66a1.84 1.84 0 00-1.42-.58zM284.3 133.49c-.93 0-1.6-.27-2.02-.76-.4-.52-.62-1.32-.62-2.42v-7.01h-2.36v-1.32h3.97v8.25c0 .42.03.76.13 1.04.07.26.23.46.46.59.23.12.59.18 1.04.18.42 0 .96-.09 1.61-.3l.19 1.42a9.45 9.45 0 01-2.4.33zM292.26 127.4c-.3 0-.57-.12-.79-.33a1.08 1.08 0 01-.32-.8c0-.3.1-.57.32-.78.22-.22.48-.33.8-.33.3 0 .57.1.78.33.22.21.33.48.33.79 0 .3-.1.57-.33.79-.21.21-.48.32-.79.32zm0 6.09c-.3 0-.57-.11-.79-.33-.21-.23-.32-.5-.32-.8 0-.32.1-.58.32-.8.22-.21.48-.32.8-.32.3 0 .57.1.78.32.22.22.33.48.33.8 0 .3-.1.57-.33.8-.21.22-.48.33-.79.33zM308.17 127.42l-.14-4.83h1.75l-.15 4.83h-1.46zm3.07 0l-.16-4.83h1.76l-.16 4.83h-1.44z" fill="#fbf1c7" fill-rule="nonzero"/><path d="M316.18 133.33V122.6h7.12V124h-5.6v3.68h4.23v1.44h-4.23v4.2h-1.52zM329.03 124.03c-.3 0-.57-.11-.79-.33a1.08 1.08 0 01-.32-.79c0-.3.1-.57.32-.79.22-.22.48-.32.8-.32a1.11 1.11 0 011.13 1.11 1.11 1.11 0 01-1.13 1.12zm-3.76 9.3v-1.32h3.05v-5.38h-2.6v-1.33h4.21v6.71h2.47v1.32h-7.13zM333.75 133.33v-1.32h1.78v-5.4h-1.47v-1.31h2.77l.28 2.06h.19c.07-1.47.82-2.2 2.2-2.2.84 0 1.43.23 1.8.71.37.47.57 1.24.57 2.3h-1.6c0-.6-.09-1.01-.26-1.27-.17-.25-.45-.38-.84-.38-.68 0-1.19.28-1.53.87-.33.6-.5 1.41-.5 2.48v2.14h1.97v1.32h-5.36zM346.15 133.49a14.78 14.78 0 01-2.75-.24l.19-1.45c.53.09 1 .14 1.4.18.41.05.79.06 1.16.06.8 0 1.4-.07 1.77-.23.37-.17.54-.42.54-.76 0-.25-.06-.43-.19-.54a1.23 1.23 0 00-.59-.28l-1.86-.47a4.7 4.7 0 01-1.73-.75c-.38-.3-.56-.75-.56-1.35 0-.89.34-1.52 1-1.91.69-.4 1.77-.59 3.26-.59.75 0 1.44.05 2.13.14l-.17 1.4c-.4-.04-.76-.07-1.07-.08l-.93-.03c-.89 0-1.54.07-1.96.23-.4.15-.6.4-.6.76 0 .23.09.4.26.5.16.1.42.2.76.29l1.49.36c.84.2 1.46.48 1.84.8.4.34.6.84.6 1.5 0 .84-.33 1.48-.95 1.87-.64.38-1.65.59-3.04.59zM357.23 133.49c-1.22 0-2.09-.27-2.63-.76-.54-.52-.82-1.32-.82-2.42v-3.7h-2.02v-1.31h2.02v-2.42h1.6v2.42h3.65v1.32h-3.64v3.61c0 .64.15 1.1.46 1.38.31.3.83.43 1.54.43.25 0 .51-.01.79-.04.3-.02.6-.06.98-.11l.18 1.41a12.78 12.78 0 01-2.1.19zM375.4 133.49c-1.22 0-2.1-.27-2.63-.76-.55-.52-.83-1.32-.83-2.42v-3.7h-2.01v-1.31h2.01v-2.42h1.62v2.42h3.64v1.32h-3.64v3.61c0 .64.15 1.1.46 1.38.31.3.82.43 1.54.43.24 0 .5-.01.79-.04.3-.02.6-.06.97-.11l.19 1.41a12.78 12.78 0 01-2.1.19zM382.08 133.49c-.88 0-1.58-.2-2.06-.6-.48-.41-.73-.99-.73-1.73 0-.84.31-1.49.93-1.95a4.4 4.4 0 012.62-.69c.6 0 1.15.07 1.6.2v-.43c0-.54-.19-.93-.56-1.18a3.26 3.26 0 00-1.69-.4l-1.92-.06.15-1.41 1.63.01c1.32.02 2.31.31 2.95.86.65.55.98 1.36.98 2.41v3.35l1.34.17v1.3l-2.57.07-.06-1.77h-.17c-.05.6-.3 1.07-.73 1.38-.43.31-1 .47-1.7.47zm.25-1.3c.47 0 .87-.08 1.18-.25.31-.18.54-.4.7-.66.15-.27.23-.54.23-.83v-.48a3.15 3.15 0 00-.85-.13 15.1 15.1 0 00-.84-.03c-1.3 0-1.94.4-1.94 1.21 0 .78.5 1.18 1.52 1.18zM391.57 133.49a14.78 14.78 0 01-2.74-.24l.18-1.45c.53.09 1 .14 1.4.18.42.05.79.06 1.16.06.8 0 1.4-.07 1.77-.23.37-.17.54-.42.54-.76 0-.25-.06-.43-.19-.54a1.23 1.23 0 00-.58-.28l-1.86-.47a4.7 4.7 0 01-1.74-.75c-.37-.3-.56-.75-.56-1.35 0-.89.34-1.52 1-1.91.69-.4 1.78-.59 3.26-.59.75 0 1.45.05 2.13.14l-.17 1.4c-.4-.04-.76-.07-1.07-.08l-.93-.03c-.89 0-1.54.07-1.96.23-.4.15-.6.4-.6.76 0 .23.1.4.26.5.16.1.42.2.76.29l1.5.36c.83.2 1.45.48 1.84.8.38.34.59.84.59 1.5 0 .84-.33 1.48-.95 1.87-.64.38-1.64.59-3.04.59zM397.94 133.33v-11.35h1.61v6.87h.44c.66 0 1.2-.1 1.64-.34.44-.23.76-.6 1-1.13.26-.51.44-1.21.55-2.08h1.66c-.25 1.97-.85 3.35-1.84 4.15l2.37 3.88h-1.99l-1.86-3.18c-.35.1-.74.14-1.16.14h-.8v3.04h-1.62z" fill="#b8bb26" fill-rule="nonzero"/><path d="M408.1 127.42l-.14-4.83h1.75l-.16 4.83h-1.45zm3.07 0l-.16-4.83h1.75l-.15 4.83h-1.44zM417.94 136.63l.6-5.22h1.77l-.91 5.22h-1.46zM437 133.49c-1.01 0-1.8-.36-2.36-1.06a4.82 4.82 0 01-.84-3.04c0-1.35.28-2.38.84-3.13a2.82 2.82 0 012.37-1.1c1.27 0 1.98.53 2.12 1.6h.14v-4.78h1.61v11.35l-1.44.08-.14-1.32h-.17c-.06.47-.28.8-.65 1.04-.39.23-.88.36-1.49.36zm-1.62-4.1c0 1.82.62 2.73 1.88 2.73 1.35 0 2.01-.45 2.01-1.36v-1.94c0-1.54-.68-2.3-2.03-2.3-.6 0-1.05.25-1.38.75-.3.5-.48 1.2-.48 2.12zM446.7 133.49a3.2 3.2 0 01-2.6-1.1 4.57 4.57 0 01-.92-3.07c0-1.32.3-2.36.93-3.07a3.2 3.2 0 012.59-1.09c1.11 0 1.98.36 2.59 1.09.62.7.93 1.75.93 3.07 0 1.31-.31 2.35-.93 3.07-.6.72-1.48 1.1-2.6 1.1zm0-1.45c.59 0 1.04-.23 1.36-.7.33-.49.48-1.16.48-2.02 0-.87-.15-1.54-.48-2.02a1.58 1.58 0 00-1.36-.71c-.6 0-1.04.24-1.37.71a3.56 3.56 0 00-.48 2.02c0 .86.16 1.53.48 2.01.33.48.78.71 1.37.71zM452.51 133.33v-8.03h1.46l.12 1.46h.17c.1-1.07.8-1.6 2.13-1.6.85 0 1.5.25 1.97.76.46.53.7 1.26.7 2.19v5.22h-1.62v-5.22c0-.48-.12-.86-.37-1.12-.25-.26-.6-.4-1.06-.4-1.27 0-1.89.74-1.89 2.23v4.51h-1.6zM465.64 133.49c-1.36 0-2.43-.36-3.18-1.09-.74-.71-1.11-1.75-1.11-3.1 0-1.3.32-2.33.94-3.05a3.37 3.37 0 012.68-1.09c1.09 0 1.93.33 2.52.98.59.65.9 1.6.9 2.87 0 .35-.02.7-.05 1.02h-5.43c.14.67.47 1.18.96 1.52a3.2 3.2 0 001.94.53c.34 0 .67-.02 1-.07.32-.03.65-.07.97-.15l.2 1.4a13.38 13.38 0 01-2.34.22zm-.65-6.93c-.62 0-1.12.2-1.49.58-.37.4-.59.95-.65 1.66h4.08c0-.72-.17-1.27-.51-1.66a1.84 1.84 0 00-1.43-.58zM473.95 127.4c-.31 0-.57-.12-.8-.33a1.08 1.08 0 01-.32-.8c0-.3.11-.57.33-.78.22-.22.48-.33.79-.33.31 0 .57.1.79.33.22.21.33.48.33.79 0 .3-.11.57-.33.79-.22.21-.48.32-.79.32zm0 6.09c-.31 0-.57-.11-.8-.33-.2-.23-.32-.5-.32-.8 0-.32.11-.58.33-.8.22-.21.48-.32.79-.32.31 0 .57.1.79.32.22.22.33.48.33.8 0 .3-.11.57-.33.8-.22.22-.48.33-.79.33z" fill="#fbf1c7" fill-rule="nonzero"/><path d="M490.61 133.33v-4.88h-2.52v-1.32h2.52v-1.15c0-2.77 1.28-4.15 3.8-4.15.6 0 1.14.04 1.68.15l-.17 1.38-.84-.08-.71-.01c-1.43 0-2.14.88-2.14 2.63v1.23h3.28v1.32h-3.28v4.88h-1.62zM500.18 133.49c-.88 0-1.58-.2-2.06-.6-.48-.41-.73-.99-.73-1.73 0-.84.31-1.49.93-1.95a4.4 4.4 0 012.62-.69c.6 0 1.15.07 1.6.2v-.43c0-.54-.19-.93-.56-1.18a3.26 3.26 0 00-1.7-.4l-1.91-.06.15-1.41 1.63.01c1.32.02 2.31.31 2.95.86.65.55.97 1.36.97 2.41v3.35l1.35.17v1.3l-2.57.07-.06-1.77h-.17c-.05.6-.3 1.07-.73 1.38-.44.31-1.01.47-1.7.47zm.25-1.3c.46 0 .87-.08 1.18-.25.3-.18.54-.4.7-.66.15-.27.23-.54.23-.83v-.48a3.15 3.15 0 00-.86-.13 15.1 15.1 0 00-.83-.03c-1.3 0-1.94.4-1.94 1.21 0 .78.5 1.18 1.52 1.18zM511.4 133.49c-.93 0-1.6-.27-2.01-.76-.4-.52-.62-1.32-.62-2.42v-7.01h-2.36v-1.32h3.97v8.25c0 .42.03.76.12 1.04.08.26.24.46.47.59.23.12.59.18 1.04.18.42 0 .96-.09 1.61-.3l.19 1.42a9.45 9.45 0 01-2.4.33zM518.75 133.49a14.78 14.78 0 01-2.74-.24l.18-1.45c.53.09 1 .14 1.4.18.42.05.79.06 1.16.06.8 0 1.4-.07 1.77-.23.37-.17.54-.42.54-.76 0-.25-.06-.43-.18-.54a1.23 1.23 0 00-.6-.28l-1.85-.47a4.7 4.7 0 01-1.74-.75c-.37-.3-.56-.75-.56-1.35 0-.89.34-1.52 1-1.91.7-.4 1.78-.59 3.26-.59.75 0 1.45.05 2.13.14l-.17 1.4c-.4-.04-.76-.07-1.07-.08l-.93-.03c-.89 0-1.54.07-1.96.23-.4.15-.6.4-.6.76 0 .23.1.4.26.5.16.1.42.2.76.29l1.5.36c.83.2 1.45.48 1.84.8.38.34.59.84.59 1.5 0 .84-.33 1.48-.95 1.87-.64.38-1.64.59-3.04.59zM529.23 133.49c-1.36 0-2.43-.36-3.18-1.09-.74-.71-1.11-1.75-1.11-3.1 0-1.3.32-2.33.94-3.05a3.37 3.37 0 012.69-1.09c1.08 0 1.92.33 2.5.98.6.65.9 1.6.9 2.87 0 .35 0 .7-.04 1.02h-5.43c.14.67.47 1.18.96 1.52a3.2 3.2 0 001.94.53c.34 0 .67-.02 1-.07.32-.03.65-.07.97-.15l.2 1.4a13.38 13.38 0 01-2.34.22zm-.65-6.93c-.62 0-1.12.2-1.49.58-.37.4-.59.95-.65 1.66h4.08c0-.72-.17-1.27-.51-1.66a1.84 1.84 0 00-1.43-.58z" fill="#d3869b" fill-rule="nonzero"/><path d="M544.93 134.94c-.29 0-.54 0-.74-.03-.2-.03-.39-.06-.54-.1l.17-1.3.51.05.47.03c.35 0 .63-.12.82-.38.18-.25.28-.6.28-1.06 0-.42 0-.83-.02-1.22-.02-.4-.03-.84-.03-1.29 0-.48.15-.87.45-1.15.3-.3.7-.43 1.24-.45v-.24c-.54-.02-.95-.16-1.24-.44-.3-.28-.45-.66-.45-1.16 0-.44.01-.85.03-1.26.02-.4.02-.82.02-1.25 0-.42-.1-.73-.28-.96-.19-.24-.47-.34-.82-.34l-.47.01-.51.06-.17-1.28a4.19 4.19 0 011.28-.16c.83 0 1.46.23 1.91.7.45.46.68 1.11.68 1.97l-.01 1.24v1.3c0 .23.1.43.3.59a2.48 2.48 0 001.43.5v1.19c-.2 0-.44.03-.7.1-.29.07-.52.18-.74.33a.8.8 0 00-.3.67v1.29l.02 1.25c0 .89-.23 1.57-.68 2.06-.45.5-1.08.73-1.9.73z" fill="#fbf1c7" fill-rule="nonzero"/><path d="M552.7 134.85l.14-1.36h.06c1.2 0 2.13-.5 2.78-1.46.65-.98.98-2.36.98-4.13 0-1.73-.33-3.08-.98-4.03a3.16 3.16 0 00-2.78-1.44h-.06l-.14-1.36h.36c1.64 0 2.91.59 3.83 1.78.9 1.2 1.35 2.88 1.35 5.05 0 2.22-.45 3.93-1.35 5.14a4.52 4.52 0 01-3.83 1.81h-.36z" fill="#bdae93" fill-rule="nonzero"/><path d="M564.8 127.4c-.32 0-.58-.12-.8-.33a1.08 1.08 0 01-.32-.8c0-.3.1-.57.32-.78.22-.22.48-.33.8-.33.3 0 .57.1.78.33.22.21.33.48.33.79 0 .3-.1.57-.33.79-.21.21-.48.32-.79.32zm-1.51 9.23l.6-5.22h1.77l-.91 5.22h-1.46z" fill="#fbf1c7" fill-rule="nonzero"/><path d="M64.13 154.55c-.88 0-1.58-.2-2.06-.6-.48-.41-.73-.99-.73-1.73 0-.84.3-1.49.93-1.95a4.4 4.4 0 012.62-.69c.6 0 1.15.07 1.6.2v-.43c0-.54-.19-.93-.56-1.18a3.26 3.26 0 00-1.7-.4l-1.91-.06.15-1.41 1.63.01c1.32.02 2.3.31 2.94.86.66.55.98 1.36.98 2.41v3.35l1.35.17v1.29l-2.57.08-.07-1.77h-.17c-.04.6-.29 1.07-.72 1.38-.44.31-1.01.47-1.71.47zm.25-1.3c.46 0 .87-.08 1.18-.25.3-.18.54-.4.7-.66.15-.28.23-.54.23-.83v-.48a3.15 3.15 0 00-.86-.13 15.1 15.1 0 00-.83-.03c-1.3 0-1.94.4-1.94 1.21 0 .78.5 1.18 1.52 1.18zM71.14 154.39l-.92-8.03h1.52l.6 6.82h.15l.94-6.82h1.46l.94 6.82h.14l.69-6.82h1.6l-1.14 8.03h-1.97l-.94-6.37h-.1l-.93 6.37h-2.04zM82.3 154.55c-.88 0-1.58-.2-2.06-.6-.48-.41-.73-.99-.73-1.73 0-.84.3-1.49.93-1.95a4.4 4.4 0 012.62-.69c.6 0 1.15.07 1.6.2v-.43c0-.54-.2-.93-.56-1.18a3.26 3.26 0 00-1.7-.4l-1.92-.06.16-1.41 1.63.01c1.32.02 2.3.31 2.94.86.65.55.98 1.36.98 2.41v3.35l1.35.17v1.29l-2.57.08-.07-1.77h-.17c-.04.6-.3 1.07-.73 1.38-.43.31-1 .47-1.7.47zm.25-1.3c.46 0 .87-.08 1.18-.25.3-.18.54-.4.7-.66.15-.28.23-.54.23-.83v-.48a3.15 3.15 0 00-.86-.13 15.1 15.1 0 00-.83-.03c-1.3 0-1.94.4-1.94 1.21 0 .78.5 1.18 1.52 1.18zM92.84 145.09c-.31 0-.57-.11-.79-.33a1.08 1.08 0 01-.33-.79c0-.3.11-.57.33-.79.22-.22.48-.32.8-.32a1.11 1.11 0 011.12 1.11 1.11 1.11 0 01-1.13 1.12zm-3.77 9.3v-1.32h3.06v-5.38h-2.6v-1.33h4.21v6.71h2.46v1.32h-7.13zM102.87 154.55c-1.22 0-2.1-.27-2.63-.76-.55-.52-.83-1.32-.83-2.42v-3.7H97.4v-1.31h2.01v-2.42h1.62v2.42h3.64v1.32h-3.64v3.61c0 .64.15 1.1.46 1.38.31.3.82.43 1.54.43.24 0 .5-.01.79-.04.3-.02.6-.06.97-.11l.19 1.4a12.78 12.78 0 01-2.1.2z" fill="#fb4934" fill-rule="nonzero"/><path d="M120.28 154.55c-1.32 0-2.34-.36-3.05-1.09-.72-.71-1.09-1.75-1.09-3.1 0-1.3.36-2.33 1.07-3.05.7-.73 1.7-1.09 3-1.09.8 0 1.47.14 2.02.43.56.28.95.7 1.2 1.23l-1.24.93a2.4 2.4 0 00-2.03-1.16c-.75 0-1.32.23-1.73.7-.41.44-.62 1.1-.62 1.93 0 .92.24 1.61.69 2.1a2.6 2.6 0 001.97.72 15.07 15.07 0 002.35-.2l.19 1.41c-.45.1-.9.16-1.37.19-.46.03-.91.05-1.36.05zM128.74 154.55a3.2 3.2 0 01-2.59-1.1 4.57 4.57 0 01-.93-3.08c0-1.31.31-2.35.93-3.06a3.2 3.2 0 012.6-1.09c1.11 0 1.98.36 2.58 1.09.62.7.93 1.75.93 3.06 0 1.32-.3 2.36-.93 3.07-.6.73-1.47 1.1-2.59 1.1zm0-1.45c.6 0 1.04-.23 1.37-.71.32-.48.48-1.15.48-2.02 0-.86-.16-1.53-.48-2.01a1.58 1.58 0 00-1.37-.71c-.59 0-1.03.24-1.36.7a3.56 3.56 0 00-.48 2.02c0 .87.15 1.54.48 2.02.33.48.77.71 1.36.71zM138.94 154.55c-.93 0-1.6-.27-2.01-.76-.4-.52-.62-1.32-.62-2.42v-7.01h-2.36v-1.32h3.97v8.25c0 .42.03.76.13 1.04.07.26.23.46.46.59.23.12.59.18 1.04.18.42 0 .96-.09 1.61-.3l.19 1.42a9.45 9.45 0 01-2.4.33zM148.03 154.55c-.93 0-1.6-.27-2.02-.76-.4-.52-.62-1.32-.62-2.42v-7.01h-2.35v-1.32H147v8.25c0 .42.03.76.12 1.04.08.26.23.46.46.59.24.12.6.18 1.04.18.42 0 .96-.09 1.62-.3l.18 1.42a9.45 9.45 0 01-2.4.33z" fill="#83a598" fill-rule="nonzero"/><path d="M156 154.55c-.31 0-.58-.11-.8-.33-.21-.23-.32-.5-.32-.8 0-.32.1-.58.33-.8.21-.21.48-.32.79-.32.3 0 .57.1.79.32.21.22.32.48.32.8 0 .3-.1.57-.32.8-.22.22-.48.33-.8.33z" fill="#fbf1c7" fill-rule="nonzero"/><path d="M165.7 154.55c-1.32 0-2.34-.36-3.05-1.09-.72-.71-1.09-1.75-1.09-3.1 0-1.3.36-2.33 1.07-3.05.7-.73 1.7-1.09 3.01-1.09.79 0 1.46.14 2.02.43.55.28.94.7 1.19 1.23l-1.24.93a2.4 2.4 0 00-2.03-1.16c-.75 0-1.32.23-1.72.7-.42.44-.62 1.1-.62 1.93 0 .92.23 1.61.68 2.1a2.6 2.6 0 001.97.72 15.07 15.07 0 002.35-.2l.19 1.41c-.45.1-.9.16-1.36.19-.47.03-.92.05-1.37.05zM170.23 154.39v-1.32H172v-5.4h-1.47v-1.31h2.77l.28 2.06h.19c.08-1.47.82-2.2 2.2-2.2.84 0 1.43.23 1.8.71.37.47.57 1.24.57 2.3h-1.6c0-.6-.09-1.01-.26-1.27-.17-.25-.45-.38-.84-.38-.68 0-1.19.28-1.53.87-.33.6-.5 1.41-.5 2.48v2.14h1.97v1.32h-5.36zM184.03 154.55c-1.37 0-2.44-.36-3.18-1.09-.75-.71-1.12-1.75-1.12-3.1 0-1.3.33-2.33.95-3.05a3.37 3.37 0 012.68-1.09c1.08 0 1.92.33 2.51.98.59.65.9 1.6.9 2.86 0 .36-.02.72-.05 1.03h-5.42c.14.66.46 1.18.96 1.52a3.2 3.2 0 001.94.52c.34 0 .66-.01.99-.06.32-.03.65-.07.98-.15l.2 1.4a13.38 13.38 0 01-2.34.22zm-.66-6.93c-.62 0-1.11.2-1.48.58-.38.4-.6.95-.66 1.66h4.08c0-.73-.17-1.27-.5-1.66a1.84 1.84 0 00-1.44-.58zM191.31 154.55c-.88 0-1.58-.2-2.06-.6-.48-.41-.73-.99-.73-1.73 0-.84.31-1.49.93-1.95a4.4 4.4 0 012.62-.69c.6 0 1.15.07 1.6.2v-.43c0-.54-.19-.93-.56-1.18a3.26 3.26 0 00-1.69-.4l-1.92-.06.15-1.41 1.63.01c1.32.02 2.31.31 2.95.86.65.55.97 1.36.97 2.41v3.35l1.35.17v1.29l-2.57.08-.06-1.77h-.17c-.05.6-.3 1.07-.73 1.38-.44.31-1.01.47-1.7.47zm.25-1.3c.46 0 .87-.08 1.18-.25.3-.18.54-.4.7-.66.15-.28.23-.54.23-.83v-.48a3.15 3.15 0 00-.85-.13 15.1 15.1 0 00-.84-.03c-1.3 0-1.94.4-1.94 1.21 0 .78.5 1.18 1.52 1.18zM202.8 154.55c-1.23 0-2.1-.27-2.64-.76-.54-.52-.82-1.32-.82-2.42v-3.7h-2.01v-1.31h2.01v-2.42h1.61v2.42h3.65v1.32h-3.65v3.61c0 .64.16 1.1.47 1.38.3.3.82.43 1.53.43.25 0 .52-.01.8-.04.29-.02.6-.06.97-.11l.19 1.4a12.78 12.78 0 01-2.11.2zM211.28 154.55c-1.37 0-2.43-.36-3.18-1.09-.74-.71-1.12-1.75-1.12-3.1 0-1.3.33-2.33.95-3.05a3.37 3.37 0 012.68-1.09c1.09 0 1.93.33 2.51.98.6.65.9 1.6.9 2.86 0 .36-.01.72-.04 1.03h-5.43c.14.66.47 1.18.96 1.52a3.2 3.2 0 001.94.52c.34 0 .67-.01 1-.06.32-.03.64-.07.97-.15l.2 1.4a13.38 13.38 0 01-2.34.22zm-.65-6.93c-.62 0-1.12.2-1.49.58-.37.4-.59.95-.65 1.66h4.08c0-.73-.17-1.27-.52-1.66a1.84 1.84 0 00-1.42-.58z" fill="#b8bb26" fill-rule="nonzero"/><path d="M222.24 155.91c-1.64 0-2.92-.6-3.81-1.81-.92-1.21-1.37-2.92-1.37-5.14 0-2.17.45-3.86 1.37-5.05a4.49 4.49 0 013.8-1.78h.37l-.14 1.36h-.07c-1.2 0-2.12.48-2.77 1.44-.65.95-.98 2.3-.98 4.03 0 1.77.33 3.15.98 4.13a3.16 3.16 0 002.77 1.46h.07l.14 1.36h-.36z" fill="#bdae93" fill-rule="nonzero"/><path d="M230.38 156c-.82 0-1.46-.23-1.91-.73a2.95 2.95 0 01-.68-2.06l.01-1.25v-1.3a.8.8 0 00-.3-.66 1.95 1.95 0 00-.72-.32c-.26-.08-.51-.11-.71-.11v-1.2c.2 0 .43-.03.71-.12.26-.1.51-.22.71-.37a.69.69 0 00.31-.59v-1.3l-.01-1.24c0-.86.23-1.5.68-1.97.45-.47 1.09-.7 1.9-.7a4.86 4.86 0 011.3.16l-.18 1.28-.5-.06c-.18-.02-.33-.02-.47-.02-.36 0-.64.11-.83.35-.18.23-.27.54-.27.96l.01 1.25c.02.4.03.82.03 1.26 0 .5-.15.88-.45 1.16-.3.28-.7.42-1.24.44v.24c.55.02.95.16 1.24.45.3.28.45.67.45 1.15 0 .45-.01.88-.03 1.29l-.01 1.22c0 .45.09.8.27 1.06.2.26.47.38.83.38l.46-.03.51-.04.17 1.28c-.15.05-.34.08-.54.11s-.43.03-.74.03zM247.96 154.55c-.93 0-1.6-.27-2.02-.76-.4-.52-.62-1.32-.62-2.42v-7.01h-2.36v-1.32h3.97v8.25c0 .42.03.76.13 1.04.08.26.23.46.46.59.24.12.6.18 1.04.18.42 0 .96-.09 1.61-.3l.19 1.42a9.45 9.45 0 01-2.4.33zM254.9 154.55c-.88 0-1.58-.2-2.06-.6-.48-.41-.73-.99-.73-1.73 0-.84.31-1.49.93-1.95a4.4 4.4 0 012.62-.69c.6 0 1.15.07 1.6.2v-.43c0-.54-.19-.93-.56-1.18a3.26 3.26 0 00-1.69-.4l-1.92-.06.15-1.41 1.63.01c1.32.02 2.31.31 2.95.86.65.55.97 1.36.97 2.41v3.35l1.35.17v1.29l-2.57.08-.06-1.77h-.17c-.05.6-.3 1.07-.73 1.38-.44.31-1.01.47-1.7.47zm.25-1.3c.46 0 .87-.08 1.18-.25.3-.18.54-.4.7-.66.15-.28.23-.54.23-.83v-.48a3.15 3.15 0 00-.85-.13 15.1 15.1 0 00-.84-.03c-1.3 0-1.94.4-1.94 1.21 0 .78.5 1.18 1.52 1.18zM261.74 154.39v-11.35h1.61v4.78h.14c.08-1.07.74-1.6 1.97-1.6 1.07 0 1.9.36 2.48 1.07.59.7.88 1.7.88 3 0 1.36-.38 2.41-1.14 3.14a4.51 4.51 0 01-3.26 1.12c-.45 0-.9-.02-1.35-.05-.43-.03-.88-.06-1.33-.11zm1.61-4.51v3.25a10.48 10.48 0 001.38.05c.8 0 1.43-.25 1.86-.76.44-.5.65-1.2.65-2.12 0-.87-.17-1.54-.48-2.02a1.6 1.6 0 00-1.38-.7c-1.36 0-2.03.76-2.03 2.3zM274.87 154.55c-1.37 0-2.44-.36-3.18-1.09-.74-.71-1.12-1.75-1.12-3.1 0-1.3.33-2.33.95-3.05a3.37 3.37 0 012.68-1.09c1.09 0 1.92.33 2.51.98.6.65.9 1.6.9 2.86 0 .36-.01.72-.04 1.03h-5.43c.14.66.47 1.18.96 1.52a3.2 3.2 0 001.94.52c.34 0 .67-.01 1-.06.32-.03.64-.07.97-.15l.2 1.4a13.38 13.38 0 01-2.34.22zm-.65-6.93c-.62 0-1.12.2-1.5.58-.36.4-.58.95-.64 1.66h4.08c0-.73-.17-1.27-.52-1.66a1.84 1.84 0 00-1.42-.58zM284.3 154.55c-.93 0-1.6-.27-2.02-.76-.4-.52-.62-1.32-.62-2.42v-7.01h-2.36v-1.32h3.97v8.25c0 .42.03.76.13 1.04.07.26.23.46.46.59.23.12.59.18 1.04.18.42 0 .96-.09 1.61-.3l.19 1.42a9.45 9.45 0 01-2.4.33zM292.26 148.45c-.3 0-.57-.1-.79-.32a1.08 1.08 0 01-.32-.8c0-.3.1-.57.32-.78.22-.22.48-.33.8-.33.3 0 .57.1.78.33.22.21.33.48.33.79 0 .3-.1.57-.33.79-.21.21-.48.32-.79.32zm0 6.1c-.3 0-.57-.11-.79-.33-.21-.23-.32-.5-.32-.8 0-.32.1-.58.32-.8.22-.21.48-.32.8-.32.3 0 .57.1.78.32.22.22.33.48.33.8 0 .3-.1.57-.33.8-.21.22-.48.33-.79.33zM308.17 148.48l-.14-4.83h1.75l-.15 4.83h-1.46zm3.07 0l-.16-4.83h1.76l-.16 4.83h-1.44z" fill="#fbf1c7" fill-rule="nonzero"/><path d="M319.14 154.55a8.1 8.1 0 01-3.19-.6l.2-1.53c.54.23 1.09.42 1.6.54.53.13 1.02.19 1.52.19 1.4 0 2.1-.5 2.1-1.5 0-.64-.35-1.1-1-1.41l-1.86-.84a4.99 4.99 0 01-1.7-1.21 2.65 2.65 0 01-.57-1.75c0-.93.3-1.66.9-2.17.6-.53 1.46-.78 2.58-.78.66 0 1.27.11 1.78.31.53.22 1.02.56 1.5 1.04l-1.05 1.09c-.4-.38-.8-.64-1.13-.8a2.48 2.48 0 00-1.1-.24 2.2 2.2 0 00-1.37.37c-.32.25-.5.62-.5 1.1 0 .36.1.64.29.85.18.23.46.42.82.6l1.58.74c.79.37 1.4.79 1.81 1.27.42.46.62 1.07.62 1.8 0 1.95-1.27 2.93-3.83 2.93zM329.37 154.55c-1.36 0-2.43-.36-3.17-1.09-.75-.71-1.12-1.75-1.12-3.1 0-1.3.33-2.33.95-3.05a3.37 3.37 0 012.68-1.09c1.08 0 1.92.33 2.51.98.59.65.9 1.6.9 2.86 0 .36-.02.72-.05 1.03h-5.42c.14.66.46 1.18.96 1.52a3.2 3.2 0 001.94.52c.34 0 .66-.01.99-.06.32-.03.65-.07.97-.15l.2 1.4a13.38 13.38 0 01-2.34.22zm-.65-6.93c-.62 0-1.11.2-1.48.58-.38.4-.6.95-.66 1.66h4.08c0-.73-.17-1.27-.51-1.66a1.84 1.84 0 00-1.43-.58zM338.3 154.55c-1.31 0-2.34-.36-3.05-1.09-.71-.71-1.08-1.75-1.08-3.1 0-1.3.35-2.33 1.07-3.05.7-.73 1.7-1.09 3-1.09.8 0 1.46.14 2.02.43.56.28.94.7 1.2 1.23l-1.25.93a2.4 2.4 0 00-2.03-1.16c-.74 0-1.32.23-1.72.7-.42.44-.62 1.1-.62 1.93 0 .92.23 1.61.68 2.1a2.6 2.6 0 001.97.72 15.07 15.07 0 002.36-.2l.18 1.41c-.45.1-.9.16-1.36.19-.47.03-.92.05-1.36.05zM346.77 154.55a3.2 3.2 0 01-2.59-1.1 4.57 4.57 0 01-.93-3.08c0-1.31.3-2.35.93-3.06a3.2 3.2 0 012.59-1.09c1.12 0 1.98.36 2.59 1.09.62.7.93 1.75.93 3.06 0 1.32-.31 2.36-.93 3.07-.6.73-1.47 1.1-2.6 1.1zm0-1.45c.59 0 1.04-.23 1.36-.71.33-.48.48-1.15.48-2.02 0-.86-.15-1.53-.48-2.01a1.58 1.58 0 00-1.36-.71c-.59 0-1.04.24-1.37.7a3.56 3.56 0 00-.48 2.02c0 .87.16 1.54.48 2.02.33.48.78.71 1.37.71zM352.58 154.39v-8.03h1.46l.12 1.46h.17c.1-1.07.81-1.6 2.13-1.6.85 0 1.5.25 1.97.76.46.53.7 1.26.7 2.19v5.22h-1.62v-5.22c0-.49-.12-.86-.37-1.12-.25-.26-.6-.4-1.05-.4-1.27 0-1.9.74-1.9 2.23v4.51h-1.6zM364.32 154.55c-1.01 0-1.8-.36-2.36-1.06a4.82 4.82 0 01-.84-3.04c0-1.35.28-2.39.84-3.13a2.82 2.82 0 012.37-1.1c1.27 0 1.99.53 2.13 1.6h.14v-4.78h1.6v11.35l-1.43.08-.14-1.32h-.17c-.06.47-.28.8-.65 1.04-.4.23-.89.36-1.5.36zm-1.61-4.1c0 1.82.62 2.73 1.87 2.73 1.35 0 2.02-.45 2.02-1.36v-1.94c0-1.54-.69-2.3-2.03-2.3-.6 0-1.06.25-1.38.75-.31.5-.48 1.2-.48 2.12zM384.49 154.55c-1.23 0-2.1-.27-2.64-.76-.54-.52-.82-1.32-.82-2.42v-3.7h-2.02v-1.31h2.02v-2.42h1.61v2.42h3.65v1.32h-3.65v3.61c0 .64.16 1.1.47 1.38.3.3.82.43 1.53.43.25 0 .51-.01.8-.04.29-.02.6-.06.97-.11l.19 1.4a12.78 12.78 0 01-2.11.2zM391.17 154.55c-.89 0-1.58-.2-2.06-.6-.49-.41-.73-.99-.73-1.73 0-.84.3-1.49.93-1.95a4.4 4.4 0 012.62-.69c.6 0 1.14.07 1.6.2v-.43c0-.54-.2-.93-.56-1.18a3.26 3.26 0 00-1.7-.4l-1.92-.06.16-1.41 1.63.01c1.31.02 2.3.31 2.94.86.65.55.98 1.36.98 2.41v3.35l1.35.17v1.29l-2.58.08-.06-1.77h-.17c-.04.6-.3 1.07-.73 1.38-.43.31-1 .47-1.7.47zm.25-1.3c.46 0 .86-.08 1.17-.25.31-.18.55-.4.7-.66.16-.28.23-.54.23-.83v-.48a3.15 3.15 0 00-.85-.13 15.1 15.1 0 00-.84-.03c-1.3 0-1.93.4-1.93 1.21 0 .78.5 1.18 1.52 1.18zM400.65 154.55a14.78 14.78 0 01-2.74-.24l.19-1.45c.52.09.99.14 1.4.18.41.05.78.06 1.15.06.81 0 1.4-.07 1.77-.23.37-.17.54-.42.54-.76 0-.25-.06-.43-.18-.54a1.23 1.23 0 00-.6-.28l-1.85-.47a4.7 4.7 0 01-1.74-.76c-.37-.29-.56-.74-.56-1.34 0-.89.35-1.52 1.01-1.91.68-.4 1.77-.59 3.26-.59.74 0 1.44.05 2.12.14l-.17 1.4c-.4-.04-.76-.07-1.07-.08l-.93-.03c-.88 0-1.53.07-1.95.23-.4.15-.6.4-.6.76 0 .23.09.4.26.5.15.1.42.2.76.29l1.48.36c.84.2 1.46.48 1.85.8.39.34.59.84.59 1.49 0 .85-.33 1.49-.95 1.88-.63.38-1.64.59-3.04.59zM407.03 154.39v-11.35h1.6v6.87h.44c.67 0 1.21-.1 1.65-.34.43-.23.76-.6 1-1.13.25-.51.44-1.21.55-2.08h1.66c-.25 1.97-.86 3.35-1.85 4.15l2.37 3.88h-1.98l-1.86-3.18c-.36.1-.75.14-1.16.14h-.81v3.04h-1.61z" fill="#b8bb26" fill-rule="nonzero"/><path d="M417.18 148.48l-.14-4.83h1.75l-.15 4.83h-1.46zm3.07 0l-.16-4.83h1.76l-.16 4.83h-1.44zM427.03 157.7l.6-5.23h1.77l-.92 5.22h-1.45zM446.08 154.55c-1.01 0-1.8-.36-2.36-1.06a4.82 4.82 0 01-.84-3.04c0-1.35.28-2.39.84-3.13a2.82 2.82 0 012.37-1.1c1.27 0 1.99.53 2.13 1.6h.14v-4.78h1.6v11.35l-1.43.08-.14-1.32h-.17c-.07.47-.28.8-.66 1.04-.38.23-.88.36-1.48.36zm-1.62-4.1c0 1.82.62 2.73 1.88 2.73 1.35 0 2.02-.45 2.02-1.36v-1.94c0-1.54-.69-2.3-2.04-2.3-.6 0-1.05.25-1.38.75-.3.5-.48 1.2-.48 2.12zM455.78 154.55a3.2 3.2 0 01-2.59-1.1 4.57 4.57 0 01-.93-3.08c0-1.31.31-2.35.93-3.06a3.2 3.2 0 012.6-1.09c1.1 0 1.98.36 2.58 1.09.62.7.93 1.75.93 3.06 0 1.32-.3 2.36-.93 3.07-.6.73-1.47 1.1-2.59 1.1zm0-1.45c.6 0 1.04-.23 1.37-.71.32-.48.48-1.15.48-2.02 0-.86-.16-1.53-.48-2.01a1.58 1.58 0 00-1.37-.71c-.59 0-1.04.24-1.36.7a3.56 3.56 0 00-.48 2.02c0 .87.15 1.54.48 2.02.32.48.77.71 1.36.71zM461.6 154.39v-8.03h1.45l.13 1.46h.17c.09-1.07.8-1.6 2.12-1.6.85 0 1.5.25 1.97.76.46.53.7 1.26.7 2.19v5.22h-1.62v-5.22c0-.49-.12-.86-.37-1.12-.25-.26-.6-.4-1.05-.4-1.27 0-1.9.74-1.9 2.23v4.51h-1.6zM474.72 154.55c-1.36 0-2.43-.36-3.17-1.09-.75-.71-1.12-1.75-1.12-3.1 0-1.3.33-2.33.95-3.05a3.37 3.37 0 012.68-1.09c1.08 0 1.92.33 2.51.98.59.65.9 1.6.9 2.86 0 .36-.02.72-.05 1.03H472c.14.66.46 1.18.96 1.52a3.2 3.2 0 001.94.52c.34 0 .66-.01.99-.06.32-.03.65-.07.97-.15l.2 1.4a13.38 13.38 0 01-2.34.22zm-.65-6.93c-.62 0-1.11.2-1.48.58-.38.4-.6.95-.66 1.66h4.08c0-.73-.17-1.27-.51-1.66a1.84 1.84 0 00-1.43-.58zM483.04 148.45c-.32 0-.58-.1-.8-.32a1.08 1.08 0 01-.32-.8c0-.3.1-.57.32-.78.22-.22.48-.33.8-.33.3 0 .57.1.79.33.21.21.32.48.32.79 0 .3-.1.57-.32.79-.22.21-.48.32-.8.32zm0 6.1c-.32 0-.58-.11-.8-.33-.21-.23-.32-.5-.32-.8 0-.32.1-.58.32-.8.22-.21.48-.32.8-.32.3 0 .57.1.79.32.21.22.32.48.32.8 0 .3-.1.57-.32.8-.22.22-.48.33-.8.33z" fill="#fbf1c7" fill-rule="nonzero"/><path d="M499.7 154.39v-4.88h-2.53v-1.32h2.53v-1.15c0-2.77 1.27-4.15 3.8-4.15.59 0 1.13.04 1.67.15l-.17 1.38-.83-.08-.72-.01c-1.42 0-2.14.88-2.14 2.63v1.23h3.29v1.32h-3.29v4.88h-1.61zM509.26 154.55c-.88 0-1.58-.2-2.06-.6-.48-.41-.73-.99-.73-1.73 0-.84.31-1.49.93-1.95a4.4 4.4 0 012.62-.69c.6 0 1.15.07 1.6.2v-.43c0-.54-.18-.93-.56-1.18a3.26 3.26 0 00-1.69-.4l-1.92-.06.16-1.41 1.62.01c1.32.02 2.31.31 2.95.86.65.55.98 1.36.98 2.41v3.35l1.35.17v1.29l-2.58.08-.06-1.77h-.17c-.05.6-.3 1.07-.73 1.38-.43.31-1 .47-1.7.47zm.25-1.3c.47 0 .87-.08 1.18-.25.31-.18.54-.4.7-.66.15-.28.23-.54.23-.83v-.48a3.15 3.15 0 00-.85-.13 15.1 15.1 0 00-.84-.03c-1.3 0-1.94.4-1.94 1.21 0 .78.5 1.18 1.52 1.18zM520.49 154.55c-.93 0-1.6-.27-2.02-.76-.4-.52-.62-1.32-.62-2.42v-7.01h-2.35v-1.32h3.96v8.25c0 .42.04.76.13 1.04.08.26.23.46.46.59.24.12.6.18 1.04.18.42 0 .96-.09 1.62-.3l.18 1.42a9.45 9.45 0 01-2.4.33zM527.84 154.55a14.78 14.78 0 01-2.75-.24l.19-1.45c.53.09 1 .14 1.4.18.41.05.78.06 1.16.06.8 0 1.4-.07 1.76-.23.38-.17.55-.42.55-.76 0-.25-.07-.43-.19-.54a1.23 1.23 0 00-.59-.28l-1.86-.47a4.7 4.7 0 01-1.74-.76c-.37-.29-.55-.74-.55-1.34 0-.89.34-1.52 1-1.91.69-.4 1.77-.59 3.26-.59.74 0 1.44.05 2.12.14l-.17 1.4c-.4-.04-.76-.07-1.07-.08l-.93-.03c-.88 0-1.53.07-1.95.23-.4.15-.6.4-.6.76 0 .23.09.4.26.5.15.1.42.2.76.29l1.49.36c.83.2 1.45.48 1.84.8.39.34.6.84.6 1.49 0 .85-.33 1.49-.95 1.88-.64.38-1.65.59-3.04.59zM538.32 154.55c-1.37 0-2.44-.36-3.18-1.09-.75-.71-1.12-1.75-1.12-3.1 0-1.3.33-2.33.95-3.05a3.37 3.37 0 012.68-1.09c1.08 0 1.92.33 2.51.98.59.65.9 1.6.9 2.86 0 .36-.02.72-.05 1.03h-5.42c.14.66.46 1.18.96 1.52a3.2 3.2 0 001.94.52c.34 0 .66-.01.99-.06.32-.03.65-.07.98-.15l.2 1.4a13.38 13.38 0 01-2.34.22zm-.66-6.93c-.62 0-1.11.2-1.48.58-.38.4-.6.95-.65 1.66h4.07c0-.73-.17-1.27-.5-1.66a1.84 1.84 0 00-1.44-.58z" fill="#d3869b" fill-rule="nonzero"/><path d="M554.02 156c-.3 0-.54 0-.74-.03-.2-.03-.4-.06-.55-.1l.17-1.3.52.05.46.03c.36 0 .64-.12.82-.38.19-.25.28-.6.28-1.06l-.01-1.22c-.02-.4-.04-.84-.04-1.29 0-.48.16-.87.45-1.15.3-.3.7-.43 1.24-.45v-.24c-.54-.02-.94-.16-1.24-.44-.29-.28-.45-.67-.45-1.16 0-.44.02-.85.04-1.26l.01-1.25c0-.42-.1-.73-.28-.96-.18-.24-.46-.35-.82-.35-.14 0-.3 0-.46.02l-.52.06-.17-1.28a4.19 4.19 0 011.29-.16c.82 0 1.46.23 1.9.7.46.46.69 1.11.69 1.97l-.02 1.24v1.3c0 .23.1.43.31.59a2.48 2.48 0 001.43.5v1.19c-.2 0-.45.03-.71.1-.28.07-.51.18-.73.33a.8.8 0 00-.3.67v1.29l.02 1.25c0 .89-.23 1.57-.68 2.06-.45.5-1.09.73-1.91.73z" fill="#fbf1c7" fill-rule="nonzero"/><path d="M561.79 155.91l.14-1.36h.06c1.2 0 2.12-.5 2.77-1.46.65-.98.98-2.36.98-4.13 0-1.73-.33-3.08-.98-4.03a3.16 3.16 0 00-2.77-1.44h-.06l-.14-1.36h.35c1.65 0 2.92.59 3.83 1.78.9 1.2 1.35 2.88 1.35 5.05 0 2.22-.45 3.93-1.35 5.14a4.52 4.52 0 01-3.83 1.81h-.35z" fill="#bdae93" fill-rule="nonzero"/><path d="M573.88 148.45c-.31 0-.57-.1-.8-.32a1.08 1.08 0 01-.32-.8c0-.3.11-.57.33-.78.22-.22.48-.33.79-.33.3 0 .57.1.79.33.22.21.33.48.33.79 0 .3-.11.57-.33.79-.22.21-.48.32-.8.32zm-1.5 9.24l.6-5.22h1.77l-.92 5.22h-1.45z" fill="#fbf1c7" fill-rule="nonzero"/><path d="M65.77 175.6c-1.31 0-2.34-.35-3.05-1.08-.71-.71-1.09-1.75-1.09-3.1 0-1.3.36-2.33 1.07-3.06.7-.72 1.7-1.08 3.01-1.08.8 0 1.46.14 2.02.43.56.28.94.7 1.2 1.23l-1.25.93a2.4 2.4 0 00-2.03-1.16c-.74 0-1.32.23-1.72.7-.42.44-.62 1.1-.62 1.93 0 .92.23 1.61.68 2.1a2.6 2.6 0 001.97.72 15.07 15.07 0 002.36-.2l.18 1.41c-.45.1-.9.16-1.36.19-.47.03-.92.05-1.37.05zM74.24 175.6a3.2 3.2 0 01-2.6-1.1 4.57 4.57 0 01-.92-3.07c0-1.31.3-2.35.93-3.07a3.2 3.2 0 012.59-1.08c1.11 0 1.98.36 2.59 1.08.62.72.93 1.76.93 3.07 0 1.32-.31 2.36-.93 3.07-.6.73-1.48 1.1-2.6 1.1zm0-1.44c.59 0 1.04-.23 1.36-.71.33-.48.48-1.15.48-2.02 0-.86-.15-1.53-.48-2.01a1.58 1.58 0 00-1.36-.71c-.6 0-1.04.24-1.37.7a3.56 3.56 0 00-.48 2.02c0 .87.16 1.54.48 2.02.33.48.78.71 1.37.71zM80.05 175.45v-8.03h1.46l.12 1.46h.17c.1-1.07.8-1.6 2.13-1.6.85 0 1.5.25 1.97.76.46.53.7 1.26.7 2.19v5.22h-1.62v-5.22c0-.49-.12-.86-.37-1.12-.25-.26-.6-.4-1.06-.4-1.27 0-1.89.74-1.89 2.23v4.51h-1.6zM91.79 175.6a14.78 14.78 0 01-2.75-.23l.19-1.45c.53.09.99.13 1.4.18.41.05.78.06 1.16.06.8 0 1.4-.07 1.76-.23.38-.17.55-.42.55-.76 0-.25-.07-.43-.19-.54a1.23 1.23 0 00-.59-.28l-1.86-.47a4.7 4.7 0 01-1.74-.76c-.37-.29-.55-.74-.55-1.34 0-.89.34-1.52 1-1.91.69-.4 1.77-.59 3.26-.59.74 0 1.44.05 2.12.14l-.17 1.4c-.4-.04-.76-.07-1.07-.08l-.93-.03c-.88 0-1.53.07-1.95.23-.4.15-.6.4-.6.76 0 .23.09.4.26.5.15.1.42.2.76.29l1.49.36c.83.2 1.45.48 1.84.8.39.34.6.84.6 1.49 0 .85-.33 1.49-.95 1.88-.64.38-1.65.59-3.04.59zM101.5 175.6a3.2 3.2 0 01-2.6-1.1 4.57 4.57 0 01-.93-3.07c0-1.31.31-2.35.93-3.07a3.2 3.2 0 012.6-1.08c1.1 0 1.98.36 2.58 1.08.62.72.93 1.76.93 3.07 0 1.32-.31 2.36-.93 3.07-.6.73-1.47 1.1-2.59 1.1zm0-1.44c.58 0 1.03-.23 1.36-.71.32-.48.48-1.15.48-2.02 0-.86-.16-1.53-.48-2.01a1.58 1.58 0 00-1.37-.71c-.59 0-1.04.24-1.36.7a3.56 3.56 0 00-.48 2.02c0 .87.15 1.54.48 2.02.32.48.77.71 1.36.71zM111.7 175.6c-.94 0-1.6-.26-2.02-.75-.4-.52-.62-1.32-.62-2.42v-7.01h-2.36v-1.32h3.97v8.25c0 .42.03.76.12 1.04.08.26.23.46.47.59.23.12.59.18 1.04.18.41 0 .96-.09 1.6-.3l.2 1.42a9.45 9.45 0 01-2.4.33zM120.43 175.6c-1.36 0-2.43-.35-3.17-1.08-.75-.71-1.12-1.75-1.12-3.1 0-1.3.33-2.33.95-3.06a3.37 3.37 0 012.68-1.08c1.08 0 1.92.33 2.51.98.59.65.9 1.6.9 2.86 0 .36-.02.72-.05 1.03h-5.42c.14.66.46 1.18.96 1.52a3.2 3.2 0 001.94.52c.34 0 .66-.01.99-.06.32-.03.65-.08.97-.15l.2 1.4a13.38 13.38 0 01-2.34.22zm-.65-6.93c-.62 0-1.11.2-1.48.6-.38.38-.6.94-.66 1.65h4.08c0-.73-.17-1.27-.51-1.66a1.84 1.84 0 00-1.43-.59z" fill="#fabd2f" fill-rule="nonzero"/><path d="M128.74 175.6c-.3 0-.57-.1-.79-.32-.21-.23-.32-.5-.32-.8 0-.32.1-.58.32-.8.22-.21.48-.32.8-.32.3 0 .57.1.78.32.22.22.33.48.33.8 0 .3-.1.57-.33.8-.21.22-.48.33-.79.33z" fill="#fbf1c7" fill-rule="nonzero"/><path d="M138.94 175.6c-.93 0-1.6-.26-2.01-.75-.4-.52-.62-1.32-.62-2.42v-7.01h-2.36v-1.32h3.97v8.25c0 .42.03.76.13 1.04.07.26.23.46.46.59.23.12.59.18 1.04.18.42 0 .96-.09 1.61-.3l.19 1.42a9.45 9.45 0 01-2.4.33zM146.91 175.6a3.2 3.2 0 01-2.59-1.1 4.57 4.57 0 01-.93-3.07c0-1.31.31-2.35.93-3.07a3.2 3.2 0 012.6-1.08c1.1 0 1.98.36 2.58 1.08.62.72.93 1.76.93 3.07 0 1.32-.3 2.36-.93 3.07-.6.73-1.47 1.1-2.59 1.1zm0-1.44c.6 0 1.04-.23 1.37-.71.32-.48.48-1.15.48-2.02 0-.86-.16-1.53-.48-2.01a1.58 1.58 0 00-1.37-.71c-.59 0-1.04.24-1.36.7a3.56 3.56 0 00-.48 2.02c0 .87.15 1.54.48 2.02.32.48.77.71 1.36.71zM152.83 179.06l-.07-1.4 2.57-.13c.8-.05 1.4-.28 1.77-.68.37-.42.54-1.04.54-1.86v-.78h-.12c-.07.46-.28.8-.65 1.04-.4.23-.89.36-1.5.36-1 0-1.8-.36-2.35-1.06a4.82 4.82 0 01-.84-3.04c0-1.35.28-2.39.84-3.13a2.82 2.82 0 012.37-1.1c1.27 0 1.99.53 2.13 1.6h.17l.12-1.46h1.46v7.32c0 1.42-.33 2.48-.98 3.16-.65.67-1.69 1.04-3.11 1.1l-2.35.06zm.93-7.55c0 1.82.62 2.73 1.88 2.73 1.35 0 2.02-.45 2.02-1.36v-1.94c0-1.54-.69-2.3-2.03-2.3-.61 0-1.06.25-1.38.75-.31.5-.49 1.2-.49 2.12z" fill="#8ec07c" fill-rule="nonzero"/><path d="M167.73 176.97c-1.64 0-2.91-.6-3.81-1.81-.92-1.21-1.37-2.92-1.37-5.14 0-2.17.45-3.86 1.37-5.05a4.49 4.49 0 013.81-1.78h.36l-.14 1.36h-.06c-1.21 0-2.13.48-2.78 1.44-.65.95-.97 2.3-.97 4.03 0 1.77.32 3.15.97 4.13a3.16 3.16 0 002.78 1.46h.06l.14 1.36h-.36z" fill="#bdae93" fill-rule="nonzero"/><path d="M173.14 175.6c-.88 0-1.58-.2-2.06-.6-.48-.4-.73-.98-.73-1.72 0-.84.31-1.49.93-1.95a4.4 4.4 0 012.62-.69c.6 0 1.15.07 1.6.2v-.43c0-.54-.19-.93-.56-1.18a3.26 3.26 0 00-1.69-.4l-1.92-.06.15-1.41 1.63.01c1.32.02 2.31.31 2.95.86.65.55.97 1.36.97 2.41V174l1.35.17v1.29l-2.57.08-.06-1.77h-.17c-.05.6-.3 1.07-.73 1.38-.44.31-1.01.47-1.7.47zm.25-1.28c.47 0 .87-.1 1.18-.27a1.67 1.67 0 00.93-1.49v-.47a3.15 3.15 0 00-.85-.13 15.1 15.1 0 00-.84-.03c-1.3 0-1.94.4-1.94 1.21 0 .78.5 1.18 1.52 1.18zM180.15 175.45l-.92-8.03h1.52l.6 6.82h.15l.94-6.82h1.46l.95 6.82h.14l.68-6.82h1.6l-1.14 8.03h-1.96l-.95-6.37h-.1l-.92 6.37h-2.05zM191.31 175.6c-.88 0-1.58-.2-2.06-.6-.48-.4-.73-.98-.73-1.72 0-.84.31-1.49.93-1.95a4.4 4.4 0 012.62-.69c.6 0 1.15.07 1.6.2v-.43c0-.54-.19-.93-.56-1.18a3.26 3.26 0 00-1.69-.4l-1.92-.06.15-1.41 1.63.01c1.32.02 2.31.31 2.95.86.65.55.97 1.36.97 2.41V174l1.35.17v1.29l-2.57.08-.06-1.77h-.17c-.05.6-.3 1.07-.73 1.38-.44.31-1.01.47-1.7.47zm.25-1.28c.46 0 .87-.1 1.18-.27a1.67 1.67 0 00.93-1.49v-.47a3.15 3.15 0 00-.85-.13 15.1 15.1 0 00-.84-.03c-1.3 0-1.94.4-1.94 1.21 0 .78.5 1.18 1.52 1.18zM201.85 166.15c-.3 0-.57-.11-.79-.33a1.08 1.08 0 01-.32-.79c0-.3.1-.57.32-.79.22-.22.48-.32.8-.32a1.11 1.11 0 011.12 1.11 1.11 1.11 0 01-1.13 1.12zm-3.76 9.3v-1.32h3.05v-5.38h-2.6v-1.33h4.21v6.71h2.47v1.32h-7.13zM211.88 175.6c-1.22 0-2.09-.26-2.63-.75-.54-.52-.82-1.32-.82-2.42v-3.7h-2.02v-1.31h2.02V165h1.6v2.42h3.65v1.32h-3.64v3.6c0 .65.15 1.11.46 1.39.31.3.83.43 1.54.43.25 0 .51-.01.79-.04.3-.02.6-.07.98-.11l.18 1.4a12.78 12.78 0 01-2.1.2z" fill="#fb4934" fill-rule="nonzero"/><path d="M229.3 175.6c-1.33 0-2.35-.35-3.06-1.08-.72-.71-1.09-1.75-1.09-3.1 0-1.3.36-2.33 1.07-3.06.7-.72 1.7-1.08 3.01-1.08.8 0 1.46.14 2.02.43.55.28.94.7 1.19 1.23l-1.24.93a2.4 2.4 0 00-2.03-1.16c-.75 0-1.32.23-1.72.7-.42.44-.62 1.1-.62 1.93 0 .92.23 1.61.68 2.1a2.6 2.6 0 001.97.72 15.07 15.07 0 002.35-.2l.2 1.41c-.46.1-.9.16-1.37.19-.47.03-.92.05-1.37.05zM237.76 175.6a3.2 3.2 0 01-2.6-1.1 4.57 4.57 0 01-.92-3.07c0-1.31.3-2.35.93-3.07a3.2 3.2 0 012.59-1.08c1.11 0 1.98.36 2.59 1.08.62.72.93 1.76.93 3.07 0 1.32-.31 2.36-.93 3.07-.6.73-1.48 1.1-2.6 1.1zm0-1.44c.59 0 1.04-.23 1.36-.71.33-.48.48-1.15.48-2.02 0-.86-.15-1.53-.48-2.01a1.58 1.58 0 00-1.36-.71c-.6 0-1.04.24-1.37.7a3.56 3.56 0 00-.48 2.02c0 .87.16 1.54.48 2.02.33.48.78.71 1.37.71zM247.96 175.6c-.93 0-1.6-.26-2.02-.75-.4-.52-.62-1.32-.62-2.42v-7.01h-2.36v-1.32h3.97v8.25c0 .42.03.76.13 1.04.08.26.23.46.46.59.24.12.6.18 1.04.18.42 0 .96-.09 1.61-.3l.19 1.42a9.45 9.45 0 01-2.4.33zM257.04 175.6c-.93 0-1.6-.26-2.01-.75-.4-.52-.62-1.32-.62-2.42v-7.01h-2.36v-1.32h3.97v8.25c0 .42.03.76.12 1.04.08.26.23.46.47.59.23.12.59.18 1.04.18.41 0 .96-.09 1.6-.3l.2 1.42a9.45 9.45 0 01-2.4.33z" fill="#83a598" fill-rule="nonzero"/><path d="M265.01 175.6c-.31 0-.57-.1-.8-.32-.2-.23-.32-.5-.32-.8 0-.32.11-.58.33-.8.22-.21.48-.32.79-.32.31 0 .57.1.8.32.2.22.32.48.32.8 0 .3-.11.57-.33.8-.22.22-.48.33-.79.33z" fill="#fbf1c7" fill-rule="nonzero"/><path d="M273.47 175.6a14.78 14.78 0 01-2.74-.23l.19-1.45c.52.09.99.13 1.4.18.4.05.78.06 1.15.06.81 0 1.4-.07 1.77-.23.37-.17.54-.42.54-.76 0-.25-.06-.43-.18-.54a1.23 1.23 0 00-.6-.28l-1.85-.47a4.7 4.7 0 01-1.74-.76c-.37-.29-.56-.74-.56-1.34 0-.89.34-1.52 1.01-1.91.68-.4 1.77-.59 3.26-.59.74 0 1.44.05 2.12.14l-.17 1.4c-.4-.04-.76-.07-1.07-.08l-.93-.03c-.88 0-1.53.07-1.95.23-.4.15-.6.4-.6.76 0 .23.09.4.26.5.15.1.41.2.76.29l1.48.36c.84.2 1.46.48 1.85.8.39.34.59.84.59 1.49 0 .85-.33 1.49-.95 1.88-.63.38-1.64.59-3.04.59zM282.25 175.45l-3.2-8.03h1.66l2.62 6.82h.13l1.95-6.82h1.66l-2.3 7.32a9.7 9.7 0 01-1.03 2.32 3.8 3.8 0 01-1.34 1.3c-.5.3-1.11.49-1.83.58l-1.36.14-.08-1.43 1.26-.15a3.28 3.28 0 001.58-.6c.42-.3.78-.78 1.05-1.45h-.77zM289 175.45v-8.03h1.45l.12 1.46h.17c.1-1.07.81-1.6 2.13-1.6.85 0 1.5.25 1.97.76.46.53.7 1.26.7 2.19v5.22h-1.62v-5.22c0-.49-.12-.86-.37-1.12-.25-.26-.6-.4-1.05-.4-1.28 0-1.9.74-1.9 2.23v4.51H289zM301.97 175.6c-1.32 0-2.34-.35-3.06-1.08-.71-.71-1.08-1.75-1.08-3.1 0-1.3.35-2.33 1.07-3.06.7-.72 1.7-1.08 3-1.08.8 0 1.46.14 2.02.43.56.28.95.7 1.2 1.23l-1.25.93a2.4 2.4 0 00-2.03-1.16c-.74 0-1.31.23-1.72.7-.42.44-.62 1.1-.62 1.93 0 .92.23 1.61.68 2.1a2.6 2.6 0 001.97.72 15.07 15.07 0 002.36-.2l.19 1.41c-.45.1-.9.16-1.37.19-.46.03-.91.05-1.36.05z" fill="#b8bb26" fill-rule="nonzero"/><path d="M313.08 176.97c-1.64 0-2.91-.6-3.81-1.81-.92-1.21-1.37-2.92-1.37-5.14 0-2.17.45-3.86 1.37-5.05a4.49 4.49 0 013.81-1.78h.36l-.14 1.36h-.06c-1.21 0-2.13.48-2.78 1.44-.65.95-.97 2.3-.97 4.03 0 1.77.32 3.15.97 4.13a3.16 3.16 0 002.78 1.46h.06l.14 1.36h-.36z" fill="#bdae93" fill-rule="nonzero"/><path d="M321.22 177.06c-.82 0-1.46-.23-1.9-.73a2.95 2.95 0 01-.69-2.06c0-.43 0-.85.02-1.25v-1.3a.8.8 0 00-.3-.66 1.95 1.95 0 00-.73-.32c-.26-.08-.5-.11-.7-.11v-1.2a2.6 2.6 0 001.43-.5.69.69 0 00.3-.58v-1.3c-.02-.4-.02-.82-.02-1.24 0-.86.23-1.5.68-1.97.45-.47 1.09-.7 1.91-.7a4.86 4.86 0 011.29.16l-.17 1.28-.51-.06c-.17-.02-.33-.02-.47-.02-.36 0-.63.11-.82.35-.19.23-.28.54-.28.96 0 .43 0 .85.02 1.25.01.4.03.82.03 1.26 0 .5-.16.88-.45 1.16-.3.28-.7.42-1.24.44v.24c.54.02.94.16 1.24.45.3.28.45.67.45 1.15 0 .45-.02.88-.03 1.29-.02.38-.02.8-.02 1.22 0 .45.1.8.28 1.06.19.26.46.38.82.38l.47-.03.5-.04.18 1.28c-.16.05-.34.08-.54.11s-.44.03-.75.03z" fill="#fbf1c7" fill-rule="nonzero"/><path d="M333.75 175.45v-1.32h1.78v-5.4h-1.47v-1.31h2.77l.28 2.06h.19c.07-1.47.82-2.2 2.2-2.2.84 0 1.43.23 1.8.71.37.47.57 1.24.57 2.3h-1.6c0-.6-.09-1.01-.26-1.27-.17-.25-.45-.38-.84-.38-.68 0-1.19.28-1.53.87-.33.6-.5 1.41-.5 2.48v2.14h1.97v1.32h-5.36zM347.54 175.6c-1.36 0-2.43-.35-3.17-1.08-.75-.71-1.12-1.75-1.12-3.1 0-1.3.32-2.33.95-3.06a3.37 3.37 0 012.68-1.08c1.08 0 1.92.33 2.5.98.6.65.9 1.6.9 2.86 0 .36 0 .72-.04 1.03h-5.42c.13.66.46 1.18.96 1.52a3.2 3.2 0 001.93.52c.35 0 .67-.01 1-.06.32-.03.65-.08.97-.15l.2 1.4a13.38 13.38 0 01-2.34.22zm-.65-6.93c-.62 0-1.11.2-1.49.6-.37.38-.58.94-.65 1.65h4.08c0-.73-.17-1.27-.51-1.66a1.84 1.84 0 00-1.43-.59zM352.16 175.45v-8.03h1.42l.1 1h.13c.06-.77.52-1.14 1.38-1.14.34 0 .62.1.83.28.24.2.4.48.45.87h.14c.02-.31.14-.6.38-.8.21-.24.54-.35.97-.35.56 0 .96.14 1.21.43.25.31.37.8.37 1.46v6.28h-1.6v-6.14c0-.54-.21-.82-.61-.82-.53 0-.8.36-.8 1.08v5.88h-1.36v-6.28c0-.46-.22-.68-.63-.68-.52 0-.78.36-.78 1.08v5.88h-1.6zM364.94 175.6a3.2 3.2 0 01-2.6-1.1 4.57 4.57 0 01-.92-3.07c0-1.31.3-2.35.93-3.07a3.2 3.2 0 012.59-1.08c1.11 0 1.98.36 2.59 1.08.62.72.93 1.76.93 3.07 0 1.32-.31 2.36-.93 3.07-.6.73-1.48 1.1-2.6 1.1zm0-1.44c.59 0 1.04-.23 1.36-.71.33-.48.48-1.15.48-2.02 0-.86-.15-1.53-.48-2.01a1.58 1.58 0 00-1.36-.71c-.6 0-1.04.24-1.37.7a3.56 3.56 0 00-.48 2.02c0 .87.16 1.54.48 2.02.33.48.78.71 1.37.71zM375.4 175.6c-1.22 0-2.1-.26-2.63-.75-.55-.52-.83-1.32-.83-2.42v-3.7h-2.01v-1.31h2.01V165h1.62v2.42h3.64v1.32h-3.64v3.6c0 .65.15 1.11.46 1.39.31.3.82.43 1.54.43.24 0 .5-.01.79-.04.3-.02.6-.07.97-.11l.19 1.4a12.78 12.78 0 01-2.1.2zM383.88 175.6c-1.36 0-2.43-.35-3.18-1.08-.74-.71-1.11-1.75-1.11-3.1 0-1.3.32-2.33.94-3.06a3.37 3.37 0 012.69-1.08c1.08 0 1.92.33 2.5.98.6.65.9 1.6.9 2.86 0 .36 0 .72-.04 1.03h-5.43c.14.66.47 1.18.96 1.52a3.2 3.2 0 001.94.52c.34 0 .67-.01 1-.06.32-.03.65-.08.97-.15l.2 1.4a13.38 13.38 0 01-2.34.22zm-.65-6.93c-.62 0-1.12.2-1.49.6-.37.38-.59.94-.65 1.65h4.08c0-.73-.17-1.27-.51-1.66a1.84 1.84 0 00-1.43-.59z" fill="#83a598" fill-rule="nonzero"/><path d="M399.58 177.06c-.29 0-.54 0-.74-.03-.2-.03-.39-.06-.54-.1l.17-1.3.51.05.47.03c.35 0 .63-.12.82-.38.18-.25.28-.6.28-1.06 0-.42 0-.84-.02-1.22-.02-.4-.03-.84-.03-1.29 0-.48.15-.87.45-1.15.3-.3.7-.43 1.24-.45v-.24c-.54-.02-.95-.16-1.24-.44-.3-.28-.45-.67-.45-1.16 0-.44.01-.85.03-1.26.02-.4.02-.82.02-1.25 0-.42-.1-.73-.28-.96-.19-.24-.47-.35-.82-.35-.14 0-.3 0-.47.02l-.51.06-.17-1.28a4.19 4.19 0 011.28-.16c.83 0 1.46.23 1.91.7.45.46.68 1.11.68 1.97l-.01 1.24v1.3c0 .23.1.43.3.59a2.48 2.48 0 001.43.5v1.19c-.2 0-.44.03-.7.1-.29.07-.52.18-.74.33a.8.8 0 00-.3.67v1.29l.02 1.25c0 .89-.23 1.57-.68 2.06-.45.5-1.08.73-1.9.73z" fill="#fbf1c7" fill-rule="nonzero"/><path d="M407.35 176.97l.14-1.36h.06c1.2 0 2.13-.5 2.78-1.46.65-.98.98-2.36.98-4.13 0-1.73-.33-3.08-.98-4.03a3.16 3.16 0 00-2.78-1.44h-.06l-.14-1.36h.36c1.64 0 2.91.59 3.83 1.78.9 1.2 1.35 2.88 1.35 5.05 0 2.22-.45 3.93-1.35 5.14a4.52 4.52 0 01-3.83 1.81h-.36zM416.44 176.97l.14-1.36h.06c1.2 0 2.12-.5 2.77-1.46.65-.98.98-2.36.98-4.13 0-1.73-.33-3.08-.98-4.03a3.16 3.16 0 00-2.77-1.44h-.06l-.14-1.36h.35c1.65 0 2.92.59 3.83 1.78.9 1.2 1.35 2.88 1.35 5.05 0 2.22-.45 3.93-1.35 5.14a4.52 4.52 0 01-3.83 1.81h-.35z" fill="#bdae93" fill-rule="nonzero"/><path d="M428.53 169.51c-.31 0-.57-.1-.8-.32a1.08 1.08 0 01-.32-.8c0-.3.11-.57.33-.78.22-.22.48-.33.79-.33.3 0 .57.1.79.33.22.21.33.48.33.79 0 .3-.11.57-.33.79-.22.21-.48.32-.8.32zm-1.5 9.24l.6-5.22h1.77l-.92 5.22h-1.45zM27.13 198.12c-.3 0-.55 0-.75-.03-.2-.03-.39-.06-.54-.1l.17-1.3.51.05.47.03c.35 0 .63-.12.82-.38.18-.25.28-.6.28-1.06 0-.42 0-.84-.02-1.22-.01-.4-.03-.84-.03-1.29 0-.48.16-.87.45-1.15.3-.3.7-.43 1.24-.45v-.25c-.54-.01-.95-.15-1.24-.43-.3-.28-.45-.67-.45-1.16 0-.44.02-.85.03-1.26.02-.4.02-.82.02-1.25 0-.42-.1-.73-.28-.97-.19-.23-.47-.34-.82-.34-.14 0-.3 0-.47.02l-.51.06-.17-1.29a4.19 4.19 0 011.29-.15c.82 0 1.45.23 1.9.7.45.46.69 1.11.69 1.97l-.02 1.24v1.3c0 .23.1.43.31.59a2.48 2.48 0 001.43.5v1.19c-.2 0-.45.03-.72.1-.28.07-.5.18-.73.33a.8.8 0 00-.29.67v1.29l.02 1.25c0 .89-.24 1.57-.69 2.06-.45.5-1.08.73-1.9.73z" fill="#fbf1c7" fill-rule="nonzero"/><path d="M28.2 238.78c-1.01 0-1.8-.35-2.36-1.05a4.82 4.82 0 01-.84-3.04c0-1.35.28-2.39.84-3.13a2.82 2.82 0 012.37-1.1c1.27 0 1.99.53 2.13 1.6h.13v-4.78h1.62v11.35l-1.44.08-.14-1.32h-.17c-.07.46-.28.8-.66 1.04-.38.23-.88.35-1.48.35zm-1.62-4.09c0 1.82.62 2.73 1.88 2.73 1.35 0 2.01-.45 2.01-1.36v-1.94c0-1.54-.68-2.3-2.03-2.3-.6 0-1.05.25-1.38.75-.3.5-.48 1.2-.48 2.12zM38.68 238.78c-1.37 0-2.44-.35-3.18-1.08-.75-.71-1.12-1.75-1.12-3.1 0-1.3.33-2.33.95-3.06a3.37 3.37 0 012.68-1.08c1.08 0 1.92.32 2.51.98.59.65.9 1.6.9 2.86 0 .36-.02.72-.05 1.03h-5.42c.14.66.46 1.18.96 1.52a3.2 3.2 0 001.94.52c.34 0 .66-.01.99-.06.32-.03.65-.08.98-.15l.2 1.4a13.38 13.38 0 01-2.34.22zm-.66-6.93c-.62 0-1.11.2-1.48.6-.38.38-.6.94-.66 1.65h4.08c0-.73-.17-1.27-.5-1.66a1.84 1.84 0 00-1.44-.59zM43.3 238.63v-8.03h1.4l.11 1h.13c.06-.77.53-1.14 1.38-1.14.34 0 .62.1.84.28.23.2.38.48.44.87h.14c.02-.31.14-.6.38-.81.21-.23.54-.34.97-.34.56 0 .96.14 1.21.43.25.31.37.8.37 1.46v6.28h-1.6v-6.14c0-.54-.2-.82-.61-.82-.53 0-.8.35-.8 1.08v5.88H46.3v-6.28c0-.46-.21-.68-.63-.68-.51 0-.78.35-.78 1.08v5.88h-1.6zM56.07 238.78a3.2 3.2 0 01-2.59-1.1 4.57 4.57 0 01-.93-3.07c0-1.31.31-2.35.93-3.07a3.2 3.2 0 012.59-1.08c1.12 0 1.98.36 2.59 1.08.62.72.93 1.76.93 3.07 0 1.32-.31 2.36-.93 3.07-.6.73-1.47 1.1-2.6 1.1zm0-1.44c.59 0 1.04-.23 1.36-.71.33-.48.48-1.15.48-2.02 0-.86-.15-1.53-.48-2.01a1.58 1.58 0 00-1.36-.71c-.59 0-1.04.24-1.37.7a3.56 3.56 0 00-.48 2.02c0 .87.16 1.54.48 2.02.33.48.78.71 1.37.71z" fill="#b8bb26" fill-rule="nonzero"/><path d="M67.8 240.15c-1.64 0-2.91-.6-3.8-1.82-.92-1.2-1.37-2.91-1.37-5.13 0-2.17.45-3.86 1.36-5.05a4.49 4.49 0 013.81-1.78h.36l-.14 1.36h-.06c-1.21 0-2.12.48-2.78 1.44-.65.95-.97 2.3-.97 4.03 0 1.77.32 3.15.97 4.13a3.16 3.16 0 002.78 1.45h.06l.14 1.37h-.36z" fill="#bdae93" fill-rule="nonzero"/><path d="M71.97 232.72l-.14-4.83h1.76l-.16 4.83h-1.46zm3.07 0l-.15-4.83h1.75l-.15 4.83h-1.45z" fill="#fbf1c7" fill-rule="nonzero"/><path d="M80.05 238.63v-11.35h1.61v4.78h.14c.1-1.07.8-1.6 2.13-1.6.85 0 1.5.25 1.97.76.46.53.7 1.25.7 2.18v5.23h-1.62v-5.23c0-.5-.12-.9-.37-1.17-.25-.28-.6-.4-1.06-.4-1.27 0-1.89.75-1.89 2.29v4.5h-1.6zM93.79 238.78c-1.23 0-2.1-.26-2.64-.76s-.82-1.31-.82-2.41v-3.7H88.3v-1.31h2.02v-2.42h1.61v2.42h3.64v1.32h-3.64v3.6c0 .64.16 1.1.47 1.39.3.3.82.43 1.53.43.25 0 .51-.01.8-.04.29-.02.6-.07.97-.11l.18 1.4a12.78 12.78 0 01-2.1.2zM102.87 238.78c-1.22 0-2.1-.26-2.63-.76-.55-.5-.83-1.31-.83-2.41v-3.7H97.4v-1.31h2.01v-2.42h1.62v2.42h3.64v1.32h-3.64v3.6c0 .64.15 1.1.46 1.39.31.3.82.43 1.54.43.24 0 .5-.01.79-.04.3-.02.6-.07.97-.11l.19 1.4a12.78 12.78 0 01-2.1.2zM107.3 242.12V230.6h1.46l.13 1.46h.17c.14-1.07.85-1.6 2.12-1.6 1.02 0 1.81.37 2.37 1.1.56.74.84 1.78.84 3.13 0 1.32-.28 2.33-.84 3.04a2.86 2.86 0 01-2.35 1.05c-.6 0-1.1-.12-1.48-.35-.39-.23-.6-.58-.66-1.04h-.14v4.73h-1.62zm3.65-10.3c-1.37 0-2.03.76-2.03 2.3v1.94c0 .91.66 1.36 2.01 1.36 1.24 0 1.88-.91 1.88-2.73 0-.91-.17-1.63-.48-2.12-.33-.5-.8-.75-1.38-.75zM119.04 238.78a14.78 14.78 0 01-2.74-.23l.18-1.46c.53.1 1 .14 1.4.2.42.04.79.05 1.16.05.8 0 1.4-.07 1.77-.23.37-.17.54-.42.54-.76 0-.25-.06-.43-.19-.54a1.23 1.23 0 00-.59-.28l-1.86-.47a4.7 4.7 0 01-1.73-.76c-.37-.3-.56-.74-.56-1.35 0-.88.34-1.51 1-1.9.69-.4 1.77-.6 3.26-.6.75 0 1.44.06 2.13.15l-.17 1.4c-.4-.04-.76-.07-1.07-.08l-.93-.03c-.89 0-1.54.07-1.96.23-.4.15-.6.4-.6.76 0 .23.1.4.26.5.16.1.42.2.76.29l1.49.35c.84.2 1.46.49 1.84.81.4.34.6.84.6 1.49 0 .85-.33 1.49-.95 1.88-.64.38-1.65.58-3.04.58zM128.74 232.7c-.3 0-.57-.12-.79-.33a1.08 1.08 0 01-.32-.8c0-.3.1-.57.32-.79.22-.21.48-.32.8-.32.3 0 .57.1.78.32.22.22.33.49.33.8 0 .3-.1.57-.33.79-.21.21-.48.32-.79.32zm0 6.08c-.3 0-.57-.1-.79-.32-.21-.23-.32-.5-.32-.8 0-.32.1-.58.32-.8.22-.22.48-.32.8-.32.3 0 .57.1.78.32.22.22.33.48.33.8 0 .3-.1.57-.33.8-.21.22-.48.32-.79.32zM135.36 240.07l6.08-13.63h1.61l-6.1 13.63h-1.59zm6.68 0l6.08-13.63h1.61l-6.09 13.63h-1.6zM152.66 238.63v-11.35h1.62v6.87h.43c.67 0 1.21-.11 1.64-.34.44-.23.76-.6 1.01-1.13.25-.52.44-1.21.54-2.08h1.66c-.24 1.97-.85 3.35-1.84 4.15l2.37 3.88h-1.98l-1.86-3.18c-.36.1-.75.14-1.17.14h-.8v3.04h-1.62zM165.52 229.33c-.31 0-.58-.11-.8-.33a1.08 1.08 0 01-.32-.79c0-.3.1-.57.32-.79.22-.22.49-.33.8-.33a1.11 1.11 0 011.13 1.12 1.11 1.11 0 01-1.13 1.12zm-3.77 9.3v-1.32h3.05v-5.38h-2.6v-1.33h4.21v6.71h2.47v1.32h-7.13zM170.9 238.63v-8.03h1.45l.13 1.46h.17c.09-1.07.8-1.6 2.12-1.6.85 0 1.5.25 1.97.76.46.53.7 1.25.7 2.18v5.23h-1.62v-5.23c0-.48-.12-.85-.37-1.11-.25-.27-.6-.4-1.05-.4-1.27 0-1.9.74-1.9 2.23v4.5h-1.6zM184.63 238.78c-1.22 0-2.1-.26-2.64-.76s-.82-1.31-.82-2.41v-3.7h-2.01v-1.31h2.01v-2.42h1.62v2.42h3.64v1.32h-3.64v3.6c0 .64.15 1.1.46 1.39.31.3.82.43 1.54.43.24 0 .5-.01.79-.04.29-.02.6-.07.97-.11l.19 1.4a12.78 12.78 0 01-2.11.2zM192.34 238.78a3.2 3.2 0 01-2.6-1.1 4.57 4.57 0 01-.92-3.07c0-1.31.3-2.35.93-3.07a3.2 3.2 0 012.59-1.08c1.11 0 1.98.36 2.58 1.08.62.72.93 1.76.93 3.07 0 1.32-.3 2.36-.93 3.07-.6.73-1.47 1.1-2.58 1.1zm0-1.44c.58 0 1.03-.23 1.36-.71.32-.48.48-1.15.48-2.02 0-.86-.16-1.53-.48-2.01a1.58 1.58 0 00-1.36-.71c-.6 0-1.04.24-1.37.7a3.56 3.56 0 00-.48 2.02c0 .87.16 1.54.48 2.02.33.48.78.71 1.37.71zM201.42 238.78c-.31 0-.57-.1-.8-.32-.2-.23-.32-.5-.32-.8 0-.32.11-.58.33-.8.22-.22.48-.32.79-.32.3 0 .57.1.79.32.22.22.33.48.33.8 0 .3-.11.57-.33.8-.22.22-.48.32-.8.32zM209.88 238.78c-1 0-1.8-.35-2.35-1.05a4.82 4.82 0 01-.84-3.04c0-1.35.28-2.39.84-3.13a2.82 2.82 0 012.37-1.1c1.27 0 1.98.53 2.12 1.6h.14v-4.78h1.62v11.35l-1.45.08-.14-1.32h-.17c-.06.46-.28.8-.65 1.04-.39.23-.88.35-1.49.35zm-1.6-4.09c0 1.82.61 2.73 1.87 2.73 1.35 0 2.01-.45 2.01-1.36v-1.94c0-1.54-.68-2.3-2.03-2.3-.6 0-1.05.25-1.38.75-.3.5-.48 1.2-.48 2.12zM220.36 238.78c-1.36 0-2.43-.35-3.18-1.08-.74-.71-1.11-1.75-1.11-3.1 0-1.3.32-2.33.94-3.06a3.37 3.37 0 012.69-1.08c1.08 0 1.92.32 2.5.98.6.65.9 1.6.9 2.86 0 .36 0 .72-.04 1.03h-5.43c.14.66.47 1.18.97 1.52a3.2 3.2 0 001.93.52c.34 0 .67-.01 1-.06.32-.03.65-.08.97-.15l.2 1.4a13.38 13.38 0 01-2.34.22zm-.65-6.93c-.62 0-1.11.2-1.49.6-.37.38-.59.94-.65 1.65h4.08c0-.73-.17-1.27-.51-1.66a1.84 1.84 0 00-1.43-.59zM227.65 238.63l-2.92-8.03h1.7l2.21 6.67h.14l2.12-6.67h1.71l-2.84 8.03h-2.12zM237.76 238.78c-.31 0-.58-.1-.8-.32-.21-.23-.32-.5-.32-.8 0-.32.1-.58.33-.8.21-.22.48-.32.79-.32.3 0 .57.1.79.32.21.22.32.48.32.8 0 .3-.1.57-.32.8-.22.22-.48.32-.8.32zM243.15 238.63v-8.03h1.41l.11 1h.12c.07-.77.53-1.14 1.38-1.14.35 0 .62.1.84.28.23.2.39.48.45.87h.14c.02-.31.14-.6.37-.81.22-.23.55-.34.98-.34.56 0 .96.14 1.2.43.26.31.38.8.38 1.46v6.28h-1.6v-6.14c0-.54-.21-.82-.62-.82-.52 0-.79.35-.79 1.08v5.88h-1.36v-6.28c0-.46-.22-.68-.64-.68-.5 0-.77.35-.77 1.08v5.88h-1.6zM255.92 238.78a3.2 3.2 0 01-2.58-1.1 4.57 4.57 0 01-.93-3.07c0-1.31.3-2.35.93-3.07a3.2 3.2 0 012.58-1.08c1.12 0 1.99.36 2.6 1.08.61.72.92 1.76.92 3.07 0 1.32-.3 2.36-.93 3.07-.6.73-1.47 1.1-2.59 1.1zm0-1.44c.6 0 1.04-.23 1.37-.71.32-.48.48-1.15.48-2.02 0-.86-.16-1.53-.48-2.01a1.58 1.58 0 00-1.37-.71c-.58 0-1.03.24-1.36.7a3.56 3.56 0 00-.48 2.02c0 .87.15 1.54.48 2.02.33.48.78.71 1.36.71zM261.68 238.63v-1.33l4.66-5.37h-4.66v-1.33h6.48v1.33l-4.55 5.37h4.7v1.33h-6.63zM273.07 238.78c-.88 0-1.58-.2-2.06-.6-.48-.4-.73-.98-.73-1.72 0-.84.31-1.49.93-1.95a4.4 4.4 0 012.62-.69c.6 0 1.15.07 1.6.2v-.43c0-.54-.19-.93-.56-1.18a3.26 3.26 0 00-1.7-.4l-1.91-.06.15-1.41 1.63.01c1.32.02 2.31.31 2.95.85.65.56.97 1.37.97 2.42v3.35l1.35.17v1.29l-2.57.08-.06-1.77h-.18c-.04.6-.29 1.07-.72 1.38-.44.3-1.01.46-1.7.46zm.25-1.28c.46 0 .87-.1 1.18-.27a1.67 1.67 0 00.93-1.49v-.47a3.15 3.15 0 00-.86-.13 15.1 15.1 0 00-.83-.03c-1.3 0-1.94.4-1.94 1.2 0 .78.5 1.19 1.52 1.19zM280.08 238.63l-.92-8.03h1.52l.6 6.82h.15l.94-6.82h1.46l.95 6.82h.14l.68-6.82h1.6l-1.14 8.03h-1.97l-.94-6.37h-.1l-.93 6.37h-2.04zM291.64 238.78a14.78 14.78 0 01-2.74-.23l.18-1.46c.53.1 1 .14 1.4.2.42.04.8.05 1.16.05.8 0 1.4-.07 1.77-.23.37-.17.54-.42.54-.76 0-.25-.06-.43-.18-.54a1.23 1.23 0 00-.6-.28l-1.85-.47a4.7 4.7 0 01-1.74-.76c-.37-.3-.56-.74-.56-1.35 0-.88.34-1.51 1.01-1.9.68-.4 1.77-.6 3.26-.6.74 0 1.44.06 2.12.15l-.17 1.4c-.4-.04-.76-.07-1.07-.08l-.93-.03c-.88 0-1.54.07-1.95.23-.4.15-.6.4-.6.76 0 .23.08.4.26.5.15.1.41.2.75.29l1.5.35c.83.2 1.45.49 1.84.81.39.34.59.84.59 1.49 0 .85-.33 1.49-.95 1.88-.63.38-1.64.58-3.04.58zM301.35 238.78c-.31 0-.58-.1-.8-.32-.21-.23-.32-.5-.32-.8 0-.32.1-.58.33-.8.21-.22.48-.32.79-.32.3 0 .57.1.79.32.21.22.32.48.32.8 0 .3-.1.57-.32.8-.22.22-.48.32-.8.32zM307.16 238.63v-8.03h1.46l.12 1.46h.17c.1-1.07.8-1.6 2.13-1.6.85 0 1.5.25 1.97.76.46.53.7 1.25.7 2.18v5.23h-1.62v-5.23c0-.48-.12-.85-.37-1.11-.25-.27-.6-.4-1.06-.4-1.27 0-1.89.74-1.89 2.23v4.5h-1.6zM320.3 238.78c-1.37 0-2.44-.35-3.19-1.08-.74-.71-1.11-1.75-1.11-3.1 0-1.3.32-2.33.94-3.06a3.37 3.37 0 012.68-1.08c1.09 0 1.93.32 2.52.98.59.65.9 1.6.9 2.86 0 .36-.02.72-.05 1.03h-5.43c.14.66.47 1.18.96 1.52a3.2 3.2 0 001.94.52c.34 0 .67-.01 1-.06.32-.03.65-.08.97-.15l.2 1.4a13.38 13.38 0 01-2.34.22zm-.66-6.93c-.62 0-1.12.2-1.49.6-.37.38-.59.94-.65 1.65h4.08c0-.73-.17-1.27-.51-1.66a1.84 1.84 0 00-1.43-.59zM329.98 238.78c-1.23 0-2.1-.26-2.64-.76s-.82-1.31-.82-2.41v-3.7h-2.01v-1.31h2.01v-2.42h1.61v2.42h3.65v1.32h-3.65v3.6c0 .64.16 1.1.47 1.39.31.3.82.43 1.53.43.25 0 .52-.01.8-.04.29-.02.6-.07.97-.11l.19 1.4a12.78 12.78 0 01-2.11.2zM333.93 240.07l6.08-13.63h1.61l-6.09 13.63h-1.6zM345.75 238.63l-2.92-8.03h1.7l2.2 6.67h.15l2.12-6.67h1.7l-2.83 8.03h-2.12zM352.6 238.63v-1.41h2.68v-7.78l-2.53.88v-1.54l2.53-.9h1.6v9.34h2.4v1.4h-6.68z" fill="#b8bb26" fill-rule="nonzero"/><path d="M362.67 232.72l-.14-4.83h1.76l-.16 4.83h-1.46zm3.07 0l-.15-4.83h1.75l-.15 4.83h-1.45z" fill="#fbf1c7" fill-rule="nonzero"/><path d="M371.01 240.15l.14-1.37h.07c1.19 0 2.12-.5 2.77-1.45.65-.98.98-2.36.98-4.13 0-1.73-.33-3.08-.98-4.03a3.16 3.16 0 00-2.77-1.44h-.07l-.14-1.36h.36c1.64 0 2.92.58 3.83 1.78.9 1.2 1.35 2.88 1.35 5.05 0 2.22-.45 3.93-1.35 5.13a4.52 4.52 0 01-3.83 1.82h-.36z" fill="#bdae93" fill-rule="nonzero"/><path d="M383.1 232.7c-.3 0-.57-.12-.78-.33a1.08 1.08 0 01-.33-.8c0-.3.1-.57.33-.79.21-.21.48-.32.79-.32.3 0 .57.1.79.32.21.22.32.49.32.8 0 .3-.1.57-.32.79-.22.21-.48.32-.8.32zm-1.5 9.23l.6-5.22h1.78l-.92 5.22h-1.46z" fill="#fbf1c7" fill-rule="nonzero"/></svg>