<?xml version="1.0" encoding="UTF-8" standalone="no"?>
<!-- Generator: Adobe Illustrator 21.0.0, SVG Export Plug-In . SVG Version: 6.00 Build 0)  -->

<svg
   xmlns:dc="http://purl.org/dc/elements/1.1/"
   xmlns:cc="http://creativecommons.org/ns#"
   xmlns:rdf="http://www.w3.org/1999/02/22-rdf-syntax-ns#"
   xmlns:svg="http://www.w3.org/2000/svg"
   xmlns="http://www.w3.org/2000/svg"
   xmlns:sodipodi="http://sodipodi.sourceforge.net/DTD/sodipodi-0.dtd"
   xmlns:inkscape="http://www.inkscape.org/namespaces/inkscape"
   version="1.1"
   id="Calque_1"
   x="0px"
   y="0px"
   viewBox="0 0 496.4 125.2"
   style="enable-background:new 0 0 496.4 125.2;"
   xml:space="preserve"
   inkscape:version="0.91 r13725"
   sodipodi:docname="kinto-black.svg"><metadata
     id="metadata172"><rdf:RDF><cc:Work
         rdf:about=""><dc:format>image/svg+xml</dc:format><dc:type
           rdf:resource="http://purl.org/dc/dcmitype/StillImage" /><dc:title /></cc:Work></rdf:RDF></metadata><defs
     id="defs170" /><sodipodi:namedview
     pagecolor="#ffffff"
     bordercolor="#666666"
     borderopacity="1"
     objecttolerance="10"
     gridtolerance="10"
     guidetolerance="10"
     inkscape:pageopacity="0"
     inkscape:pageshadow="2"
     inkscape:window-width="1865"
     inkscape:window-height="941"
     id="namedview168"
     showgrid="false"
     inkscape:zoom="1.8176234"
     inkscape:cx="276.74903"
     inkscape:cy="15.069337"
     inkscape:window-x="53"
     inkscape:window-y="27"
     inkscape:window-maximized="0"
     inkscape:current-layer="Calque_1" /><style
     type="text/css"
     id="style3">
	.st0{fill:#333333;}
	.st1{fill:url(#SVGID_1_);}
	.st2{fill:url(#SVGID_2_);}
	.st3{fill:url(#SVGID_3_);}
	.st4{fill:url(#SVGID_4_);}
	.st5{fill:url(#SVGID_5_);}
	.st6{fill:url(#SVGID_6_);}
	.st7{fill:url(#SVGID_7_);}
	.st8{fill:url(#SVGID_8_);}
	.st9{fill:url(#SVGID_9_);}
	.st10{opacity:0.47;fill:#E35702;enable-background:new    ;}
	.st11{fill:url(#SVGID_10_);}
	.st12{fill:url(#SVGID_11_);}
	.st13{fill:url(#SVGID_12_);}
	.st14{fill:#EB7808;}
	.st15{fill:#E35702;}
	
		.st16{fill:none;stroke:#9D9D9C;stroke-width:0.5;stroke-linecap:round;stroke-linejoin:round;stroke-miterlimit:10;stroke-dasharray:3,2;}
</style><g
     id="Kinto"
     transform="matrix(1.1873877,0,0,1.1873877,-26.401821,-1.8356184)"><g
       id="g6"><g
         id="g8"><path
           class="st0"
           d="m 252.3,61.5 0,33.5 -13.4,0 0,-64.3 13.4,0 0,29.4 18.3,-29.4 16,0 -20.6,29.8 22.9,34.5 -17,0 -19.6,-33.5 z"
           id="path10"
           style="fill:#ffffff;fill-opacity:1"
           inkscape:connector-curvature="0" /><path
           class="st0"
           d="m 305.1,40.1 c -1.5,1.5 -3.4,2.2 -5.4,2.2 -2.1,0 -3.9,-0.7 -5.3,-2.2 -1.5,-1.5 -2.2,-3.4 -2.2,-5.4 0,-2.2 0.8,-3.9 2.3,-5.4 1.5,-1.5 3.4,-2.2 5.6,-2.2 2.1,0 3.8,0.7 5.3,2.2 1.5,1.5 2.2,3.4 2.2,5.4 -0.3,2 -1.1,3.9 -2.5,5.4 z m -11.7,8.4 12.5,-2 0,48.5 -12.5,0 0,-46.5 z"
           id="path12"
           style="fill:#ffffff;fill-opacity:1"
           inkscape:connector-curvature="0" /><path
           class="st0"
           d="m 344,64.4 c 0,-2.7 -0.3,-4.5 -0.9,-5.4 -0.6,-0.9 -1.7,-1.4 -3.2,-1.4 -1.3,0 -2.7,0.3 -4.2,1.2 -1.5,0.8 -3,1.9 -4.4,3.1 l 0,33.3 -12.4,0 0,-34.5 c 0,-4.2 -0.6,-7.9 -1.6,-11.1 l 11,-3.1 c 1.2,2 1.7,3.9 1.7,5.9 0.9,-0.7 1.9,-1.3 2.7,-1.9 0.8,-0.6 1.7,-1.2 2.8,-1.6 1.3,-0.7 2.5,-1.2 4.1,-1.5 1.5,-0.3 3,-0.5 4.4,-0.5 2.7,0 5,0.6 7.1,1.9 2.1,1.3 3.5,2.9 4.3,5 0.6,1.6 0.9,3.8 0.9,6.7 l 0,34.5 -12,0 0,-30.6 -0.3,0 z"
           id="path14"
           style="fill:#ffffff;fill-opacity:1"
           inkscape:connector-curvature="0" /><path
           class="st0"
           d="m 382.9,96.2 c -3.2,0 -5.9,-0.6 -8.3,-1.9 -2.3,-1.3 -3.9,-2.9 -4.6,-5 -0.2,-0.5 -0.3,-0.9 -0.5,-1.4 -0.1,-0.3 -0.2,-0.8 -0.2,-1.4 0,-0.6 -0.1,-1.2 -0.1,-1.9 0,-0.7 0,-1.6 0,-2.7 l 0,-25.5 -4.7,0 0,-8.6 4.7,0 c 0,-2.3 0,-4.4 0,-6 0,-1.6 0.1,-3.4 0.5,-5.2 l 12.7,-3.1 c -0.2,2.2 -0.5,4.5 -0.6,6.9 -0.1,2.5 -0.2,5 -0.2,7.4 l 11.1,0 -3.1,8.6 -8,0 0,23.5 c 0,1.5 0.1,2.7 0.2,3.7 0.1,0.9 0.5,1.7 0.8,2.3 0.3,0.6 0.9,0.9 1.6,1.2 0.7,0.2 1.6,0.3 2.7,0.3 0.6,0 1.2,-0.1 1.9,-0.2 0.7,-0.1 1.5,-0.3 2.7,-0.7 L 393,94 c -3.5,1.4 -6.9,2.2 -10.1,2.2 z"
           id="path16"
           style="fill:#ffffff;fill-opacity:1"
           inkscape:connector-curvature="0" /><path
           class="st0"
           d="m 438.4,81.6 c -0.9,2.9 -2.4,5.6 -4.5,7.9 -1.7,2.1 -3.9,3.6 -6.4,4.9 -2.4,1.2 -5.6,1.7 -9.3,1.7 -3.2,0 -6.1,-0.6 -8.7,-1.7 -2.7,-1.2 -4.9,-2.8 -6.7,-5 -1.9,-2.1 -3.2,-4.7 -4.3,-7.8 -1,-3 -1.5,-6.4 -1.5,-10.1 0,-3.7 0.5,-7.1 1.5,-10.2 1,-3.1 2.4,-5.7 4.3,-7.9 1.9,-2.2 4.1,-3.8 6.7,-5.1 2.7,-1.2 5.6,-1.7 8.7,-1.7 6.7,0 12,2.4 16.1,7.2 2,2.2 3.2,4.7 4.2,7.4 0.8,2.7 1.3,6 1.3,10 0.1,4 -0.5,7.5 -1.4,10.4 z M 423.9,58.5 c -1.3,-1.6 -3.1,-2.5 -5.3,-2.5 -1.5,0 -2.8,0.5 -3.9,1.3 -1.2,0.8 -2,2.1 -2.4,3.5 -0.5,1.3 -0.8,2.7 -0.9,4.4 -0.2,1.7 -0.3,3.7 -0.3,6.1 0,5.3 0.6,9.4 1.6,11.9 0.6,1.3 1.4,2.3 2.7,2.9 1.2,0.7 2.4,0.9 3.7,0.9 2.8,0 4.7,-1.3 5.9,-3.8 1.2,-2.5 1.7,-6.6 1.7,-12.2 -0.3,-6.2 -1.2,-10.3 -2.8,-12.5 z"
           id="path18"
           style="fill:#ffffff;fill-opacity:1"
           inkscape:connector-curvature="0" /></g><g
         id="Cloud"><linearGradient
           id="SVGID_1_"
           gradientUnits="userSpaceOnUse"
           x1="22.0658"
           y1="2944.926"
           x2="110.9685"
           y2="2952.6794"
           gradientTransform="translate(0,-2858)"><stop
             offset="0"
             style="stop-color:#FEEC7F"
             id="stop22" /><stop
             offset="1"
             style="stop-color:#F3A21B"
             id="stop24" /></linearGradient><path
           class="st1"
           d="m 110.8,95.5 -22.4,0 -17.6,0 C 64.6,95.3 57.7,94.8 51.9,93.7 49,93.2 46.3,92.5 43.7,91.8 42.4,91.4 41.2,91.1 40,90.7 38.8,90.3 37.7,89.9 36.6,89.5 35.5,89.1 34.5,88.7 33.5,88.3 32.5,87.9 31.6,87.4 30.8,87 29.1,86.1 27.6,85.4 26.5,84.7 25.3,84 24.4,83.4 23.8,83 c -0.6,-0.4 -0.9,-0.6 -0.9,-0.6 0,0 0.3,0.2 1,0.6 0.6,0.4 1.5,0.9 2.7,1.6 1.2,0.7 2.7,1.4 4.4,2.2 1.7,0.8 3.7,1.6 5.9,2.3 1.1,0.4 2.2,0.8 3.4,1.1 1.2,0.4 2.4,0.7 3.7,1 2.6,0.6 5.3,1.2 8.2,1.7 5.7,1 11.9,1.6 18.1,1.8 2.9,0.2 40.5,0.8 40.5,0.8 z"
           id="path26"
           style="fill:url(#SVGID_1_)"
           inkscape:connector-curvature="0" /><linearGradient
           id="SVGID_2_"
           gradientUnits="userSpaceOnUse"
           x1="-115.3787"
           y1="2872.9202"
           x2="-115.3787"
           y2="2957.9902"
           gradientTransform="matrix(-1,0,0,1,50.3213,-2858)"><stop
             offset="0"
             style="stop-color:#FEEC7F"
             id="stop29" /><stop
             offset="0.1894"
             style="stop-color:#FEE97B"
             id="stop31" /><stop
             offset="0.3937"
             style="stop-color:#FCDF6E"
             id="stop33" /><stop
             offset="0.6052"
             style="stop-color:#FACF58"
             id="stop35" /><stop
             offset="0.8201"
             style="stop-color:#F6B93A"
             id="stop37" /><stop
             offset="1"
             style="stop-color:#F3A21B"
             id="stop39" /></linearGradient><path
           class="st2"
           d="m 232.4,63.2 c 0,-16 -13.2,-31.4 -28.9,-31.4 -12.1,0 -25.8,1.5 -52,34.8 -33.9,42.8 -51.5,21.9 -52.5,20.5 2.5,4.9 7.5,8.4 13.4,8.4 l 91.1,0 c 15.9,0 28.9,-16.3 28.9,-32.3 z"
           id="path41"
           style="fill:url(#SVGID_2_)"
           inkscape:connector-curvature="0" /><linearGradient
           id="SVGID_3_"
           gradientUnits="userSpaceOnUse"
           x1="-13.7495"
           y1="2937.8999"
           x2="-96.754898"
           y2="2937.8999"
           gradientTransform="matrix(-1,0,0,1,50.3213,-2858)"><stop
             offset="0"
             style="stop-color:#FEEC7F"
             id="stop44" /><stop
             offset="0.1105"
             style="stop-color:#FDE373"
             id="stop46" /><stop
             offset="0.7142"
             style="stop-color:#F6B434"
             id="stop48" /><stop
             offset="1"
             style="stop-color:#F3A21B"
             id="stop50" /></linearGradient><path
           class="st3"
           d="m 112.5,95.5 c -8.3,0 -15.1,-6.7 -15.1,-15 0,-8.3 6.9,-16.2 15,-16.2 15.9,0 18.1,14.4 42.9,21.5 16.1,4.6 48.1,9.7 48.1,9.7 l -90.9,0 z"
           id="path52"
           style="fill:url(#SVGID_3_)"
           inkscape:connector-curvature="0" /><linearGradient
           id="SVGID_4_"
           gradientUnits="userSpaceOnUse"
           x1="162.5387"
           y1="2865.8835"
           x2="162.5387"
           y2="2952.1738"
           gradientTransform="translate(0,-2858)"><stop
             offset="0"
             style="stop-color:#FEEC7F"
             id="stop55" /><stop
             offset="0.6144"
             style="stop-color:#F7BC3F"
             id="stop57" /><stop
             offset="1"
             style="stop-color:#F3A21B"
             id="stop59" /></linearGradient><path
           class="st4"
           d="m 203.4,95.5 c -3.2,-1.3 -15.7,-5.4 -17.8,-19 -2.1,-13.8 6.2,-21.2 3.6,-37.1 -2.3,-14 -14,-20.9 -25.7,-23.3 -6,-1.2 -12.6,-0.9 -19.3,1.5 -18.8,6.8 -25.1,28.2 -21.6,42.9 2.9,12.1 14.9,24 43.7,29.1 24.6,4.3 26.6,4.7 37.1,5.9 z"
           id="path61"
           style="fill:url(#SVGID_4_)"
           inkscape:connector-curvature="0" /><linearGradient
           id="SVGID_5_"
           gradientUnits="userSpaceOnUse"
           x1="151.25"
           y1="2892.9019"
           x2="151.25"
           y2="2954.481"
           gradientTransform="translate(0,-2858)"><stop
             offset="0"
             style="stop-color:#F9C32E"
             id="stop64" /><stop
             offset="0.5169"
             style="stop-color:#F19819"
             id="stop66" /><stop
             offset="1"
             style="stop-color:#E96C04"
             id="stop68" /></linearGradient><path
           class="st5"
           d="m 185.6,76.5 c -2.1,-13.8 6.2,-21.2 3.6,-37.1 -0.3,-1.8 -0.8,-3.5 -1.3,-5.1 -9.1,3.6 -20.5,12 -36.4,32.2 -33.9,42.9 -51.5,22 -52.5,20.6 2.5,4.9 7.6,8.4 13.5,8.4 l 91,0 c -3.3,-1.3 -15.8,-5.4 -17.9,-19 z"
           id="path70"
           style="fill:url(#SVGID_5_)"
           inkscape:connector-curvature="0" /><linearGradient
           id="SVGID_6_"
           gradientUnits="userSpaceOnUse"
           x1="107.0426"
           y1="2940.3999"
           x2="183.9426"
           y2="2940.3999"
           gradientTransform="translate(0,-2858)"><stop
             offset="0"
             style="stop-color:#F7B425"
             id="stop73" /><stop
             offset="6.246364e-02"
             style="stop-color:#F3A620"
             id="stop75" /><stop
             offset="0.2131"
             style="stop-color:#EC8816"
             id="stop77" /><stop
             offset="0.3736"
             style="stop-color:#E6720E"
             id="stop79" /><stop
             offset="0.5466"
             style="stop-color:#E26208"
             id="stop81" /><stop
             offset="0.7407"
             style="stop-color:#E05805"
             id="stop83" /><stop
             offset="1"
             style="stop-color:#DF5504"
             id="stop85" /></linearGradient><path
           class="st6"
           d="m 126.5,69.3 c 4.1,7.6 21.3,19.9 76.9,26.2 l 0,0 c -44,-5.7 -64.5,-14 -76.9,-26.2 z"
           id="path87"
           style="fill:url(#SVGID_6_)"
           inkscape:connector-curvature="0" /><linearGradient
           id="SVGID_7_"
           gradientUnits="userSpaceOnUse"
           x1="-28.228701"
           y1="2944.9009"
           x2="-28.228701"
           y2="2956.323"
           gradientTransform="matrix(-1,0,0,1,50.3213,-2858)"><stop
             offset="0"
             style="stop-color:#FEEC7F"
             id="stop90" /><stop
             offset="0.6058"
             style="stop-color:#F7BD40"
             id="stop92" /><stop
             offset="1"
             style="stop-color:#F3A21B"
             id="stop94" /></linearGradient><path
           class="st7"
           d="m 70.9,95.5 c -1.7,0 -3,-1.4 -3,-3.1 0,-1.7 1.4,-3.3 3,-3.3 3.2,0 3.7,3.5 8.7,4.9 3.2,0.9 9.6,1.4 9.6,1.4 l -18.3,0.1 0,0 z"
           id="path96"
           style="fill:url(#SVGID_7_)"
           inkscape:connector-curvature="0" /><linearGradient
           id="SVGID_8_"
           gradientUnits="userSpaceOnUse"
           x1="101.55"
           y1="2927.0725"
           x2="101.55"
           y2="2949.6523"
           gradientTransform="translate(0,-2858)"><stop
             offset="0"
             style="stop-color:#FEEC7F"
             id="stop99" /><stop
             offset="0.2301"
             style="stop-color:#FEEA7C"
             id="stop101" /><stop
             offset="0.4238"
             style="stop-color:#FCE271"
             id="stop103" /><stop
             offset="0.6043"
             style="stop-color:#FBD560"
             id="stop105" /><stop
             offset="0.7768"
             style="stop-color:#F8C347"
             id="stop107" /><stop
             offset="0.9421"
             style="stop-color:#F4AC28"
             id="stop109" /><stop
             offset="1"
             style="stop-color:#F3A21B"
             id="stop111" /></linearGradient><path
           class="st8"
           d="m 112.5,95.5 c -4.3,0 -8.4,-2 -11.2,-4.9 -7.9,-3 -9.2,-7.7 -15.1,-7.7 -3.3,0 -6,3.2 -6,6.5 0,3.3 2.7,6.1 6,6.1 l 18.1,0 c 3.8,0 18.6,0 18.6,0 0,0 -0.1,0 -0.3,0 l -10.1,0 z"
           id="path113"
           style="fill:url(#SVGID_8_)"
           inkscape:connector-curvature="0" /><linearGradient
           id="SVGID_9_"
           gradientUnits="userSpaceOnUse"
           x1="206.0376"
           y1="2892.1858"
           x2="206.0376"
           y2="2935.6226"
           gradientTransform="translate(0,-2858)"><stop
             offset="0"
             style="stop-color:#F9C32E"
             id="stop116" /><stop
             offset="0.5169"
             style="stop-color:#F19819"
             id="stop118" /><stop
             offset="1"
             style="stop-color:#E96C04"
             id="stop120" /></linearGradient><path
           class="st9"
           d="m 219.3,37.3 c -1,-0.8 -2.1,-1.5 -3.1,-2.1 -1.1,-0.6 -2.3,-1.2 -3.7,-1.6 -2.6,-1 -5.3,-1.5 -7.9,-1.8 -0.4,0 -0.7,0 -1.1,0 -4.7,0 -9.7,0.2 -15.6,2.5 0.6,1.6 1.1,3.3 1.3,5.1 1.8,11 -1.7,18.1 -3.3,25.9 7.7,-6.2 22.5,-6.4 30.8,-5.9 l 0.9,0 c 0.9,0 1.7,-0.1 2.4,-0.3 8.1,-2.1 8.6,-14.4 -0.7,-21.8 z"
           id="path122"
           style="fill:url(#SVGID_9_)"
           inkscape:connector-curvature="0" /><path
           class="st10"
           d="m 186,65.2 c -0.7,3.4 -1,7.1 -0.4,11.3 2.1,13.6 14.4,17.4 17.8,19 l 0.1,0 c 5.5,0 10.6,-2 14.9,-5.1 -1,-0.9 -6.4,-5.7 -8,-10.6 -5.1,-15.5 6.5,-20.1 7.2,-20.4 -5.6,-0.1 -23.9,-0.3 -31.6,5.8 z"
           id="path124"
           inkscape:connector-curvature="0"
           style="opacity:0.47000002;fill:#e35702;enable-background:new" /><linearGradient
           id="SVGID_10_"
           gradientUnits="userSpaceOnUse"
           x1="204.42931"
           y1="2924.1143"
           x2="191.7128"
           y2="2942.6257"
           gradientTransform="translate(0,-2858)"><stop
             offset="0"
             style="stop-color:#E66A09"
             id="stop127" /><stop
             offset="1"
             style="stop-color:#E66A09"
             id="stop129" /></linearGradient><path
           class="st11"
           d="m 185.6,76.5 c 1.8,11.8 11.7,17.2 17.8,19 -3.5,-1.7 -12.5,-7.2 -12.4,-16.7 0.3,-18.6 19.8,-19.3 19.8,-19.3 l 0,0 c -8.2,0 -18.7,0.9 -24.9,5.7 -0.8,3.5 -1,7.1 -0.3,11.3 z"
           id="path131"
           style="fill:url(#SVGID_10_)"
           inkscape:connector-curvature="0" /><linearGradient
           id="SVGID_11_"
           gradientUnits="userSpaceOnUse"
           x1="-57.228699"
           y1="2942.6814"
           x2="-57.228699"
           y2="2953.665"
           gradientTransform="matrix(-1,0,0,1,50.3213,-2858)"><stop
             offset="0"
             style="stop-color:#F7B425"
             id="stop134" /><stop
             offset="6.246364e-02"
             style="stop-color:#F3A620"
             id="stop136" /><stop
             offset="0.2131"
             style="stop-color:#EC8816"
             id="stop138" /><stop
             offset="0.3736"
             style="stop-color:#E6720E"
             id="stop140" /><stop
             offset="0.5466"
             style="stop-color:#E26208"
             id="stop142" /><stop
             offset="0.7407"
             style="stop-color:#E05805"
             id="stop144" /><stop
             offset="1"
             style="stop-color:#DF5504"
             id="stop146" /></linearGradient><path
           class="st12"
           d="m 116.2,95.5 c -3.5,-0.1 -12.5,-1.2 -17.3,-8.4 2.6,5.3 7.8,8.4 13.7,8.4 l 3.6,0 z"
           id="path148"
           style="fill:url(#SVGID_11_)"
           inkscape:connector-curvature="0" /><linearGradient
           id="SVGID_12_"
           gradientUnits="userSpaceOnUse"
           x1="193.7399"
           y1="2883.1692"
           x2="193.7399"
           y2="2932.4656"
           gradientTransform="translate(0,-2858)"><stop
             offset="0"
             style="stop-color:#F7B425"
             id="stop151" /><stop
             offset="0.3526"
             style="stop-color:#EF961A"
             id="stop153" /><stop
             offset="1"
             style="stop-color:#DF5504"
             id="stop155" /></linearGradient><path
           class="st13"
           d="m 184.5,76.5 c -2.1,-13.8 6.9,-21.2 4.3,-37.1 -0.3,-1.8 -1,-5.1 -1,-5.1 0.6,1.6 1.1,3.3 1.3,5.1 2.6,15.9 -5.7,23.3 -3.6,37.1 2.1,13.6 14.6,17.7 17.8,19 0.1,0 -16.5,-4 -18.8,-19 z"
           id="path157"
           style="fill:url(#SVGID_12_)"
           inkscape:connector-curvature="0" /><path
           class="st14"
           d="m 110.8,95.5 -22.4,0 -17.6,0 c -1.2,0 -1.9,-0.8 -1.9,-0.8 1.1,0.1 41.9,0.8 41.9,0.8 z"
           id="path159"
           inkscape:connector-curvature="0"
           style="fill:#eb7808" /><path
           class="st15"
           d="m 112.3,95.5 -24.2,0 c -2.8,0 -4.2,-0.5 -4.2,-0.5 11.8,0.2 28.4,0.5 28.4,0.5 z"
           id="path161"
           inkscape:connector-curvature="0"
           style="fill:#e35702" /><path
           class="st15"
           d="m 186,65.2 c 7.7,-6.2 23.1,-6.4 31.7,-5.8 0,0 -12,-0.3 -20.3,1.5 -8.4,1.9 -11.4,4.3 -11.4,4.3 z"
           id="path163"
           inkscape:connector-curvature="0"
           style="fill:#e35702" /></g></g></g></svg>