<svg xmlns="http://www.w3.org/2000/svg" version="1.1" id="Calque_1" x="0" y="0" viewBox="0 0 496.4 125.2" xml:space="preserve"><g id="Kinto" transform="matrix(1.18739 0 0 1.18739 -26.4 -1.84)"><g id="g6"><g id="g8"><path class="st0" d="M252.3 61.5V95h-13.4V30.7h13.4v29.4l18.3-29.4h16L266 60.5 288.9 95h-17l-19.6-33.5z" id="path10" fill="#fff" fill-opacity="1"/><path class="st0" d="M305.1 40.1a7.48 7.48 0 01-5.4 2.2c-2.1 0-3.9-.7-5.3-2.2a7.48 7.48 0 01-2.2-5.4c0-2.2.8-3.9 2.3-5.4 1.5-1.5 3.4-2.2 5.6-2.2 2.1 0 3.8.7 5.3 2.2 1.5 1.5 2.2 3.4 2.2 5.4a10 10 0 01-2.5 5.4zm-11.7 8.4l12.5-2V95h-12.5V48.5z" id="path12" fill="#fff" fill-opacity="1"/><path class="st0" d="M344 64.4c0-2.7-.3-4.5-.9-5.4-.6-.9-1.7-1.4-3.2-1.4-1.3 0-2.7.3-4.2 1.2-1.5.8-3 1.9-4.4 3.1v33.3h-12.4V60.7c0-4.2-.6-7.9-1.6-11.1l11-3.1c1.2 2 1.7 3.9 1.7 5.9.9-.7 1.9-1.3 2.7-1.9.8-.6 1.7-1.2 2.8-1.6 1.3-.7 2.5-1.2 4.1-1.5 1.5-.3 3-.5 4.4-.5 2.7 0 5 .6 7.1 1.9a9.9 9.9 0 014.3 5c.6 1.6.9 3.8.9 6.7V95h-12V64.4h-.3z" id="path14" fill="#fff" fill-opacity="1"/><path class="st0" d="M382.9 96.2c-3.2 0-5.9-.6-8.3-1.9-2.3-1.3-3.9-2.9-4.6-5-.2-.5-.3-.9-.5-1.4-.1-.3-.2-.8-.2-1.4 0-.6-.1-1.2-.1-1.9V56.4h-4.7v-8.6h4.7v-6c0-1.6.1-3.4.5-5.2l12.7-3.1c-.2 2.2-.5 4.5-.6 6.9-.1 2.5-.2 5-.2 7.4h11.1l-3.1 8.6h-8v23.5c0 1.5.1 2.7.2 3.7.1.9.5 1.7.8 2.3.3.6.9.9 1.6 1.2.7.2 1.6.3 2.7.3.6 0 1.2-.1 1.9-.2s1.5-.3 2.7-.7L393 94a27.5 27.5 0 01-10.1 2.2z" id="path16" fill="#fff" fill-opacity="1"/><path class="st0" d="M438.4 81.6c-.9 2.9-2.4 5.6-4.5 7.9-1.7 2.1-3.9 3.6-6.4 4.9-2.4 1.2-5.6 1.7-9.3 1.7-3.2 0-6.1-.6-8.7-1.7-2.7-1.2-4.9-2.8-6.7-5-1.9-2.1-3.2-4.7-4.3-7.8-1-3-1.5-6.4-1.5-10.1 0-3.7.5-7.1 1.5-10.2 1-3.1 2.4-5.7 4.3-7.9s4.1-3.8 6.7-5.1c2.7-1.2 5.6-1.7 8.7-1.7 6.7 0 12 2.4 16.1 7.2 2 2.2 3.2 4.7 4.2 7.4.8 2.7 1.3 6 1.3 10 .1 4-.5 7.5-1.4 10.4zm-14.5-23.1a6.6 6.6 0 00-5.3-2.5c-1.5 0-2.8.5-3.9 1.3-1.2.8-2 2.1-2.4 3.5-.5 1.3-.8 2.7-.9 4.4-.2 1.7-.3 3.7-.3 6.1 0 5.3.6 9.4 1.6 11.9.6 1.3 1.4 2.3 2.7 2.9a7 7 0 003.7.9c2.8 0 4.7-1.3 5.9-3.8 1.2-2.5 1.7-6.6 1.7-12.2-.3-6.2-1.2-10.3-2.8-12.5z" id="path18" fill="#fff" fill-opacity="1"/></g><g id="Cloud"><linearGradient id="SVGID_1_" gradientUnits="userSpaceOnUse" x1="22.07" y1="2944.93" x2="110.97" y2="2952.68" gradientTransform="translate(0 -2858)"><stop offset="0" id="stop22" stop-color="#feec7f"/><stop offset="1" id="stop24" stop-color="#f3a21b"/></linearGradient><path d="M110.8 95.5h-40c-6.2-.2-13.1-.7-18.9-1.8-2.9-.5-5.6-1.2-8.2-1.9-1.3-.4-2.5-.7-3.7-1.1a130.16 130.16 0 01-6.5-2.4c-1-.4-1.9-.9-2.7-1.3-1.7-.9-3.2-1.6-4.3-2.3-1.2-.7-2.1-1.3-2.7-1.7l-.9-.6s.3.2 1 .6c.6.4 1.5.9 2.7 1.6 1.2.7 2.7 1.4 4.4 2.2 1.7.8 3.7 1.6 5.9 2.3 1.1.4 2.2.8 3.4 1.1 1.2.4 2.4.7 3.7 1 2.6.6 5.3 1.2 8.2 1.7 5.7 1 11.9 1.6 18.1 1.8 2.9.2 40.5.8 40.5.8z" id="path26" fill="url(#SVGID_1_)"/><linearGradient id="SVGID_2_" gradientUnits="userSpaceOnUse" x1="-115.38" y1="2872.92" x2="-115.38" y2="2957.99" gradientTransform="matrix(-1 0 0 1 50.32 -2858)"><stop offset="0" id="stop29" stop-color="#feec7f"/><stop offset=".19" id="stop31" stop-color="#fee97b"/><stop offset=".39" id="stop33" stop-color="#fcdf6e"/><stop offset=".61" id="stop35" stop-color="#facf58"/><stop offset=".82" id="stop37" stop-color="#f6b93a"/><stop offset="1" id="stop39" stop-color="#f3a21b"/></linearGradient><path d="M232.4 63.2c0-16-13.2-31.4-28.9-31.4-12.1 0-25.8 1.5-52 34.8C117.6 109.4 100 88.5 99 87.1c2.5 4.9 7.5 8.4 13.4 8.4h91.1c15.9 0 28.9-16.3 28.9-32.3z" id="path41" fill="url(#SVGID_2_)"/><linearGradient id="SVGID_3_" gradientUnits="userSpaceOnUse" x1="-13.75" y1="2937.9" x2="-96.75" y2="2937.9" gradientTransform="matrix(-1 0 0 1 50.32 -2858)"><stop offset="0" id="stop44" stop-color="#feec7f"/><stop offset=".11" id="stop46" stop-color="#fde373"/><stop offset=".71" id="stop48" stop-color="#f6b434"/><stop offset="1" id="stop50" stop-color="#f3a21b"/></linearGradient><path d="M112.5 95.5c-8.3 0-15.1-6.7-15.1-15s6.9-16.2 15-16.2c15.9 0 18.1 14.4 42.9 21.5 16.1 4.6 48.1 9.7 48.1 9.7h-90.9z" id="path52" fill="url(#SVGID_3_)"/><linearGradient id="SVGID_4_" gradientUnits="userSpaceOnUse" x1="162.54" y1="2865.88" x2="162.54" y2="2952.17" gradientTransform="translate(0 -2858)"><stop offset="0" id="stop55" stop-color="#feec7f"/><stop offset=".61" id="stop57" stop-color="#f7bc3f"/><stop offset="1" id="stop59" stop-color="#f3a21b"/></linearGradient><path d="M203.4 95.5c-3.2-1.3-15.7-5.4-17.8-19-2.1-13.8 6.2-21.2 3.6-37.1-2.3-14-14-20.9-25.7-23.3-6-1.2-12.6-.9-19.3 1.5-18.8 6.8-25.1 28.2-21.6 42.9 2.9 12.1 14.9 24 43.7 29.1 24.6 4.3 26.6 4.7 37.1 5.9z" id="path61" fill="url(#SVGID_4_)"/><linearGradient id="SVGID_5_" gradientUnits="userSpaceOnUse" x1="151.25" y1="2892.9" x2="151.25" y2="2954.48" gradientTransform="translate(0 -2858)"><stop offset="0" id="stop64" stop-color="#f9c32e"/><stop offset=".52" id="stop66" stop-color="#f19819"/><stop offset="1" id="stop68" stop-color="#e96c04"/></linearGradient><path d="M185.6 76.5c-2.1-13.8 6.2-21.2 3.6-37.1a38 38 0 00-1.3-5.1c-9.1 3.6-20.5 12-36.4 32.2-33.9 42.9-51.5 22-52.5 20.6 2.5 4.9 7.6 8.4 13.5 8.4h91c-3.3-1.3-15.8-5.4-17.9-19z" id="path70" fill="url(#SVGID_5_)"/><linearGradient id="SVGID_6_" gradientUnits="userSpaceOnUse" x1="107.04" y1="2940.4" x2="183.94" y2="2940.4" gradientTransform="translate(0 -2858)"><stop offset="0" id="stop73" stop-color="#f7b425"/><stop offset=".06" id="stop75" stop-color="#f3a620"/><stop offset=".21" id="stop77" stop-color="#ec8816"/><stop offset=".37" id="stop79" stop-color="#e6720e"/><stop offset=".55" id="stop81" stop-color="#e26208"/><stop offset=".74" id="stop83" stop-color="#e05805"/><stop offset="1" id="stop85" stop-color="#df5504"/></linearGradient><path d="M126.5 69.3c4.1 7.6 21.3 19.9 76.9 26.2-44-5.7-64.5-14-76.9-26.2z" id="path87" fill="url(#SVGID_6_)"/><linearGradient id="SVGID_7_" gradientUnits="userSpaceOnUse" x1="-28.23" y1="2944.9" x2="-28.23" y2="2956.32" gradientTransform="matrix(-1 0 0 1 50.32 -2858)"><stop offset="0" id="stop90" stop-color="#feec7f"/><stop offset=".61" id="stop92" stop-color="#f7bd40"/><stop offset="1" id="stop94" stop-color="#f3a21b"/></linearGradient><path d="M70.9 95.5c-1.7 0-3-1.4-3-3.1 0-1.7 1.4-3.3 3-3.3 3.2 0 3.7 3.5 8.7 4.9 3.2.9 9.6 1.4 9.6 1.4l-18.3.1z" id="path96" fill="url(#SVGID_7_)"/><linearGradient id="SVGID_8_" gradientUnits="userSpaceOnUse" x1="101.55" y1="2927.07" x2="101.55" y2="2949.65" gradientTransform="translate(0 -2858)"><stop offset="0" id="stop99" stop-color="#feec7f"/><stop offset=".23" id="stop101" stop-color="#feea7c"/><stop offset=".42" id="stop103" stop-color="#fce271"/><stop offset=".6" id="stop105" stop-color="#fbd560"/><stop offset=".78" id="stop107" stop-color="#f8c347"/><stop offset=".94" id="stop109" stop-color="#f4ac28"/><stop offset="1" id="stop111" stop-color="#f3a21b"/></linearGradient><path d="M112.5 95.5c-4.3 0-8.4-2-11.2-4.9-7.9-3-9.2-7.7-15.1-7.7-3.3 0-6 3.2-6 6.5s2.7 6.1 6 6.1H122.6h-10.1z" id="path113" fill="url(#SVGID_8_)"/><linearGradient id="SVGID_9_" gradientUnits="userSpaceOnUse" x1="206.04" y1="2892.19" x2="206.04" y2="2935.62" gradientTransform="translate(0 -2858)"><stop offset="0" id="stop116" stop-color="#f9c32e"/><stop offset=".52" id="stop118" stop-color="#f19819"/><stop offset="1" id="stop120" stop-color="#e96c04"/></linearGradient><path d="M219.3 37.3c-1-.8-2.1-1.5-3.1-2.1-1.1-.6-2.3-1.2-3.7-1.6-2.6-1-5.3-1.5-7.9-1.8h-1.1c-4.7 0-9.7.2-15.6 2.5.6 1.6 1.1 3.3 1.3 5.1 1.8 11-1.7 18.1-3.3 25.9 7.7-6.2 22.5-6.4 30.8-5.9h.9c.9 0 1.7-.1 2.4-.3 8.1-2.1 8.6-14.4-.7-21.8z" id="path122" fill="url(#SVGID_9_)"/><path d="M186 65.2c-.7 3.4-1 7.1-.4 11.3 2.1 13.6 14.4 17.4 17.8 19h.1c5.5 0 10.6-2 14.9-5.1-1-.9-6.4-5.7-8-10.6-5.1-15.5 6.5-20.1 7.2-20.4-5.6-.1-23.9-.3-31.6 5.8z" id="path124" opacity=".47" fill="#e35702"/><linearGradient id="SVGID_10_" gradientUnits="userSpaceOnUse" x1="204.43" y1="2924.11" x2="191.71" y2="2942.63" gradientTransform="translate(0 -2858)"><stop offset="0" id="stop127" stop-color="#e66a09"/><stop offset="1" id="stop129" stop-color="#e66a09"/></linearGradient><path d="M185.6 76.5c1.8 11.8 11.7 17.2 17.8 19-3.5-1.7-12.5-7.2-12.4-16.7.3-18.6 19.8-19.3 19.8-19.3-8.2 0-18.7.9-24.9 5.7-.8 3.5-1 7.1-.3 11.3z" id="path131" fill="url(#SVGID_10_)"/><linearGradient id="SVGID_11_" gradientUnits="userSpaceOnUse" x1="-57.23" y1="2942.68" x2="-57.23" y2="2953.66" gradientTransform="matrix(-1 0 0 1 50.32 -2858)"><stop offset="0" id="stop134" stop-color="#f7b425"/><stop offset=".06" id="stop136" stop-color="#f3a620"/><stop offset=".21" id="stop138" stop-color="#ec8816"/><stop offset=".37" id="stop140" stop-color="#e6720e"/><stop offset=".55" id="stop142" stop-color="#e26208"/><stop offset=".74" id="stop144" stop-color="#e05805"/><stop offset="1" id="stop146" stop-color="#df5504"/></linearGradient><path d="M116.2 95.5c-3.5-.1-12.5-1.2-17.3-8.4 2.6 5.3 7.8 8.4 13.7 8.4h3.6z" id="path148" fill="url(#SVGID_11_)"/><linearGradient id="SVGID_12_" gradientUnits="userSpaceOnUse" x1="193.74" y1="2883.17" x2="193.74" y2="2932.47" gradientTransform="translate(0 -2858)"><stop offset="0" id="stop151" stop-color="#f7b425"/><stop offset=".35" id="stop153" stop-color="#ef961a"/><stop offset="1" id="stop155" stop-color="#df5504"/></linearGradient><path d="M184.5 76.5c-2.1-13.8 6.9-21.2 4.3-37.1-.3-1.8-1-5.1-1-5.1.6 1.6 1.1 3.3 1.3 5.1 2.6 15.9-5.7 23.3-3.6 37.1 2.1 13.6 14.6 17.7 17.8 19 .1 0-16.5-4-18.8-19z" id="path157" fill="url(#SVGID_12_)"/><path d="M110.8 95.5h-40c-1.2 0-1.9-.8-1.9-.8 1.1.1 41.9.8 41.9.8z" id="path159" fill="#eb7808"/><path class="st15" d="M112.3 95.5H88.1c-2.8 0-4.2-.5-4.2-.5l28.4.5z" id="path161" fill="#e35702"/><path class="st15" d="M186 65.2c7.7-6.2 23.1-6.4 31.7-5.8 0 0-12-.3-20.3 1.5-8.4 1.9-11.4 4.3-11.4 4.3z" id="path163" fill="#e35702"/></g></g></g></svg>