<svg viewBox="0 0 600 300" xmlns="http://www.w3.org/2000/svg" fill-rule="evenodd" clip-rule="evenodd" stroke-linejoin="round" stroke-miterlimit="2"><path fill="#1c1c1c" d="M-6.69-6.04h611.93v312.59H-6.69z"/><path d="M27.33 56.7v-4.5H25V51h2.33v-1.06c0-2.56 1.17-3.83 3.5-3.83.54 0 1.04.04 1.54.14l-.16 1.27-.77-.07-.66-.01c-1.31 0-1.97.81-1.97 2.43V51h3.03v1.2H28.8v4.5h-1.48zM33.45 56.7v-1.2h1.64v-4.98h-1.35v-1.21h2.55l.26 1.9h.17c.07-1.36.76-2.03 2.03-2.03.77 0 1.31.22 1.66.66.34.43.53 1.14.53 2.11h-1.48c0-.54-.08-.93-.24-1.17-.16-.23-.41-.34-.77-.34-.63 0-1.1.26-1.41.8-.3.54-.46 1.3-.46 2.28v1.97h1.81v1.22h-4.94zM45.45 56.85a2.95 2.95 0 01-2.39-1.01 4.2 4.2 0 01-.85-2.83c0-1.21.28-2.17.85-2.83.57-.67 1.36-1 2.39-1s1.83.33 2.38 1c.57.66.86 1.62.86 2.83a4.2 4.2 0 01-.86 2.83 2.94 2.94 0 01-2.38 1.01zm0-1.33c.54 0 .95-.21 1.25-.65.3-.45.45-1.06.45-1.86s-.15-1.41-.45-1.86c-.3-.43-.7-.65-1.25-.65-.54 0-.96.22-1.26.65-.3.45-.44 1.06-.44 1.86s.14 1.41.44 1.86c.3.44.72.65 1.26.65zM50.42 56.7v-7.39h1.3l.1.93h.11c.06-.72.49-1.06 1.27-1.06.32 0 .57.09.77.26.22.18.36.44.42.8h.13c.01-.29.12-.54.34-.74.2-.22.5-.32.9-.32.51 0 .88.13 1.11.4.23.29.35.73.35 1.34v5.79h-1.48v-5.66c0-.5-.2-.75-.57-.75-.48 0-.73.32-.73 1v5.4H53.2v-5.78c0-.42-.2-.62-.59-.62-.47 0-.71.32-.71 1v5.4h-1.47z" fill="#fb4934" fill-rule="nonzero"/><path d="M67.48 56.7V46.26h1.49v6.33h.4c.61 0 1.11-.1 1.51-.31.4-.22.7-.56.93-1.05.23-.47.4-1.11.5-1.91h1.53c-.23 1.81-.79 3.09-1.7 3.83l2.18 3.57H72.5l-1.72-2.93c-.33.09-.68.13-1.07.13h-.74v2.8h-1.49zM79.32 48.14a1 1 0 01-.73-.3 1 1 0 01-.3-.73 1 1 0 01.3-.73 1 1 0 01.73-.3 1.02 1.02 0 011.05 1.03 1.02 1.02 0 01-1.04 1.03zm-3.47 8.57v-1.22h2.82v-4.95h-2.4V49.3h3.88v6.18h2.27v1.22h-6.57zM84.28 56.7v-7.39h1.34l.11 1.34h.16c.09-.98.74-1.47 1.96-1.47.78 0 1.38.23 1.81.7.43.49.64 1.16.64 2.02v4.8h-1.48v-4.8c0-.45-.11-.79-.34-1.03a1.28 1.28 0 00-.97-.37c-1.18 0-1.75.68-1.75 2.05v4.16h-1.48zM96.93 56.85c-1.13 0-1.93-.24-2.43-.7-.5-.47-.75-1.21-.75-2.23v-3.4h-1.86v-1.21h1.86v-2.23h1.48v2.23h3.36v1.21h-3.36v3.33c0 .59.14 1.02.43 1.27.29.27.76.4 1.41.4.23 0 .48-.01.73-.04.27-.01.56-.06.9-.1l.17 1.3a11.77 11.77 0 01-1.94.17zM104.03 56.85a2.95 2.95 0 01-2.39-1.01 4.2 4.2 0 01-.85-2.83c0-1.21.28-2.17.85-2.83.57-.67 1.36-1 2.39-1s1.83.33 2.38 1c.57.66.86 1.62.86 2.83a4.2 4.2 0 01-.86 2.83 2.94 2.94 0 01-2.38 1.01zm0-1.33c.54 0 .96-.21 1.26-.65.3-.45.44-1.06.44-1.86s-.14-1.41-.44-1.86c-.3-.43-.72-.65-1.26-.65s-.96.22-1.26.65c-.3.45-.44 1.06-.44 1.86s.14 1.41.44 1.86c.3.44.72.65 1.26.65zM108.93 56.7h7V58h-7zM117.75 56.7V46.26h1.49v4.4h.13c.08-.98.74-1.47 1.95-1.47.79 0 1.39.23 1.82.7.43.49.64 1.16.64 2.02v4.8h-1.49v-4.8c0-.48-.11-.83-.34-1.09-.23-.26-.56-.37-.97-.37-1.17 0-1.74.7-1.74 2.11v4.16h-1.49zM130.4 56.85c-1.12 0-1.92-.24-2.42-.7-.5-.47-.76-1.21-.76-2.23v-3.4h-1.86v-1.21h1.86v-2.23h1.49v2.23h3.35v1.21h-3.35v3.33c0 .59.14 1.02.42 1.27.29.27.76.4 1.42.4.23 0 .47-.01.73-.04.27-.01.55-.06.9-.1l.17 1.3a11.77 11.77 0 01-1.94.17zM138.77 56.85c-1.12 0-1.92-.24-2.42-.7-.5-.47-.76-1.21-.76-2.23v-3.4h-1.86v-1.21h1.86v-2.23h1.48v2.23h3.36v1.21h-3.36v3.33c0 .59.15 1.02.43 1.27.29.27.76.4 1.42.4.23 0 .47-.01.73-.04.27-.01.55-.06.9-.1l.17 1.3a11.77 11.77 0 01-1.95.17zM142.86 59.92V49.31h1.34l.11 1.34h.16c.13-.98.79-1.47 1.96-1.47.94 0 1.67.34 2.18 1.02.52.68.78 1.64.78 2.88 0 1.21-.26 2.14-.78 2.8-.51.64-1.24.97-2.17.97-.55 0-1.01-.11-1.35-.33a1.24 1.24 0 01-.62-.95h-.13v4.35h-1.48zm3.35-9.48c-1.25 0-1.87.7-1.87 2.11v1.79c0 .84.62 1.25 1.86 1.25 1.14 0 1.73-.84 1.73-2.5 0-.85-.16-1.5-.44-1.97-.3-.45-.73-.68-1.28-.68z" fill="#fbf1c7" fill-rule="nonzero"/><path d="M163 48.14a1 1 0 01-.72-.3 1 1 0 01-.3-.73 1 1 0 01.3-.73 1 1 0 01.73-.3 1.02 1.02 0 011.04 1.03 1.02 1.02 0 01-1.04 1.03zm-3.46 8.57v-1.22h2.81v-4.95h-2.4V49.3h3.89v6.18h2.27v1.22h-6.57zM167.58 56.7v-7.39h1.3l.1.93h.11c.06-.72.49-1.06 1.27-1.06.32 0 .57.09.77.26.22.18.36.44.42.8h.13c.01-.29.13-.54.34-.74.2-.22.5-.32.9-.32.51 0 .89.13 1.11.4.23.29.35.73.35 1.34v5.79h-1.47v-5.66c0-.5-.2-.75-.58-.75-.48 0-.72.32-.72 1v5.4h-1.26v-5.78c0-.42-.2-.62-.59-.62-.47 0-.71.32-.71 1v5.4h-1.47zM176.33 59.92V49.31h1.35l.11 1.34h.16c.13-.98.78-1.47 1.95-1.47.95 0 1.67.34 2.19 1.02.51.68.77 1.64.77 2.88 0 1.21-.26 2.14-.77 2.8-.52.64-1.24.97-2.17.97-.56 0-1.02-.11-1.36-.33a1.24 1.24 0 01-.61-.95h-.13v4.35h-1.49zm3.36-9.48c-1.26 0-1.87.7-1.87 2.11v1.79c0 .84.61 1.25 1.86 1.25 1.14 0 1.72-.84 1.72-2.5 0-.85-.15-1.5-.44-1.97-.3-.45-.73-.68-1.27-.68zM187.71 56.85a2.95 2.95 0 01-2.38-1.01 4.2 4.2 0 01-.86-2.83c0-1.21.29-2.17.86-2.83.57-.67 1.36-1 2.38-1 1.03 0 1.83.33 2.39 1 .57.66.86 1.62.86 2.83a4.2 4.2 0 01-.86 2.83 2.94 2.94 0 01-2.39 1.01zm0-1.33c.55 0 .96-.21 1.26-.65.3-.45.44-1.06.44-1.86s-.14-1.41-.44-1.86c-.3-.43-.71-.65-1.26-.65-.54 0-.95.22-1.25.65-.3.45-.44 1.06-.44 1.86s.14 1.41.44 1.86c.3.44.71.65 1.25.65zM192.46 56.7v-1.2h1.64v-4.98h-1.36v-1.21h2.56l.26 1.9h.17c.07-1.36.75-2.03 2.03-2.03.77 0 1.3.22 1.65.66.34.43.53 1.14.53 2.11h-1.47c0-.54-.09-.93-.24-1.17-.16-.23-.42-.34-.77-.34-.63 0-1.1.26-1.42.8-.3.54-.46 1.3-.46 2.28v1.97h1.82v1.22h-4.94zM205.72 56.85c-1.12 0-1.92-.24-2.42-.7-.5-.47-.76-1.21-.76-2.23v-3.4h-1.86v-1.21h1.86v-2.23h1.48v2.23h3.36v1.21h-3.36v3.33c0 .59.15 1.02.43 1.27.29.27.76.4 1.42.4.22 0 .47-.01.72-.04.28-.01.56-.06.9-.1l.18 1.3a11.77 11.77 0 01-1.95.17z" fill="#fb4934" fill-rule="nonzero"/><path d="M222.29 56.85c-3.07 0-4.61-1.7-4.61-5.11 0-1.62.38-2.86 1.15-3.74a4.15 4.15 0 013.29-1.33c.68 0 1.28.1 1.78.33.52.21.89.51 1.12.91l-1.03 1.03a2.22 2.22 0 00-1.86-.99c-.88 0-1.61.32-2.15.97a4.13 4.13 0 00-.82 2.75c0 2.6 1.13 3.9 3.37 3.9.67 0 1.33-.15 1.99-.42l.33 1.23a7 7 0 01-2.56.47zM230.59 56.85c-.86 0-1.47-.24-1.86-.7-.37-.47-.57-1.21-.57-2.23v-6.45h-2.17v-1.22h3.65v7.6c0 .39.03.7.12.96.07.24.21.43.43.54.21.12.54.17.95.17.39 0 .89-.08 1.49-.27l.17 1.3a8.71 8.71 0 01-2.21.3zM238.33 48.14a1 1 0 01-.73-.3 1 1 0 01-.3-.73 1 1 0 01.3-.73 1 1 0 01.73-.3 1.02 1.02 0 011.04 1.03 1.02 1.02 0 01-1.04 1.03zm-3.47 8.57v-1.22h2.8v-4.95h-2.39V49.3h3.88v6.18h2.28v1.22h-6.57zM247.01 56.85c-1.26 0-2.24-.33-2.93-1-.68-.66-1.03-1.61-1.03-2.86 0-1.2.3-2.14.87-2.8a3.1 3.1 0 012.48-1c1 0 1.77.3 2.31.9.54.6.83 1.48.83 2.63 0 .33-.02.66-.04.95h-5c.12.61.42 1.08.88 1.4.44.32 1.04.48 1.79.48.31 0 .61-.01.91-.06.3-.02.6-.07.9-.14l.19 1.3a12.33 12.33 0 01-2.16.2zm-.6-6.38c-.57 0-1.03.18-1.37.54-.34.36-.54.87-.6 1.53h3.76c0-.67-.16-1.17-.48-1.53a1.7 1.7 0 00-1.31-.54zM251.65 56.7v-7.39h1.34l.12 1.34h.15c.09-.98.75-1.47 1.96-1.47.79 0 1.39.23 1.81.7.43.49.65 1.16.65 2.02v4.8h-1.49v-4.8c0-.45-.11-.79-.34-1.03a1.28 1.28 0 00-.97-.37c-1.17 0-1.74.68-1.74 2.05v4.16h-1.49zM264.3 56.85c-1.12 0-1.92-.24-2.42-.7-.5-.47-.76-1.21-.76-2.23v-3.4h-1.86v-1.21h1.86v-2.23h1.49v2.23h3.35v1.21h-3.35v3.33c0 .59.14 1.02.42 1.27.29.27.76.4 1.42.4.23 0 .47-.01.73-.04.27-.01.55-.06.9-.1l.17 1.3a11.77 11.77 0 01-1.95.17zM29.28 95.65c-1.21 0-2.15-.33-2.81-1-.66-.65-1-1.61-1-2.85 0-1.2.33-2.15.98-2.82.65-.67 1.58-1 2.77-1 .73 0 1.35.13 1.86.4.52.26.87.64 1.1 1.13l-1.14.86a2.22 2.22 0 00-1.87-1.07c-.69 0-1.22.21-1.59.64-.38.41-.57 1.01-.57 1.78 0 .85.22 1.49.63 1.93a2.4 2.4 0 001.81.67 13.88 13.88 0 002.17-.18l.18 1.3c-.42.08-.83.14-1.26.17-.43.03-.84.04-1.26.04zM38.1 95.65c-.85 0-1.46-.24-1.85-.7-.37-.47-.57-1.21-.57-2.23v-6.45h-2.17v-1.22h3.65v7.6c0 .39.03.7.12.96.07.24.21.43.43.54.21.12.54.17.95.17.39 0 .89-.08 1.49-.27l.17 1.3a8.71 8.71 0 01-2.21.3zM45.85 86.94a1 1 0 01-.73-.3 1 1 0 01-.3-.73 1 1 0 01.3-.73 1 1 0 01.73-.3 1.02 1.02 0 011.04 1.03 1.02 1.02 0 01-1.04 1.03zm-3.47 8.57V94.3h2.81v-4.96h-2.4V88.1h3.89v6.19h2.27v1.2h-6.57zM54.53 95.65c-1.26 0-2.24-.33-2.93-1-.68-.65-1.03-1.61-1.03-2.85 0-1.2.3-2.15.88-2.82a3.1 3.1 0 012.47-1c1 0 1.77.3 2.31.9.54.6.83 1.49.83 2.64 0 .33-.02.66-.04.95h-5c.13.61.43 1.08.88 1.4.45.33 1.05.48 1.79.48.31 0 .61-.01.91-.05.3-.03.6-.08.9-.15l.19 1.3a12.33 12.33 0 01-2.16.2zm-.6-6.38c-.57 0-1.03.18-1.37.54-.34.36-.54.87-.6 1.53h3.76c0-.67-.16-1.17-.48-1.53a1.7 1.7 0 00-1.3-.54zM59.17 95.5v-7.39h1.34l.12 1.34h.16c.08-.98.74-1.47 1.95-1.47.79 0 1.39.23 1.82.7.42.49.64 1.16.64 2.02v4.8H63.7v-4.8c0-.45-.11-.79-.34-1.03a1.28 1.28 0 00-.97-.37c-1.17 0-1.74.68-1.74 2.05v4.16h-1.49zM71.83 95.65c-1.13 0-1.93-.24-2.43-.7-.5-.47-.76-1.21-.76-2.23v-3.4h-1.86v-1.2h1.86v-2.24h1.49v2.23h3.35v1.21h-3.35v3.33c0 .59.14 1.02.42 1.27.29.28.76.4 1.42.4.23 0 .47-.01.73-.04.27-.01.55-.06.9-.1l.17 1.3a11.77 11.77 0 01-1.94.17z" fill="#fbf1c7" fill-rule="nonzero"/><path d="M83.8 89.47v-1.3h6.98v1.3H83.8zm0 3.48v-1.3h6.98v1.3H83.8z" fill="#8ec07c" fill-rule="nonzero"/><path d="M105.13 95.65c-3.07 0-4.62-1.7-4.62-5.11 0-1.61.4-2.86 1.16-3.74a4.15 4.15 0 013.29-1.33c.68 0 1.28.1 1.78.33.52.21.89.51 1.12.91l-1.03 1.03a2.22 2.22 0 00-1.86-.99c-.88 0-1.61.32-2.16.98a4.13 4.13 0 00-.81 2.74c0 2.6 1.13 3.9 3.37 3.9.67 0 1.33-.15 1.99-.42l.32 1.23a7 7 0 01-2.55.47zM113.43 95.65c-.86 0-1.48-.24-1.86-.7-.37-.47-.57-1.21-.57-2.23v-6.45h-2.17v-1.22h3.65v7.6c0 .39.03.7.12.96.07.24.21.43.43.54.21.12.54.17.95.17.39 0 .89-.08 1.49-.27l.17 1.3a8.71 8.71 0 01-2.21.3zM121.17 86.94a1 1 0 01-.73-.3 1 1 0 01-.3-.73 1 1 0 01.3-.73 1 1 0 01.73-.3 1.02 1.02 0 011.04 1.03 1.02 1.02 0 01-1.04 1.03zm-3.48 8.57V94.3h2.82v-4.96h-2.4V88.1h3.88v6.19h2.27v1.2h-6.57zM129.85 95.65c-1.26 0-2.24-.33-2.93-1-.68-.65-1.03-1.61-1.03-2.85 0-1.2.3-2.15.87-2.82a3.1 3.1 0 012.47-1c1 0 1.78.3 2.32.9.54.6.83 1.49.83 2.64 0 .33-.02.66-.05.95h-5c.13.61.43 1.08.89 1.4.44.33 1.04.48 1.79.48.31 0 .61-.01.91-.05.3-.03.6-.08.9-.15l.19 1.3a12.33 12.33 0 01-2.16.2zm-.6-6.38c-.57 0-1.03.18-1.37.54-.35.36-.55.87-.6 1.53h3.75c0-.67-.15-1.17-.47-1.53a1.7 1.7 0 00-1.31-.54zM134.49 95.5v-7.39h1.34l.12 1.34h.15c.09-.98.75-1.47 1.96-1.47.79 0 1.39.23 1.81.7.43.49.65 1.16.65 2.02v4.8h-1.49v-4.8c0-.45-.11-.79-.34-1.03a1.28 1.28 0 00-.97-.37c-1.17 0-1.75.68-1.75 2.05v4.16h-1.48zM147.14 95.65c-1.13 0-1.93-.24-2.43-.7-.5-.47-.75-1.21-.75-2.23v-3.4h-1.86v-1.2h1.86v-2.24h1.48v2.23h3.36v1.21h-3.36v3.33c0 .59.15 1.02.43 1.27.29.28.76.4 1.42.4.22 0 .47-.01.72-.04.28-.01.56-.06.9-.1l.18 1.3a11.77 11.77 0 01-1.95.17zM156.68 96.9a4.12 4.12 0 01-3.51-1.66c-.84-1.12-1.26-2.69-1.26-4.73 0-2 .42-3.56 1.26-4.66.83-1.1 2-1.64 3.51-1.64h.33l-.13 1.26h-.05a2.9 2.9 0 00-2.56 1.33c-.6.87-.9 2.11-.9 3.71 0 1.63.3 2.9.9 3.8a2.9 2.9 0 002.56 1.34h.05l.13 1.26h-.33zM162.04 95.65a13.61 13.61 0 01-2.53-.21l.17-1.34c.49.08.92.12 1.29.17.38.04.72.05 1.07.05.74 0 1.28-.07 1.63-.21.34-.16.5-.39.5-.7 0-.23-.06-.4-.18-.5-.11-.11-.3-.2-.54-.26l-1.71-.43a4.32 4.32 0 01-1.6-.7c-.34-.27-.52-.68-.52-1.24 0-.81.32-1.4.93-1.75.63-.38 1.63-.55 3-.55.69 0 1.33.05 1.96.13l-.16 1.29-.98-.08-.86-.02c-.82 0-1.42.07-1.8.21-.37.14-.56.37-.56.7 0 .21.09.37.24.46.15.1.4.18.7.27l1.38.33c.77.18 1.34.44 1.7.74.35.31.54.77.54 1.37 0 .79-.3 1.37-.87 1.73-.59.36-1.52.54-2.8.54zM171.7 95.65c-1.27 0-2.25-.33-2.94-1-.68-.65-1.02-1.61-1.02-2.85 0-1.2.3-2.15.87-2.82a3.1 3.1 0 012.47-1c1 0 1.77.3 2.31.9.54.6.83 1.49.83 2.64 0 .33-.01.66-.04.95h-5c.13.61.43 1.08.88 1.4.45.33 1.05.48 1.79.48.31 0 .61-.01.91-.05.3-.03.6-.08.9-.15l.19 1.3a12.33 12.33 0 01-2.16.2zm-.6-6.38c-.58 0-1.04.18-1.38.54-.34.36-.54.87-.6 1.53h3.76c0-.67-.16-1.17-.47-1.53a1.7 1.7 0 00-1.32-.54zM175.72 95.5v-1.2h1.64v-4.98H176v-1.2h2.56l.26 1.89h.17c.07-1.36.76-2.03 2.03-2.03.77 0 1.31.22 1.65.66.35.43.53 1.14.53 2.11h-1.47c0-.54-.08-.93-.24-1.17-.16-.23-.42-.34-.77-.34-.63 0-1.1.26-1.42.8-.3.54-.45 1.3-.45 2.28v1.98h1.81v1.2h-4.94zM186.77 95.5l-2.68-7.39h1.57l2.03 6.14h.12l1.96-6.14h1.57l-2.61 7.4h-1.96zM196.8 95.65c-1.26 0-2.24-.33-2.93-1-.69-.65-1.03-1.61-1.03-2.85 0-1.2.3-2.15.87-2.82a3.1 3.1 0 012.47-1c1 0 1.78.3 2.32.9.54.6.83 1.49.83 2.64 0 .33-.02.66-.05.95h-5c.13.61.43 1.08.89 1.4.44.33 1.04.48 1.79.48.31 0 .61-.01.91-.05.3-.03.6-.08.9-.15l.19 1.3a12.33 12.33 0 01-2.16.2zm-.6-6.38c-.57 0-1.03.18-1.37.54-.35.36-.55.87-.6 1.53h3.75c0-.67-.15-1.17-.47-1.53a1.7 1.7 0 00-1.31-.54zM200.82 95.5v-1.2h1.65v-4.98h-1.36v-1.2h2.56l.25 1.89h.18c.07-1.36.75-2.03 2.02-2.03.77 0 1.32.22 1.66.66.34.43.53 1.14.53 2.11h-1.47c0-.54-.09-.93-.25-1.17-.15-.23-.4-.34-.77-.34-.62 0-1.1.26-1.41.8-.3.54-.46 1.3-.46 2.28v1.98h1.82v1.2h-4.95zM209.35 95.5h7v1.3h-7zM220.53 95.65a2.3 2.3 0 01-1.8-.7c-.42-.45-.64-1.11-.64-1.95V88.1h1.49V93c0 .42.11.75.35.98.25.23.59.34 1.02.34.54 0 .95-.17 1.23-.51.27-.34.41-.91.41-1.71V88.1h1.47v6.06l1.01.15v1.19l-2.37.07-.1-1.5h-.12a1.9 1.9 0 01-1.95 1.57zM225.93 95.5v-1.2h1.64v-4.98h-1.35v-1.2h2.55l.26 1.89h.17c.07-1.36.76-2.03 2.03-2.03.77 0 1.31.22 1.66.66.34.43.52 1.14.52 2.11h-1.47c0-.54-.08-.93-.24-1.17-.16-.23-.41-.34-.77-.34-.63 0-1.1.26-1.41.8-.3.54-.46 1.3-.46 2.28v1.98h1.81v1.2h-4.94zM238.95 95.65c-.85 0-1.47-.24-1.85-.7-.37-.47-.57-1.21-.57-2.23v-6.45h-2.17v-1.22H238v7.6c0 .39.03.7.12.96.07.24.21.43.42.54.22.12.55.17.96.17.39 0 .89-.08 1.49-.27l.17 1.3a8.71 8.71 0 01-2.22.3z" fill="#fbf1c7" fill-rule="nonzero"/><path d="M242.81 89.47v-1.3h6.97v1.3h-6.97zm0 3.48v-1.3h6.97v1.3h-6.97z" fill="#8ec07c" fill-rule="nonzero"/><path d="M252.58 90.07l-.13-4.46h1.61l-.14 4.46h-1.34zm2.83 0l-.15-4.46h1.62l-.15 4.46h-1.32z" fill="#fbf1c7" fill-rule="nonzero"/><path d="M260.02 95.5V85.06h1.49v4.4h.12c.09-.98.75-1.47 1.96-1.47.79 0 1.39.23 1.81.7.43.49.65 1.16.65 2.02v4.8h-1.49v-4.8c0-.48-.11-.83-.34-1.09-.23-.26-.56-.37-.97-.37-1.17 0-1.74.7-1.74 2.11v4.16h-1.49zM272.67 95.65c-1.13 0-1.93-.24-2.43-.7-.5-.47-.75-1.21-.75-2.23v-3.4h-1.86v-1.2h1.86v-2.24h1.48v2.23h3.36v1.21h-3.36v3.33c0 .59.15 1.02.43 1.27.29.28.76.4 1.42.4.22 0 .47-.01.72-.04.28-.01.56-.06.9-.1l.18 1.3a11.77 11.77 0 01-1.95.17zM281.04 95.65c-1.13 0-1.93-.24-2.43-.7-.5-.47-.75-1.21-.75-2.23v-3.4H276v-1.2h1.86v-2.24h1.48v2.23h3.36v1.21h-3.36v3.33c0 .59.14 1.02.43 1.27.29.28.76.4 1.41.4.23 0 .48-.01.73-.04.27-.01.56-.06.9-.1l.17 1.3a11.77 11.77 0 01-1.94.17zM285.13 98.72v-10.6h1.34l.11 1.33h.16c.13-.98.79-1.47 1.96-1.47.94 0 1.67.35 2.18 1.02.52.68.77 1.64.77 2.88 0 1.22-.25 2.14-.77 2.8-.51.64-1.24.97-2.17.97-.56 0-1.01-.11-1.36-.33a1.24 1.24 0 01-.61-.95h-.13v4.35h-1.48zm3.35-9.48c-1.25 0-1.87.7-1.87 2.11v1.79c0 .84.62 1.26 1.86 1.26 1.14 0 1.73-.85 1.73-2.52 0-.84-.16-1.5-.45-1.96-.3-.45-.73-.68-1.27-.68zM296.5 90.04a1 1 0 01-.72-.3 1 1 0 01-.3-.73 1 1 0 01.3-.73 1 1 0 01.73-.3 1 1 0 01.73.3c.2.2.3.45.3.73a1 1 0 01-.3.73 1 1 0 01-.73.3zm0 5.61a1 1 0 01-.72-.3c-.2-.21-.3-.45-.3-.74a1 1 0 01.3-.73 1 1 0 01.73-.3 1 1 0 01.73.3c.2.2.3.44.3.73s-.1.53-.3.74a1 1 0 01-.73.3zM302.6 96.84l5.6-12.56h1.49l-5.61 12.56h-1.48zm6.16 0l5.6-12.56h1.48l-5.6 12.56h-1.48zM322.64 95.65c-.86 0-1.47-.24-1.86-.7-.37-.47-.57-1.21-.57-2.23v-6.45h-2.17v-1.22h3.66v7.6c0 .39.03.7.11.96.07.24.22.43.43.54.22.12.54.17.96.17.38 0 .88-.08 1.48-.27l.18 1.3a8.71 8.71 0 01-2.22.3zM329.98 95.65a2.95 2.95 0 01-2.38-1.01 4.2 4.2 0 01-.86-2.83c0-1.21.29-2.17.86-2.83.57-.67 1.35-1 2.38-1 1.03 0 1.83.33 2.39 1 .57.66.85 1.62.85 2.83a4.2 4.2 0 01-.85 2.83 2.94 2.94 0 01-2.39 1.01zm0-1.33c.55 0 .96-.21 1.26-.65.3-.45.44-1.06.44-1.86s-.14-1.41-.44-1.86c-.3-.43-.71-.65-1.26-.65-.54 0-.95.22-1.25.65-.3.45-.45 1.06-.45 1.86s.15 1.41.45 1.86c.3.44.71.65 1.25.65zM338.92 95.65c-1.21 0-2.15-.33-2.81-1-.66-.65-1-1.61-1-2.85 0-1.2.33-2.15.98-2.82.65-.67 1.58-1 2.78-1 .72 0 1.34.13 1.85.4.52.26.87.64 1.1 1.13l-1.14.86a2.22 2.22 0 00-1.87-1.07c-.69 0-1.22.21-1.59.64-.38.41-.57 1.01-.57 1.78 0 .85.22 1.49.63 1.93a2.4 2.4 0 001.81.67 13.88 13.88 0 002.17-.18l.18 1.3c-.42.08-.83.14-1.26.17-.43.03-.84.04-1.26.04zM345.78 95.65a2.9 2.9 0 01-1.9-.55c-.45-.38-.67-.9-.67-1.59 0-.77.28-1.37.85-1.8a4.05 4.05 0 012.42-.63c.55 0 1.05.06 1.47.19v-.4c0-.5-.17-.86-.52-1.09a3 3 0 00-1.55-.37l-1.77-.06.14-1.3 1.5.02c1.21.01 2.13.28 2.71.78.6.52.9 1.26.9 2.23v3.09l1.24.15v1.19l-2.37.07-.05-1.63h-.16c-.04.56-.27.99-.67 1.27-.4.29-.93.43-1.57.43zm.22-1.18c.43 0 .8-.09 1.09-.25a1.54 1.54 0 00.86-1.37v-.44a2.9 2.9 0 00-.79-.11c-.26-.02-.51-.03-.77-.03-1.2 0-1.78.37-1.78 1.11 0 .72.45 1.09 1.4 1.09zM356.12 95.65c-.86 0-1.47-.24-1.86-.7-.37-.47-.57-1.21-.57-2.23v-6.45h-2.17v-1.22h3.65v7.6c0 .39.03.7.12.96.07.24.21.43.43.54.21.12.54.17.95.17.39 0 .89-.08 1.49-.27l.17 1.3a8.71 8.71 0 01-2.21.3zM360.44 95.5V85.06h1.49v4.4h.13c.08-.98.74-1.47 1.95-1.47.79 0 1.39.23 1.82.7.43.49.64 1.16.64 2.02v4.8h-1.49v-4.8c0-.48-.1-.83-.34-1.09-.23-.26-.55-.37-.97-.37-1.17 0-1.74.7-1.74 2.11v4.16h-1.49zM371.82 95.65a2.95 2.95 0 01-2.38-1.01 4.2 4.2 0 01-.86-2.83c0-1.21.29-2.17.86-2.83.57-.67 1.36-1 2.38-1 1.03 0 1.83.33 2.39 1 .57.66.86 1.62.86 2.83a4.2 4.2 0 01-.86 2.83 2.94 2.94 0 01-2.39 1.01zm0-1.33c.55 0 .96-.21 1.26-.65.3-.45.44-1.06.44-1.86s-.14-1.41-.44-1.86c-.3-.43-.71-.65-1.26-.65-.54 0-.95.22-1.25.65-.3.45-.44 1.06-.44 1.86s.14 1.41.44 1.86c.3.44.71.65 1.25.65zM379.62 95.65a13.61 13.61 0 01-2.52-.21l.17-1.34c.48.08.91.12 1.28.17.39.04.73.05 1.07.05.75 0 1.29-.07 1.63-.21.34-.16.5-.39.5-.7 0-.23-.06-.4-.17-.5-.11-.11-.3-.2-.54-.26l-1.72-.43a4.32 4.32 0 01-1.6-.7c-.34-.27-.51-.68-.51-1.24 0-.81.31-1.4.93-1.75.63-.38 1.63-.55 3-.55.68 0 1.33.05 1.95.13l-.15 1.29-.99-.08-.86-.02c-.81 0-1.41.07-1.8.21-.37.14-.55.37-.55.7 0 .21.08.37.24.46.14.1.39.18.7.27l1.37.33c.77.18 1.34.44 1.7.74.36.31.54.77.54 1.37 0 .79-.3 1.37-.87 1.73-.58.36-1.51.54-2.8.54zM389.83 95.65c-1.12 0-1.92-.24-2.42-.7-.5-.47-.76-1.21-.76-2.23v-3.4h-1.86v-1.2h1.86v-2.24h1.48v2.23h3.36v1.21h-3.36v3.33c0 .59.15 1.02.43 1.27.29.28.76.4 1.42.4.22 0 .47-.01.72-.04.28-.01.56-.06.9-.1l.18 1.3a11.77 11.77 0 01-1.95.17zM396.93 90.04a1 1 0 01-.73-.3 1 1 0 01-.3-.73 1 1 0 01.3-.73 1 1 0 01.73-.3 1 1 0 01.73.3c.2.2.3.45.3.73a1 1 0 01-.3.73 1 1 0 01-.73.3zm0 5.61a1 1 0 01-.73-.3c-.2-.21-.3-.45-.3-.74a1 1 0 01.3-.73 1 1 0 01.73-.3 1 1 0 01.73.3c.2.2.3.44.3.73s-.1.53-.3.74a1 1 0 01-.73.3zM405.3 95.65c-1.07 0-1.9-.26-2.5-.75a2.6 2.6 0 01-.87-2.1c0-.68.19-1.22.57-1.65.39-.43.93-.71 1.64-.85v-.12a2.53 2.53 0 01-1.44-.77 2.1 2.1 0 01-.5-1.43c0-.8.27-1.41.81-1.85.55-.45 1.3-.66 2.29-.66s1.74.21 2.29.66c.54.44.8 1.05.8 1.85 0 .57-.16 1.04-.49 1.43-.33.37-.81.63-1.43.77v.12c.7.14 1.26.42 1.63.85.39.43.57.97.57 1.65 0 .9-.28 1.6-.87 2.1-.6.5-1.43.75-2.5.75zm0-6.04c.51 0 .9-.11 1.19-.36.28-.24.41-.57.41-1 0-.48-.13-.85-.41-1.11a1.7 1.7 0 00-1.19-.39c-.51 0-.9.13-1.19.39-.27.26-.41.63-.41 1.11 0 .43.14.76.41 1 .29.25.68.36 1.19.36zm0 4.76c.6 0 1.06-.15 1.39-.43.32-.3.5-.7.5-1.22 0-.55-.18-1-.5-1.31-.33-.3-.79-.46-1.39-.46-.6 0-1.06.16-1.39.46-.32.31-.5.76-.5 1.31 0 .52.18.92.5 1.22.33.28.79.43 1.39.43zM413.67 95.65c-1.07 0-1.9-.26-2.5-.75a2.6 2.6 0 01-.87-2.1c0-.68.18-1.22.57-1.65.38-.43.93-.71 1.64-.85v-.12a2.53 2.53 0 01-1.44-.77 2.1 2.1 0 01-.5-1.43c0-.8.27-1.41.81-1.85.55-.45 1.3-.66 2.29-.66.98 0 1.74.21 2.28.66.55.44.82 1.05.82 1.85 0 .57-.17 1.04-.5 1.43-.33.37-.82.63-1.43.77v.12c.7.14 1.26.42 1.63.85.38.43.57.97.57 1.65 0 .9-.29 1.6-.87 2.1-.6.5-1.43.75-2.5.75zm0-6.04c.51 0 .9-.11 1.18-.36.29-.24.42-.57.42-1 0-.48-.13-.85-.42-1.11a1.7 1.7 0 00-1.18-.39c-.52 0-.9.13-1.19.39-.27.26-.41.63-.41 1.11 0 .43.14.76.41 1 .29.25.67.36 1.19.36zm0 4.76c.6 0 1.06-.15 1.38-.43.33-.3.5-.7.5-1.22 0-.55-.17-1-.5-1.31-.32-.3-.78-.46-1.38-.46-.6 0-1.06.16-1.39.46-.33.31-.5.76-.5 1.31 0 .52.17.92.5 1.22.33.28.79.43 1.39.43zM422.04 95.65c-1.07 0-1.9-.26-2.5-.75a2.6 2.6 0 01-.87-2.1c0-.68.18-1.22.57-1.65.38-.43.93-.71 1.64-.85v-.12a2.53 2.53 0 01-1.44-.77 2.1 2.1 0 01-.5-1.43c0-.8.27-1.41.81-1.85.55-.45 1.3-.66 2.29-.66.98 0 1.74.21 2.28.66.55.44.82 1.05.82 1.85 0 .57-.17 1.04-.5 1.43-.33.37-.82.63-1.43.77v.12c.7.14 1.26.42 1.63.85.38.43.57.97.57 1.65 0 .9-.29 1.6-.87 2.1-.6.5-1.43.75-2.5.75zm0-6.04c.51 0 .9-.11 1.18-.36.29-.24.42-.57.42-1 0-.48-.13-.85-.42-1.11a1.7 1.7 0 00-1.18-.39c-.52 0-.9.13-1.19.39-.27.26-.41.63-.41 1.11 0 .43.14.76.41 1 .29.25.67.36 1.19.36zm0 4.76c.6 0 1.05-.15 1.38-.43.33-.3.5-.7.5-1.22 0-.55-.17-1-.5-1.31-.33-.3-.78-.46-1.38-.46-.6 0-1.06.16-1.39.46-.33.31-.5.76-.5 1.31 0 .52.17.92.5 1.22.33.28.79.43 1.39.43zM430.4 95.65c-1.07 0-1.9-.26-2.5-.75a2.6 2.6 0 01-.86-2.1c0-.68.18-1.22.57-1.65.38-.43.92-.71 1.64-.85v-.12a2.53 2.53 0 01-1.44-.77 2.1 2.1 0 01-.5-1.43c0-.8.27-1.41.81-1.85.54-.45 1.3-.66 2.29-.66.98 0 1.74.21 2.28.66.54.44.82 1.05.82 1.85 0 .57-.18 1.04-.5 1.43-.33.37-.82.63-1.43.77v.12c.7.14 1.25.42 1.63.85.38.43.57.97.57 1.65 0 .9-.29 1.6-.87 2.1-.6.5-1.43.75-2.5.75zm0-6.04c.52 0 .9-.11 1.2-.36.28-.24.4-.57.4-1 0-.48-.12-.85-.4-1.11a1.7 1.7 0 00-1.2-.39c-.5 0-.9.13-1.18.39-.27.26-.41.63-.41 1.11 0 .43.14.76.41 1 .29.25.67.36 1.19.36zm0 4.76c.6 0 1.06-.15 1.4-.43.32-.3.5-.7.5-1.22 0-.55-.18-1-.5-1.31-.34-.3-.8-.46-1.4-.46-.6 0-1.05.16-1.38.46-.33.31-.5.76-.5 1.31 0 .52.17.92.5 1.22.33.28.79.43 1.39.43zM435.32 96.84l5.6-12.56h1.48l-5.61 12.56h-1.47zM446.2 95.5l-2.68-7.39h1.57l2.02 6.14h.13l1.96-6.14h1.57l-2.61 7.4h-1.96zM452.51 95.5v-1.29h2.47v-7.17l-2.32.81v-1.41l2.32-.83h1.47v8.6h2.22v1.3h-6.16z" fill="#b8bb26" fill-rule="nonzero"/><path d="M461.8 90.07l-.13-4.46h1.61l-.14 4.46h-1.34zm2.82 0l-.14-4.46h1.61l-.14 4.46h-1.33zM470.86 98.55l.56-4.81h1.63l-.84 4.81h-1.35zM161.67 115.05a2.9 2.9 0 01-1.9-.55c-.45-.38-.67-.9-.67-1.59 0-.77.28-1.37.85-1.8a4.05 4.05 0 012.42-.63c.55 0 1.05.06 1.47.19v-.4c0-.5-.17-.86-.52-1.09a3 3 0 00-1.55-.37l-1.77-.06.14-1.3 1.5.02c1.21.01 2.13.28 2.71.78.6.52.9 1.26.9 2.23v3.09l1.24.15v1.19l-2.37.07-.05-1.63h-.16c-.04.56-.27.99-.67 1.27-.4.29-.93.43-1.57.43zm.22-1.18c.43 0 .8-.09 1.09-.25a1.54 1.54 0 00.86-1.37v-.44a2.9 2.9 0 00-.79-.11c-.26-.02-.51-.03-.77-.03-1.2 0-1.78.37-1.78 1.11 0 .72.45 1.09 1.4 1.09zM170.32 115.05a2.3 2.3 0 01-1.8-.7c-.43-.45-.64-1.11-.64-1.95v-4.89h1.48v4.89c0 .42.12.75.36.98.24.23.59.34 1.01.34.55 0 .96-.17 1.23-.51.27-.34.42-.91.42-1.71v-3.99h1.47v6.06l1.01.15v1.19l-2.37.07-.1-1.5h-.13a1.9 1.9 0 01-1.94 1.57zM180.62 115.05c-1.13 0-1.93-.24-2.43-.7-.5-.47-.76-1.21-.76-2.23v-3.4h-1.85v-1.2h1.85v-2.24h1.49v2.23h3.35v1.22h-3.35v3.32c0 .59.14 1.02.43 1.27.28.28.75.4 1.41.4.23 0 .47-.01.73-.04.27-.01.56-.06.9-.1l.17 1.3a11.77 11.77 0 01-1.94.17zM184.7 114.91v-10.46h1.49v4.4h.13c.08-.98.74-1.47 1.95-1.47.79 0 1.39.23 1.82.7.42.49.64 1.16.64 2.02v4.81h-1.49v-4.81c0-.47-.11-.83-.34-1.09-.23-.26-.56-.37-.97-.37-1.17 0-1.74.7-1.74 2.11v4.16h-1.49z" fill="#fbf1c7" fill-rule="nonzero"/><path d="M192.6 108.87v-1.3h6.97v1.3h-6.97zm0 3.48v-1.3h6.97v1.3h-6.97z" fill="#8ec07c" fill-rule="nonzero"/><path d="M206.9 116.3a4.12 4.12 0 01-3.52-1.66c-.84-1.12-1.26-2.69-1.26-4.73 0-2 .42-3.56 1.26-4.66.83-1.1 2-1.64 3.51-1.64h.33l-.13 1.26h-.05a2.9 2.9 0 00-2.56 1.33c-.6.87-.9 2.11-.9 3.71 0 1.63.3 2.9.9 3.8a2.9 2.9 0 002.56 1.34h.05l.13 1.26h-.33zM210.74 109.47l-.13-4.46h1.61l-.14 4.46h-1.34zm2.82 0l-.14-4.46h1.61l-.14 4.46h-1.33z" fill="#fbf1c7" fill-rule="nonzero"/><path d="M220.25 115.05a2.9 2.9 0 01-1.9-.55c-.44-.38-.67-.9-.67-1.59 0-.77.28-1.37.85-1.8a4.05 4.05 0 012.42-.63c.55 0 1.05.06 1.47.19v-.4c0-.5-.17-.86-.52-1.09a3 3 0 00-1.55-.37l-1.77-.06.14-1.3 1.5.02c1.21.01 2.13.28 2.71.78.6.52.9 1.26.9 2.23v3.09l1.24.15v1.19l-2.37.07-.05-1.63h-.16c-.04.56-.27.99-.67 1.27-.4.29-.93.43-1.57.43zm.23-1.18c.42 0 .8-.09 1.08-.25a1.54 1.54 0 00.86-1.37v-.44a2.9 2.9 0 00-.79-.11c-.25-.02-.51-.03-.77-.03-1.2 0-1.78.37-1.78 1.11 0 .72.45 1.09 1.4 1.09zM230.59 115.05c-.86 0-1.47-.24-1.86-.7-.37-.47-.57-1.21-.57-2.23v-6.45h-2.17v-1.22h3.65v7.6c0 .39.03.7.12.96.07.24.21.43.43.54.21.12.54.17.95.17.39 0 .89-.08 1.49-.27l.17 1.3a8.71 8.71 0 01-2.21.3zM238.64 115.05c-1.26 0-2.24-.33-2.93-1-.68-.65-1.03-1.61-1.03-2.85 0-1.2.3-2.15.88-2.82a3.1 3.1 0 012.47-1c1 0 1.77.3 2.31.9.54.6.83 1.49.83 2.64 0 .33-.02.66-.04.95h-5c.13.61.43 1.08.88 1.4.45.33 1.04.48 1.79.48.31 0 .61-.01.91-.05.3-.03.6-.08.9-.15l.19 1.3a12.33 12.33 0 01-2.16.2zm-.6-6.38c-.57 0-1.03.18-1.37.54-.34.36-.54.87-.6 1.53h3.76c0-.67-.16-1.17-.48-1.53a1.7 1.7 0 00-1.3-.54zM242.85 114.91l2.65-3.66-2.65-3.74h1.67l1.78 2.6 1.77-2.6h1.67l-2.67 3.69 2.67 3.71h-1.67l-1.8-2.57-1.75 2.57h-1.67zM255.06 106.34a1 1 0 01-.72-.3 1 1 0 01-.3-.73 1 1 0 01.3-.73 1 1 0 01.72-.3 1.02 1.02 0 011.05 1.03 1.02 1.02 0 01-1.04 1.03zm-3.47 8.57v-1.21h2.82v-4.96H252v-1.23h3.88v6.19h2.27v1.21h-6.57zM262.46 115.05a13.61 13.61 0 01-2.53-.21l.18-1.34c.48.08.91.12 1.28.17.39.04.73.05 1.07.05.74 0 1.29-.07 1.63-.21.34-.16.5-.39.5-.7 0-.23-.06-.4-.17-.5-.12-.11-.3-.2-.54-.26l-1.72-.43a4.32 4.32 0 01-1.6-.7c-.34-.27-.51-.68-.51-1.24 0-.81.31-1.4.93-1.75.63-.38 1.63-.55 3-.55.68 0 1.32.05 1.95.13l-.15 1.29c-.38-.03-.7-.06-.99-.07-.3-.02-.57-.03-.86-.03-.81 0-1.41.07-1.8.21-.37.14-.55.37-.55.7 0 .22.08.37.24.46.14.1.39.18.7.27l1.37.33c.77.18 1.34.44 1.7.74.36.31.54.77.54 1.37 0 .79-.3 1.37-.87 1.73-.58.36-1.51.54-2.8.54z" fill="#b8bb26" fill-rule="nonzero"/><path d="M269.32 109.47l-.13-4.46h1.61l-.14 4.46h-1.34zm2.82 0L272 105h1.62l-.15 4.46h-1.33zM278.38 117.95l.56-4.81h1.63l-.84 4.81h-1.35zM294.42 109.47l-.13-4.46h1.62l-.15 4.46h-1.34zm2.83 0l-.14-4.46h1.61l-.14 4.46h-1.33z" fill="#fbf1c7" fill-rule="nonzero"/><path d="M301.86 118.12v-10.6h1.34l.12 1.33h.16c.12-.98.78-1.47 1.95-1.47.95 0 1.67.35 2.19 1.02.51.68.77 1.64.77 2.88 0 1.22-.26 2.14-.77 2.8-.52.64-1.24.97-2.17.97-.56 0-1.02-.11-1.36-.33a1.24 1.24 0 01-.61-.95h-.13v4.35h-1.49zm3.36-9.48c-1.26 0-1.87.7-1.87 2.11v1.79c0 .84.61 1.26 1.85 1.26 1.15 0 1.73-.85 1.73-2.52 0-.84-.15-1.5-.44-1.95-.3-.46-.73-.69-1.27-.69zM309.56 112.7l.03-.03 1.38-7.1h1.43l-1.15 5.9h3.28V105h1.4v6.46h.94v1.23h-.94v2.21h-1.4v-2.21h-4.97zM321.04 115.05a13.61 13.61 0 01-2.53-.21l.18-1.34c.48.08.9.12 1.28.17.39.04.73.05 1.07.05.74 0 1.29-.07 1.63-.21.34-.16.5-.39.5-.7 0-.23-.06-.4-.17-.5-.12-.11-.3-.2-.54-.26l-1.72-.43a4.32 4.32 0 01-1.6-.7c-.34-.27-.51-.68-.51-1.24 0-.81.31-1.4.93-1.75.62-.38 1.62-.55 3-.55.68 0 1.32.05 1.95.13l-.15 1.29c-.38-.03-.7-.06-.99-.07-.3-.02-.57-.03-.86-.03-.81 0-1.41.07-1.8.21-.37.14-.55.37-.55.7 0 .22.08.37.24.46.14.1.38.18.7.27l1.37.33c.77.18 1.34.44 1.7.74.36.31.54.77.54 1.37 0 .79-.3 1.37-.87 1.73-.58.36-1.51.54-2.8.54zM329.41 115.05a13.61 13.61 0 01-2.53-.21l.17-1.34c.49.08.92.12 1.29.17.39.04.73.05 1.07.05.74 0 1.29-.07 1.63-.21.34-.16.5-.39.5-.7 0-.23-.06-.4-.17-.5-.12-.11-.3-.2-.54-.26l-1.72-.43a4.32 4.32 0 01-1.6-.7c-.34-.27-.51-.68-.51-1.24 0-.81.31-1.4.93-1.75.62-.38 1.62-.55 3-.55.68 0 1.32.05 1.95.13l-.15 1.29c-.38-.03-.7-.06-.99-.07-.3-.02-.57-.03-.86-.03-.81 0-1.41.07-1.8.21-.37.14-.55.37-.55.7 0 .22.08.37.24.46.14.1.38.18.7.27l1.37.33c.77.18 1.34.44 1.7.74.36.31.54.77.54 1.37 0 .79-.3 1.37-.87 1.73-.58.36-1.51.54-2.8.54zM335.5 114.91l-.85-7.4h1.4l.56 6.29h.13l.87-6.29h1.34l.87 6.29h.13l.63-6.29h1.47l-1.04 7.4h-1.82l-.87-5.87h-.08l-.86 5.87h-1.89zM346.72 115.05c-2.26 0-3.37-1.67-3.37-5.03 0-3.44 1.11-5.15 3.37-5.15s3.37 1.71 3.37 5.15c0 3.36-1.11 5.03-3.37 5.03zm0-1.28c1.26 0 1.88-1.25 1.88-3.75 0-2.58-.62-3.87-1.88-3.87-1.26 0-1.89 1.29-1.89 3.87 0 2.5.63 3.75 1.89 3.75zm.06-2.7a1 1 0 01-.73-.3 1 1 0 01-.3-.75 1 1 0 01.3-.72 1 1 0 01.73-.3 1.02 1.02 0 011.04 1.02 1.02 1.02 0 01-1.04 1.04zM351.46 114.91v-1.21h1.64v-4.97h-1.35v-1.22h2.55l.26 1.9h.17c.07-1.36.76-2.03 2.03-2.03.77 0 1.31.22 1.66.66.34.43.52 1.14.52 2.11h-1.47c0-.54-.08-.92-.24-1.17-.16-.23-.41-.34-.77-.34-.63 0-1.1.26-1.41.8-.3.54-.46 1.3-.46 2.28v1.98h1.81v1.21h-4.94zM362.89 115.05c-.93 0-1.66-.33-2.18-.97a4.44 4.44 0 01-.77-2.8c0-1.24.26-2.2.77-2.88a2.6 2.6 0 012.19-1.02c1.17 0 1.83.49 1.96 1.47h.12v-4.4h1.49v10.46l-1.33.07-.13-1.21h-.15c-.06.43-.26.74-.6.95-.36.22-.82.33-1.37.33zm-1.49-3.77c0 1.67.57 2.52 1.73 2.52 1.24 0 1.85-.42 1.85-1.26v-1.79c0-1.41-.62-2.11-1.87-2.11-.55 0-.97.23-1.27.69a3.7 3.7 0 00-.44 1.95z" fill="#b8bb26" fill-rule="nonzero"/><path d="M369.74 109.47l-.13-4.46h1.61l-.14 4.46h-1.34zm2.83 0l-.15-4.46h1.62l-.14 4.46h-1.33zM377.42 116.3l.13-1.25h.06c1.1 0 1.96-.45 2.56-1.34.6-.9.9-2.17.9-3.8 0-1.6-.3-2.84-.9-3.71a2.91 2.91 0 00-2.56-1.33h-.06l-.13-1.26h.33c1.52 0 2.69.54 3.53 1.64.83 1.1 1.24 2.66 1.24 4.66 0 2.04-.41 3.61-1.24 4.73a4.17 4.17 0 01-3.53 1.67h-.33zM385.8 116.3l.12-1.25h.06c1.1 0 1.95-.45 2.55-1.34.6-.9.9-2.17.9-3.8 0-1.6-.3-2.84-.9-3.71a2.91 2.91 0 00-2.55-1.33h-.06l-.13-1.26h.33c1.51 0 2.69.54 3.53 1.64.83 1.1 1.24 2.66 1.24 4.66 0 2.04-.41 3.61-1.24 4.73a4.17 4.17 0 01-3.53 1.67h-.33zM25.08 153.71v-1.21h1.65v-4.97h-1.36v-1.22h2.56l.25 1.9h.17c.07-1.36.76-2.03 2.03-2.03.77 0 1.32.22 1.66.66.34.43.53 1.14.53 2.11H31.1c0-.54-.09-.92-.25-1.17-.15-.23-.41-.34-.77-.34-.63 0-1.1.26-1.41.8-.3.54-.46 1.3-.46 2.29v1.97h1.81v1.21h-4.94zM37.8 153.85c-1.26 0-2.25-.33-2.93-1-.69-.65-1.03-1.61-1.03-2.85 0-1.2.3-2.15.87-2.82a3.1 3.1 0 012.47-1c1 0 1.77.3 2.31.9.55.6.83 1.49.83 2.65 0 .32-.01.65-.04.94h-5c.13.61.43 1.08.89 1.4.44.33 1.04.48 1.78.48.31 0 .61-.01.91-.05.3-.03.6-.07.9-.15l.19 1.3a12.33 12.33 0 01-2.16.2zm-.6-6.38c-.58 0-1.03.18-1.38.54-.34.36-.54.87-.6 1.53h3.76c0-.67-.16-1.17-.47-1.53a1.7 1.7 0 00-1.32-.54zM46.02 153.85c-1.21 0-2.16-.33-2.81-1-.66-.65-1-1.61-1-2.85 0-1.2.32-2.15.98-2.82.64-.67 1.57-1 2.77-1 .73 0 1.34.13 1.86.4.51.26.87.65 1.1 1.13l-1.14.86a2.22 2.22 0 00-1.88-1.07c-.68 0-1.2.21-1.58.64-.39.41-.57 1.01-.57 1.79 0 .84.21 1.48.63 1.92a2.4 2.4 0 001.81.67 13.88 13.88 0 002.17-.18l.17 1.3c-.41.08-.83.14-1.25.17-.43.03-.85.04-1.26.04zM53.82 153.85a2.95 2.95 0 01-2.39-1.01 4.2 4.2 0 01-.86-2.83c0-1.21.29-2.17.86-2.83.57-.67 1.36-1 2.39-1 1.02 0 1.82.33 2.38 1 .57.66.86 1.62.86 2.83a4.2 4.2 0 01-.86 2.83 2.94 2.94 0 01-2.38 1.01zm0-1.33c.54 0 .95-.2 1.25-.65.3-.44.45-1.06.45-1.86s-.15-1.41-.45-1.86c-.3-.42-.71-.65-1.25-.65-.55 0-.96.23-1.26.65-.3.45-.44 1.06-.44 1.86s.14 1.42.44 1.86c.3.44.71.65 1.26.65zM58.56 153.71v-1.21h1.64v-4.97h-1.36v-1.22h2.56l.26 1.9h.17c.07-1.36.76-2.03 2.03-2.03.77 0 1.31.22 1.65.66.35.43.53 1.14.53 2.11h-1.47c0-.54-.09-.92-.24-1.17-.16-.23-.42-.34-.77-.34-.63 0-1.1.26-1.42.8-.3.54-.45 1.3-.45 2.29v1.97h1.8v1.21h-4.93zM69.98 153.85c-.93 0-1.65-.33-2.17-.97a4.44 4.44 0 01-.77-2.8c0-1.24.26-2.2.77-2.88a2.6 2.6 0 012.19-1.02c1.17 0 1.83.49 1.95 1.47h.13v-4.4h1.49v10.46l-1.33.07-.13-1.21h-.16c-.05.43-.25.74-.6.95-.35.22-.81.33-1.37.33zm-1.48-3.77c0 1.67.57 2.52 1.73 2.52 1.24 0 1.85-.42 1.85-1.26v-1.79c0-1.41-.63-2.11-1.87-2.11-.56 0-.97.23-1.27.69a3.7 3.7 0 00-.44 1.95zM78.35 153.85a13.61 13.61 0 01-2.53-.21l.17-1.34c.49.08.92.13 1.29.17.39.04.73.05 1.07.05.74 0 1.29-.07 1.63-.2.34-.17.5-.4.5-.7 0-.24-.06-.4-.17-.5-.12-.12-.3-.2-.54-.27l-1.72-.42a4.32 4.32 0 01-1.6-.7c-.34-.28-.51-.69-.51-1.25 0-.81.31-1.4.93-1.75.62-.38 1.62-.55 3-.55.68 0 1.32.05 1.95.13l-.16 1.29-.98-.07c-.3-.02-.57-.03-.86-.03-.81 0-1.41.07-1.8.21-.37.14-.55.37-.55.7 0 .22.08.37.24.46.14.1.38.18.7.27l1.37.33c.77.18 1.34.44 1.7.74.36.32.54.77.54 1.37 0 .79-.3 1.37-.87 1.73-.58.36-1.51.54-2.8.54z" fill="#fbf1c7" fill-rule="nonzero"/><path d="M92.17 147.67v-1.3h6.97v1.3h-6.97zm0 3.48v-1.3h6.97v1.3h-6.97z" fill="#8ec07c" fill-rule="nonzero"/><path d="M112.97 153.85c-1.22 0-2.16-.33-2.82-1-.65-.65-1-1.61-1-2.85 0-1.2.33-2.15 1-2.82.63-.67 1.56-1 2.76-1 .73 0 1.34.13 1.86.4.51.26.87.65 1.1 1.13l-1.14.86a2.22 2.22 0 00-1.88-1.07c-.68 0-1.21.21-1.58.64-.39.41-.57 1.01-.57 1.79 0 .84.21 1.48.63 1.92a2.4 2.4 0 001.81.67 13.88 13.88 0 002.17-.18l.17 1.3c-.41.08-.83.14-1.25.17-.43.03-.85.04-1.26.04zM121.8 153.85c-.86 0-1.48-.24-1.86-.7-.37-.47-.57-1.21-.57-2.22v-6.46h-2.17v-1.21h3.65v7.6c0 .38.03.7.12.95.07.24.21.43.42.54.22.12.55.17.96.17.39 0 .89-.08 1.49-.27l.17 1.3a8.71 8.71 0 01-2.22.3zM129.53 145.14a1 1 0 01-.72-.3 1 1 0 01-.3-.73 1 1 0 01.3-.73 1 1 0 01.72-.3 1.02 1.02 0 011.05 1.03 1.02 1.02 0 01-1.04 1.03zm-3.47 8.57v-1.21h2.82v-4.96h-2.4v-1.23h3.88v6.19h2.27v1.21h-6.57zM138.22 153.85c-1.26 0-2.25-.33-2.93-1-.69-.65-1.03-1.61-1.03-2.85 0-1.2.3-2.15.87-2.82a3.1 3.1 0 012.47-1c1 0 1.77.3 2.32.9.54.6.83 1.49.83 2.65 0 .32-.02.65-.05.94h-5c.13.61.43 1.08.89 1.4.44.33 1.04.48 1.78.48.32 0 .62-.01.92-.05.3-.03.6-.07.9-.15l.18 1.3a12.33 12.33 0 01-2.16.2zm-.6-6.38c-.57 0-1.03.18-1.37.54-.35.36-.55.87-.6 1.53h3.75c0-.67-.15-1.17-.47-1.53a1.7 1.7 0 00-1.31-.54zM142.86 153.71v-7.4h1.34l.11 1.34h.16c.09-.98.74-1.47 1.96-1.47.78 0 1.38.23 1.81.7.43.49.65 1.16.65 2.02v4.81h-1.49v-4.81c0-.45-.11-.79-.34-1.03a1.28 1.28 0 00-.97-.37c-1.18 0-1.75.68-1.75 2.05v4.16h-1.48zM155.51 153.85c-1.13 0-1.93-.24-2.43-.7-.5-.47-.75-1.21-.75-2.22v-3.4h-1.86v-1.22h1.86v-2.23h1.48v2.23h3.36v1.22h-3.36v3.32c0 .59.14 1.02.43 1.28.29.27.76.4 1.41.4.23 0 .48-.02.73-.05.27-.01.56-.05.9-.1l.17 1.3a11.77 11.77 0 01-1.94.17zM162.6 153.85a1 1 0 01-.72-.3c-.2-.21-.3-.45-.3-.74a1 1 0 01.3-.73 1 1 0 01.73-.3 1 1 0 01.73.3c.2.2.3.44.3.73s-.1.53-.3.74a1 1 0 01-.73.3zM168.06 157.04l-.07-1.3 2.37-.12c.75-.04 1.29-.25 1.63-.62.34-.39.5-.96.5-1.72v-.71h-.11c-.06.43-.26.74-.6.95-.36.22-.82.33-1.37.33-.93 0-1.66-.33-2.17-.97a4.44 4.44 0 01-.78-2.8c0-1.24.26-2.2.78-2.88a2.6 2.6 0 012.18-1.02c1.17 0 1.83.49 1.96 1.47h.15l.12-1.34h1.34v6.74c0 1.32-.3 2.29-.9 2.92-.6.61-1.56.95-2.87 1.01l-2.16.06zm.86-6.96c0 1.67.57 2.52 1.73 2.52 1.24 0 1.86-.42 1.86-1.26v-1.79c0-1.41-.63-2.11-1.88-2.11-.55 0-.97.23-1.27.69a3.7 3.7 0 00-.44 1.95zM180.06 153.85c-1.26 0-2.24-.33-2.93-1-.68-.65-1.03-1.61-1.03-2.85 0-1.2.3-2.15.88-2.82a3.1 3.1 0 012.47-1c1 0 1.77.3 2.31.9.54.6.83 1.49.83 2.65 0 .32-.02.65-.04.94h-5c.13.61.43 1.08.88 1.4.45.33 1.05.48 1.79.48.31 0 .61-.01.91-.05.3-.03.6-.07.9-.15l.19 1.3a12.33 12.33 0 01-2.16.2zm-.6-6.38c-.57 0-1.03.18-1.37.54-.34.36-.54.87-.6 1.53h3.76c0-.67-.16-1.17-.48-1.53a1.7 1.7 0 00-1.3-.54zM188.99 153.85c-1.13 0-1.93-.24-2.43-.7-.5-.47-.76-1.21-.76-2.22v-3.4h-1.86v-1.22h1.86v-2.23h1.49v2.23h3.35v1.22h-3.35v3.32c0 .59.14 1.02.42 1.28.29.27.76.4 1.42.4.23 0 .47-.02.73-.05.27-.01.55-.05.9-.1l.17 1.3a11.77 11.77 0 01-1.94.17zM192.61 153.71h7V155h-7zM200.82 153.71v-1.21h1.65v-4.97h-1.36v-1.22h2.56l.25 1.9h.18c.07-1.36.75-2.03 2.02-2.03.77 0 1.32.22 1.66.66.34.43.53 1.14.53 2.11h-1.47c0-.54-.09-.92-.25-1.17-.15-.23-.4-.34-.77-.34-.62 0-1.1.26-1.41.8-.3.54-.46 1.3-.46 2.29v1.97h1.82v1.21h-4.95zM213.53 153.85c-1.25 0-2.24-.33-2.92-1-.69-.65-1.03-1.61-1.03-2.85 0-1.2.3-2.15.87-2.82a3.1 3.1 0 012.47-1c1 0 1.77.3 2.31.9.55.6.83 1.49.83 2.65 0 .32-.01.65-.04.94h-5c.13.61.43 1.08.89 1.4.44.33 1.04.48 1.78.48.32 0 .62-.01.92-.05.3-.03.6-.07.9-.15l.18 1.3a12.33 12.33 0 01-2.16.2zm-.6-6.38c-.57 0-1.02.18-1.37.54-.34.36-.54.87-.6 1.53h3.76c0-.67-.16-1.17-.47-1.53a1.7 1.7 0 00-1.32-.54zM221.76 153.85c-1.21 0-2.16-.33-2.81-1-.66-.65-1-1.61-1-2.85 0-1.2.33-2.15.98-2.82.65-.67 1.57-1 2.77-1 .73 0 1.35.13 1.86.4.52.26.87.65 1.1 1.13l-1.14.86a2.22 2.22 0 00-1.87-1.07c-.69 0-1.22.21-1.59.64-.38.41-.57 1.01-.57 1.79 0 .84.21 1.48.63 1.92a2.4 2.4 0 001.81.67 13.88 13.88 0 002.17-.18l.18 1.3c-.42.08-.83.14-1.26.17-.43.03-.84.04-1.26.04zM229.56 153.85a2.95 2.95 0 01-2.39-1.01 4.2 4.2 0 01-.85-2.83c0-1.21.28-2.17.85-2.83.57-.67 1.36-1 2.39-1s1.83.33 2.38 1c.57.66.86 1.62.86 2.83a4.2 4.2 0 01-.86 2.83 2.94 2.94 0 01-2.38 1.01zm0-1.33c.54 0 .96-.2 1.26-.65.3-.44.44-1.06.44-1.86s-.14-1.41-.44-1.86c-.3-.42-.72-.65-1.26-.65s-.96.23-1.26.65c-.3.45-.44 1.06-.44 1.86s.14 1.42.44 1.86c.3.44.72.65 1.26.65zM234.3 153.71v-1.21h1.64v-4.97h-1.36v-1.22h2.56l.26 1.9h.17c.07-1.36.76-2.03 2.03-2.03.77 0 1.31.22 1.65.66.35.43.53 1.14.53 2.11h-1.47c0-.54-.08-.92-.24-1.17-.16-.23-.42-.34-.77-.34-.63 0-1.1.26-1.42.8-.3.54-.45 1.3-.45 2.29v1.97h1.81v1.21h-4.94zM245.72 153.85c-.92 0-1.65-.33-2.17-.97a4.44 4.44 0 01-.77-2.8c0-1.24.26-2.2.77-2.88a2.6 2.6 0 012.19-1.02c1.17 0 1.83.49 1.96 1.47h.12v-4.4h1.49v10.46l-1.33.07-.13-1.21h-.15c-.06.43-.26.74-.6.95-.36.22-.82.33-1.38.33zm-1.48-3.77c0 1.67.57 2.52 1.73 2.52 1.24 0 1.85-.42 1.85-1.26v-1.79c0-1.41-.62-2.11-1.87-2.11-.55 0-.97.23-1.27.69a3.7 3.7 0 00-.44 1.95zM254.1 153.85a13.61 13.61 0 01-2.54-.21l.18-1.34c.48.08.91.13 1.28.17.39.04.73.05 1.07.05.75 0 1.29-.07 1.63-.2.34-.17.5-.4.5-.7 0-.24-.06-.4-.17-.5-.11-.12-.3-.2-.54-.27l-1.72-.42a4.32 4.32 0 01-1.6-.7c-.34-.28-.51-.69-.51-1.25 0-.81.31-1.4.93-1.75.63-.38 1.63-.55 3-.55.68 0 1.32.05 1.95.13l-.15 1.29c-.38-.03-.7-.06-.99-.07-.3-.02-.57-.03-.86-.03-.81 0-1.41.07-1.8.21-.37.14-.55.37-.55.7 0 .22.08.37.24.46.14.1.39.18.7.27l1.37.33c.77.18 1.34.44 1.7.74.36.32.54.77.54 1.37 0 .79-.3 1.37-.87 1.73-.58.36-1.51.54-2.8.54zM265.48 155.11a4.12 4.12 0 01-3.52-1.67c-.84-1.11-1.25-2.69-1.25-4.73 0-2 .41-3.55 1.25-4.65.83-1.1 2-1.65 3.52-1.65h.32l-.12 1.26h-.06a2.9 2.9 0 00-2.56 1.33c-.6.87-.9 2.11-.9 3.71 0 1.63.3 2.9.9 3.8a2.9 2.9 0 002.56 1.34h.06l.12 1.26h-.32zM268.39 153.71v-10.45h1.48v4.4h.13c.07-1 .69-1.48 1.82-1.48.98 0 1.75.33 2.28.99.54.64.82 1.57.82 2.77 0 1.24-.36 2.21-1.06 2.88a4.15 4.15 0 01-3 1.03c-.42 0-.83-.01-1.24-.04l-1.23-.1zm1.48-4.16v3c.2.02.42.03.63.03.22.02.43.02.64.02.75 0 1.32-.23 1.72-.7.4-.46.6-1.12.6-1.96 0-.8-.16-1.41-.44-1.86-.3-.43-.73-.64-1.28-.64-1.25 0-1.87.7-1.87 2.11zM279.11 153.85a2.3 2.3 0 01-1.8-.7c-.43-.45-.64-1.11-.64-1.95v-4.89h1.49v4.89c0 .43.11.75.35.98.25.23.59.34 1.02.34.54 0 .95-.17 1.23-.5.27-.35.4-.92.4-1.72v-3.99h1.48v6.06l1.01.15v1.19l-2.37.07-.1-1.5h-.12a1.9 1.9 0 01-1.95 1.57zM288.71 153.85c-1.21 0-2.16-.33-2.81-1-.66-.65-1-1.61-1-2.85 0-1.2.33-2.15.98-2.82.65-.67 1.57-1 2.77-1 .73 0 1.35.13 1.86.4.51.26.87.65 1.1 1.13l-1.14.86a2.22 2.22 0 00-1.87-1.07c-.69 0-1.22.21-1.59.64-.38.41-.57 1.01-.57 1.79 0 .84.21 1.48.63 1.92a2.4 2.4 0 001.81.67 13.88 13.88 0 002.17-.18l.17 1.3c-.41.08-.82.14-1.25.17-.43.03-.85.04-1.26.04zM293.44 153.71v-10.45h1.48v6.32h.4c.62 0 1.12-.1 1.52-.31.4-.22.7-.56.92-1.04.23-.48.4-1.12.5-1.92h1.53c-.23 1.82-.78 3.09-1.7 3.83l2.19 3.57h-1.83l-1.71-2.93c-.33.09-.69.13-1.08.13h-.74v2.8h-1.48zM305.59 153.85c-1.26 0-2.24-.33-2.93-1-.68-.65-1.03-1.61-1.03-2.85 0-1.2.3-2.15.87-2.82a3.1 3.1 0 012.48-1c1 0 1.77.3 2.3.9.55.6.84 1.49.84 2.65 0 .32-.02.65-.05.94h-5c.13.61.43 1.08.9 1.4.43.33 1.03.48 1.78.48.31 0 .61-.01.91-.05.3-.03.6-.07.9-.15l.19 1.3a12.33 12.33 0 01-2.16.2zm-.6-6.38c-.57 0-1.03.18-1.37.54-.34.36-.54.87-.6 1.53h3.76c0-.67-.16-1.17-.48-1.53a1.7 1.7 0 00-1.31-.54zM314.52 153.85c-1.13 0-1.93-.24-2.43-.7-.5-.47-.76-1.21-.76-2.22v-3.4h-1.86v-1.22h1.86v-2.23h1.49v2.23h3.35v1.22h-3.35v3.32c0 .59.14 1.02.43 1.28.28.27.75.4 1.4.4.24 0 .48-.02.74-.05.27-.01.55-.05.9-.1l.17 1.3a11.77 11.77 0 01-1.94.17z" fill="#fbf1c7" fill-rule="nonzero"/><path d="M318.13 147.67v-1.3h6.97v1.3h-6.97zm0 3.48v-1.3h6.97v1.3h-6.97z" fill="#8ec07c" fill-rule="nonzero"/><path d="M327.9 148.27l-.13-4.46h1.61l-.14 4.46h-1.34zm2.83 0l-.15-4.46h1.62l-.15 4.46h-1.32z" fill="#fbf1c7" fill-rule="nonzero"/><path d="M337.78 153.85c-.93 0-1.66-.33-2.17-.97a4.44 4.44 0 01-.77-2.8c0-1.24.25-2.2.77-2.88a2.6 2.6 0 012.18-1.02c1.18 0 1.83.49 1.96 1.47h.13v-4.4h1.48v10.46l-1.32.07-.13-1.21h-.16c-.06.43-.26.74-.6.95-.36.22-.81.33-1.37.33zm-1.49-3.77c0 1.67.58 2.52 1.73 2.52 1.24 0 1.86-.42 1.86-1.26v-1.79c0-1.41-.63-2.11-1.87-2.11-.56 0-.97.23-1.27.69a3.7 3.7 0 00-.45 1.95zM347.43 153.85c-1.25 0-2.24-.33-2.92-1-.69-.65-1.03-1.61-1.03-2.85 0-1.2.3-2.15.87-2.82a3.1 3.1 0 012.47-1c1 0 1.77.3 2.31.9.55.6.83 1.49.83 2.65 0 .32-.01.65-.04.94h-5c.13.61.43 1.08.88 1.4.45.33 1.05.48 1.79.48.31 0 .61-.01.91-.05.3-.03.6-.07.9-.15l.19 1.3a12.33 12.33 0 01-2.16.2zm-.6-6.38c-.57 0-1.03.18-1.37.54-.34.36-.54.87-.6 1.53h3.76c0-.67-.16-1.17-.47-1.53a1.7 1.7 0 00-1.32-.54zM353.7 153.71v-4.5h-2.32V148h2.32v-1.06c0-2.56 1.17-3.83 3.5-3.83.55 0 1.04.05 1.54.15l-.15 1.27c-.29-.03-.54-.06-.77-.07-.23-.02-.45-.02-.66-.02-1.31 0-1.97.82-1.97 2.43V148h3.03v1.21h-3.03v4.5h-1.49zM362.51 153.85a2.9 2.9 0 01-1.9-.55c-.44-.38-.67-.9-.67-1.59 0-.77.29-1.37.86-1.8a4.05 4.05 0 012.41-.63c.56 0 1.06.06 1.47.19v-.4c0-.5-.17-.86-.5-1.09a3 3 0 00-1.57-.37l-1.77-.06.15-1.3 1.5.02c1.2.01 2.12.28 2.7.78.6.52.9 1.26.9 2.23v3.09l1.25.15v1.19l-2.37.07-.06-1.63h-.15c-.05.56-.27.99-.67 1.27-.4.29-.93.43-1.58.43zm.23-1.18c.43 0 .8-.09 1.09-.24a1.54 1.54 0 00.86-1.37v-.45a2.9 2.9 0 00-.8-.11c-.25-.02-.5-.03-.76-.03-1.2 0-1.79.37-1.79 1.11 0 .72.46 1.09 1.4 1.09zM371.17 153.85a2.3 2.3 0 01-1.8-.7c-.43-.45-.64-1.11-.64-1.95v-4.89h1.48v4.89c0 .43.12.75.36.98.24.23.58.34 1.01.34.54 0 .96-.17 1.23-.5.27-.35.41-.92.41-1.72v-3.99h1.48v6.06l1.01.15v1.19l-2.37.07-.1-1.5h-.13a1.9 1.9 0 01-1.94 1.57zM381.22 153.85c-.85 0-1.47-.24-1.85-.7-.38-.47-.58-1.21-.58-2.22v-6.46h-2.17v-1.21h3.66v7.6c0 .38.03.7.11.95.08.24.22.43.43.54.22.12.55.17.96.17.39 0 .89-.08 1.49-.27l.17 1.3a8.71 8.71 0 01-2.22.3zM389.83 153.85c-1.12 0-1.92-.24-2.42-.7-.5-.47-.76-1.21-.76-2.22v-3.4h-1.86v-1.22h1.86v-2.23h1.48v2.23h3.36v1.22h-3.36v3.32c0 .59.15 1.02.43 1.28.29.27.76.4 1.42.4.22 0 .47-.02.72-.05.28-.01.56-.05.9-.1l.18 1.3a11.77 11.77 0 01-1.95.17z" fill="#b8bb26" fill-rule="nonzero"/><path d="M394.85 148.27l-.13-4.46h1.61l-.14 4.46h-1.34zm2.82 0l-.14-4.46h1.62l-.15 4.46h-1.33zM403.91 156.75l.56-4.81h1.63l-.84 4.81h-1.35zM422.6 153.85c-1.2 0-2.15-.33-2.8-1-.66-.65-1-1.61-1-2.85 0-1.2.32-2.15.98-2.82.64-.67 1.57-1 2.77-1 .73 0 1.34.13 1.86.4.51.26.87.65 1.1 1.13l-1.14.86a2.22 2.22 0 00-1.88-1.07c-.68 0-1.2.21-1.58.64-.39.41-.57 1.01-.57 1.79 0 .84.21 1.48.63 1.92a2.4 2.4 0 001.81.67 13.88 13.88 0 002.17-.18l.17 1.3c-.41.08-.83.14-1.25.17-.43.03-.85.04-1.26.04zM430.4 153.85a2.95 2.95 0 01-2.38-1.01 4.2 4.2 0 01-.86-2.83c0-1.21.29-2.17.86-2.83.57-.67 1.36-1 2.39-1 1.02 0 1.82.33 2.38 1 .57.66.86 1.62.86 2.83a4.2 4.2 0 01-.86 2.83 2.94 2.94 0 01-2.38 1.01zm0-1.33c.55 0 .96-.2 1.26-.65.3-.44.45-1.06.45-1.86s-.15-1.41-.45-1.86c-.3-.42-.71-.65-1.25-.65-.55 0-.96.23-1.26.65-.3.45-.44 1.06-.44 1.86s.14 1.42.44 1.86c.3.44.71.65 1.26.65zM439.8 153.85c-.85 0-1.47-.24-1.85-.7-.38-.47-.58-1.21-.58-2.22v-6.46h-2.17v-1.21h3.66v7.6c0 .38.03.7.11.95.08.24.22.43.43.54.22.12.55.17.96.17.38 0 .88-.08 1.48-.27l.18 1.3a8.71 8.71 0 01-2.22.3zM448.17 153.85c-.86 0-1.47-.24-1.85-.7-.38-.47-.58-1.21-.58-2.22v-6.46h-2.17v-1.21h3.66v7.6c0 .38.03.7.11.95.07.24.22.43.43.54.22.12.54.17.96.17.38 0 .88-.08 1.48-.27l.18 1.3a8.71 8.71 0 01-2.22.3zM456.23 153.85c-1.26 0-2.25-.33-2.93-1-.69-.65-1.03-1.61-1.03-2.85 0-1.2.3-2.15.87-2.82a3.1 3.1 0 012.47-1c1 0 1.77.3 2.32.9.54.6.82 1.49.82 2.65 0 .32-.01.65-.04.94h-5c.13.61.43 1.08.89 1.4.44.33 1.04.48 1.78.48.32 0 .62-.01.92-.05.3-.03.6-.07.9-.15l.18 1.3a12.33 12.33 0 01-2.16.2zm-.6-6.38c-.58 0-1.03.18-1.38.54-.34.36-.54.87-.6 1.53h3.76c0-.67-.16-1.17-.47-1.53a1.7 1.7 0 00-1.31-.54zM464.45 153.85c-1.21 0-2.15-.33-2.81-1-.66-.65-1-1.61-1-2.85 0-1.2.33-2.15.98-2.82.65-.67 1.58-1 2.78-1 .72 0 1.34.13 1.85.4.52.26.87.65 1.1 1.13l-1.14.86a2.22 2.22 0 00-1.87-1.07c-.69 0-1.22.21-1.59.64-.38.41-.57 1.01-.57 1.79 0 .84.22 1.48.63 1.92a2.4 2.4 0 001.81.67 13.88 13.88 0 002.17-.18l.18 1.3c-.42.08-.83.14-1.26.17-.43.03-.84.04-1.26.04zM473.52 153.85c-1.13 0-1.93-.24-2.43-.7-.5-.47-.75-1.21-.75-2.22v-3.4h-1.86v-1.22h1.86v-2.23h1.48v2.23h3.36v1.22h-3.36v3.32c0 .59.14 1.02.43 1.28.28.27.76.4 1.41.4.23 0 .47-.02.73-.05.27-.01.56-.05.9-.1l.17 1.3a11.77 11.77 0 01-1.94.17zM481.02 145.14a1 1 0 01-.73-.3 1 1 0 01-.3-.73 1 1 0 01.3-.73 1 1 0 01.73-.3 1.02 1.02 0 011.04 1.03 1.02 1.02 0 01-1.04 1.03zm-3.47 8.57v-1.21h2.81v-4.96h-2.4v-1.23h3.89v6.19h2.27v1.21h-6.57zM488.99 153.85a2.95 2.95 0 01-2.39-1.01 4.2 4.2 0 01-.86-2.83c0-1.21.3-2.17.86-2.83.57-.67 1.36-1 2.39-1s1.83.33 2.38 1c.57.66.86 1.62.86 2.83a4.2 4.2 0 01-.86 2.83 2.94 2.94 0 01-2.38 1.01zm0-1.33c.54 0 .95-.2 1.25-.65.3-.44.45-1.06.45-1.86s-.15-1.41-.45-1.86c-.3-.42-.71-.65-1.25-.65-.55 0-.96.23-1.26.65-.3.45-.44 1.06-.44 1.86s.14 1.42.44 1.86c.3.44.71.65 1.26.65zM494.34 153.71v-7.4h1.34l.12 1.34h.16c.08-.98.74-1.47 1.95-1.47.79 0 1.39.23 1.82.7.42.49.64 1.16.64 2.02v4.81h-1.49v-4.81c0-.45-.11-.79-.34-1.03a1.28 1.28 0 00-.97-.37c-1.17 0-1.74.68-1.74 2.05v4.16h-1.49z" fill="#fbf1c7" fill-rule="nonzero"/><path d="M502.24 147.67v-1.3h6.97v1.3h-6.97zm0 3.48v-1.3h6.97v1.3h-6.97z" fill="#8ec07c" fill-rule="nonzero"/><path d="M512 148.27l-.12-4.46h1.61l-.14 4.46h-1.34zm2.84 0l-.15-4.46h1.62l-.15 4.46h-1.32z" fill="#fbf1c7" fill-rule="nonzero"/><path d="M523.73 153.85c-1.13 0-1.93-.24-2.43-.7-.5-.47-.75-1.21-.75-2.22v-3.4h-1.86v-1.22h1.86v-2.23h1.48v2.23h3.36v1.22h-3.36v3.32c0 .59.15 1.02.43 1.28.29.27.76.4 1.41.4.23 0 .48-.02.73-.05.27-.01.56-.05.9-.1l.17 1.3a11.77 11.77 0 01-1.94.17zM530.83 153.85a2.95 2.95 0 01-2.38-1.01 4.2 4.2 0 01-.86-2.83c0-1.21.28-2.17.86-2.83.57-.67 1.35-1 2.38-1 1.03 0 1.83.33 2.39 1 .57.66.85 1.62.85 2.83a4.2 4.2 0 01-.85 2.83 2.94 2.94 0 01-2.39 1.01zm0-1.33c.54 0 .96-.2 1.26-.65.3-.44.44-1.06.44-1.86s-.14-1.41-.44-1.86c-.3-.42-.72-.65-1.26-.65s-.96.23-1.26.65c-.3.45-.44 1.06-.44 1.86s.14 1.42.44 1.86c.3.44.72.65 1.26.65zM538.63 153.85c-.93 0-1.66-.33-2.17-.97a4.44 4.44 0 01-.77-2.8c0-1.24.25-2.2.77-2.88a2.6 2.6 0 012.18-1.02c1.17 0 1.83.49 1.96 1.47h.13v-4.4h1.48v10.46l-1.33.07-.12-1.21h-.16c-.06.43-.26.74-.6.95-.36.22-.82.33-1.37.33zm-1.49-3.77c0 1.67.57 2.52 1.73 2.52 1.24 0 1.86-.42 1.86-1.26v-1.79c0-1.41-.63-2.11-1.87-2.11-.56 0-.98.23-1.28.69a3.7 3.7 0 00-.44 1.95zM547.57 153.85a2.95 2.95 0 01-2.39-1.01 4.2 4.2 0 01-.86-2.83c0-1.21.29-2.17.86-2.83.57-.67 1.36-1 2.39-1s1.82.33 2.38 1c.57.66.86 1.62.86 2.83a4.2 4.2 0 01-.86 2.83 2.94 2.94 0 01-2.38 1.01zm0-1.33c.54 0 .95-.2 1.25-.65.3-.44.45-1.06.45-1.86s-.15-1.41-.45-1.86c-.3-.42-.71-.65-1.25-.65-.55 0-.96.23-1.26.65-.3.45-.44 1.06-.44 1.86s.14 1.42.44 1.86c.3.44.71.65 1.26.65zM555.36 153.85a13.61 13.61 0 01-2.52-.21l.17-1.34c.48.08.91.13 1.28.17.39.04.73.05 1.07.05.75 0 1.29-.07 1.63-.2.35-.17.5-.4.5-.7 0-.24-.05-.4-.17-.5-.11-.12-.3-.2-.54-.27l-1.72-.42a4.32 4.32 0 01-1.6-.7c-.34-.28-.5-.69-.5-1.25 0-.81.3-1.4.92-1.75.63-.38 1.63-.55 3-.55.68 0 1.33.05 1.96.13l-.16 1.29c-.37-.03-.7-.06-.99-.07l-.85-.03c-.82 0-1.42.07-1.8.21-.37.14-.56.37-.56.7 0 .22.09.37.24.46.15.1.39.18.7.27l1.37.33c.77.18 1.35.44 1.7.74.36.32.55.77.55 1.37 0 .79-.3 1.37-.88 1.73-.58.36-1.51.54-2.8.54z" fill="#b8bb26" fill-rule="nonzero"/><path d="M562.22 148.27l-.13-4.46h1.61l-.14 4.46h-1.34zm2.83 0l-.15-4.46h1.62l-.14 4.46h-1.33zM569.9 155.11l.13-1.26h.06c1.1 0 1.95-.45 2.55-1.34.6-.9.9-2.17.9-3.8 0-1.6-.3-2.84-.9-3.71a2.91 2.91 0 00-2.55-1.33h-.06l-.13-1.26h.33c1.51 0 2.69.55 3.53 1.65.83 1.1 1.24 2.65 1.24 4.65 0 2.04-.41 3.62-1.24 4.73a4.17 4.17 0 01-3.53 1.67h-.33z" fill="#fbf1c7" fill-rule="nonzero"/><path d="M27.33 173.11v-4.5H25v-1.21h2.33v-1.06c0-2.56 1.17-3.83 3.5-3.83.54 0 1.04.05 1.54.15l-.16 1.27c-.29-.03-.54-.06-.77-.07-.23-.02-.44-.02-.66-.02-1.31 0-1.97.82-1.97 2.43v1.13h3.03v1.21H28.8v4.5h-1.48zM37.08 173.25a2.95 2.95 0 01-2.39-1.01 4.2 4.2 0 01-.85-2.83c0-1.21.28-2.17.85-2.83.58-.67 1.36-1 2.39-1s1.83.33 2.38 1c.58.66.86 1.62.86 2.83a4.2 4.2 0 01-.86 2.83 2.94 2.94 0 01-2.38 1.01zm0-1.32c.54 0 .96-.22 1.26-.66.3-.44.44-1.06.44-1.86s-.14-1.41-.44-1.86c-.3-.42-.72-.65-1.26-.65s-.96.23-1.26.65c-.3.45-.44 1.06-.44 1.86s.14 1.42.44 1.86c.3.44.72.66 1.26.66zM41.82 173.11v-1.21h1.64v-4.97h-1.35v-1.22h2.55l.26 1.9h.17c.07-1.35.76-2.03 2.03-2.03.77 0 1.31.22 1.66.66.34.43.52 1.14.52 2.11h-1.47c0-.54-.08-.92-.24-1.17-.16-.22-.41-.34-.77-.34-.63 0-1.1.26-1.41.8-.3.54-.46 1.3-.46 2.29v1.97h1.81v1.21h-4.94z" fill="#fb4934" fill-rule="nonzero"/><path d="M62.59 164.54a1 1 0 01-.73-.3 1 1 0 01-.3-.73 1 1 0 01.3-.73 1 1 0 01.73-.3 1.02 1.02 0 011.04 1.03 1.02 1.02 0 01-1.04 1.03zm-3.48 8.57v-1.21h2.82v-4.96h-2.4v-1.23h3.88v6.19h2.27v1.21h-6.57zM69.17 176.15l.56-4.81h1.62l-.84 4.81h-1.34zM83.66 173.11v-1.21h1.65v-4.97h-1.36v-1.22h2.56l.25 1.9h.17c.08-1.35.76-2.03 2.03-2.03.77 0 1.32.22 1.66.66.34.43.53 1.14.53 2.11h-1.47c0-.54-.09-.92-.25-1.17-.15-.22-.41-.34-.77-.34-.63 0-1.1.26-1.41.8-.3.54-.46 1.3-.46 2.29v1.97h1.82v1.21h-4.95zM96.37 173.25c-1.25 0-2.24-.32-2.92-1-.69-.65-1.03-1.61-1.03-2.85 0-1.2.3-2.15.87-2.82a3.1 3.1 0 012.47-1c1 0 1.77.3 2.31.9.55.6.83 1.49.83 2.65 0 .32-.01.65-.04.94h-5c.13.61.43 1.08.89 1.4.44.33 1.04.48 1.78.48.32 0 .62-.01.92-.05.3-.03.6-.07.9-.15l.18 1.3a12.33 12.33 0 01-2.16.2zm-.6-6.38c-.57 0-1.02.18-1.37.54-.34.36-.54.87-.6 1.53h3.76c0-.67-.16-1.17-.47-1.53a1.7 1.7 0 00-1.32-.54zM104.6 173.25c-1.21 0-2.16-.32-2.81-1-.66-.65-1-1.61-1-2.85 0-1.2.32-2.15.98-2.82.64-.67 1.57-1 2.77-1 .73 0 1.35.13 1.86.4.51.26.87.65 1.1 1.13l-1.14.86a2.22 2.22 0 00-1.87-1.07c-.69 0-1.22.21-1.59.64-.39.41-.57 1.01-.57 1.79 0 .84.21 1.48.63 1.92a2.4 2.4 0 001.81.68 13.88 13.88 0 002.17-.19l.17 1.3c-.41.09-.82.14-1.25.17-.43.03-.85.04-1.26.04zM112.4 173.25a2.95 2.95 0 01-2.39-1.01 4.2 4.2 0 01-.85-2.83c0-1.21.28-2.17.85-2.83.57-.67 1.36-1 2.39-1s1.83.33 2.38 1c.57.66.86 1.62.86 2.83a4.2 4.2 0 01-.86 2.83 2.94 2.94 0 01-2.38 1.01zm0-1.32c.54 0 .95-.22 1.25-.66.3-.44.45-1.06.45-1.86s-.15-1.41-.45-1.86c-.3-.42-.71-.65-1.25-.65-.55 0-.96.23-1.26.65-.3.45-.44 1.06-.44 1.86s.14 1.42.44 1.86c.3.44.71.66 1.26.66zM117.14 173.11v-1.21h1.64v-4.97h-1.36v-1.22h2.56l.26 1.9h.17c.07-1.35.76-2.03 2.03-2.03.77 0 1.31.22 1.65.66.35.43.53 1.14.53 2.11h-1.47c0-.54-.08-.92-.24-1.17-.16-.22-.42-.34-.77-.34-.63 0-1.1.26-1.42.8-.3.54-.45 1.3-.45 2.29v1.97h1.81v1.21h-4.94zM128.56 173.25c-.93 0-1.65-.32-2.17-.97a4.44 4.44 0 01-.77-2.8c0-1.24.26-2.2.77-2.88a2.6 2.6 0 012.19-1.02c1.17 0 1.83.49 1.95 1.47h.13v-4.4h1.49v10.46l-1.33.07-.13-1.21h-.16c-.05.43-.25.74-.6.96-.35.2-.81.32-1.37.32zm-1.48-3.77c0 1.67.57 2.52 1.73 2.52 1.24 0 1.85-.42 1.85-1.26v-1.79c0-1.4-.63-2.1-1.87-2.1-.56 0-.97.22-1.27.68a3.7 3.7 0 00-.44 1.95z" fill="#fbf1c7" fill-rule="nonzero"/><path d="M146.27 164.54a1 1 0 01-.73-.3 1 1 0 01-.3-.73 1 1 0 01.3-.73 1 1 0 01.73-.3 1.02 1.02 0 011.04 1.03 1.02 1.02 0 01-1.04 1.03zm-3.47 8.57v-1.21h2.81v-4.96h-2.4v-1.23h3.89v6.19h2.27v1.21h-6.57zM151.23 173.11v-7.4h1.34l.11 1.34h.16c.09-.98.74-1.47 1.96-1.47.78 0 1.38.23 1.81.7.43.49.64 1.16.64 2.02v4.81h-1.48v-4.81c0-.45-.12-.79-.34-1.03a1.28 1.28 0 00-.98-.37c-1.17 0-1.74.68-1.74 2.05v4.16h-1.48z" fill="#fb4934" fill-rule="nonzero"/><path d="M171.7 173.25c-1.27 0-2.25-.32-2.94-1-.68-.65-1.02-1.61-1.02-2.85 0-1.2.3-2.15.87-2.82a3.1 3.1 0 012.47-1c1 0 1.77.3 2.31.9.54.6.83 1.49.83 2.65 0 .32-.01.65-.04.94h-5c.13.61.43 1.08.88 1.4.45.33 1.05.48 1.79.48.31 0 .61-.01.91-.05.3-.03.6-.07.9-.15l.19 1.3a12.33 12.33 0 01-2.16.2zm-.6-6.38c-.58 0-1.04.18-1.38.54-.34.36-.54.87-.6 1.53h3.76c0-.67-.16-1.17-.47-1.53a1.7 1.7 0 00-1.32-.54zM176.33 173.11v-7.4h1.35l.11 1.34h.16c.08-.98.74-1.47 1.95-1.47.79 0 1.39.23 1.82.7.43.49.64 1.16.64 2.02v4.81h-1.49v-4.81c0-.45-.1-.79-.34-1.03a1.28 1.28 0 00-.97-.37c-1.17 0-1.74.68-1.74 2.05v4.16h-1.49zM187.06 173.25a2.3 2.3 0 01-1.8-.7c-.43-.45-.64-1.11-.64-1.95v-4.89h1.48v4.89c0 .43.12.75.36.98.24.23.58.35 1.01.35.54 0 .96-.18 1.23-.52s.41-.91.41-1.71v-3.99h1.48v6.06l1.01.16v1.18l-2.37.07-.1-1.5H189a1.9 1.9 0 01-1.94 1.57zM192.69 173.11v-7.4h1.3l.1.93h.1c.07-.71.5-1.06 1.28-1.06.31 0 .57.09.77.26.22.19.36.44.42.8h.12c.02-.28.13-.54.35-.74.2-.22.5-.32.9-.32.51 0 .88.13 1.11.4.23.29.34.73.34 1.35v5.78h-1.47v-5.66c0-.5-.2-.75-.57-.75-.48 0-.73.33-.73 1v5.41h-1.25v-5.78c0-.43-.2-.63-.59-.63-.47 0-.71.33-.71 1v5.41h-1.47zM205.17 173.25c-1.26 0-2.25-.32-2.93-1-.69-.65-1.03-1.61-1.03-2.85 0-1.2.3-2.15.87-2.82a3.1 3.1 0 012.47-1c1 0 1.77.3 2.32.9.54.6.82 1.49.82 2.65 0 .32-.01.65-.04.94h-5c.13.61.43 1.08.89 1.4.44.33 1.04.48 1.78.48.32 0 .62-.01.92-.05.3-.03.6-.07.9-.15l.18 1.3a12.33 12.33 0 01-2.16.2zm-.6-6.38c-.57 0-1.03.18-1.37.54-.35.36-.55.87-.6 1.53h3.75c0-.67-.16-1.17-.47-1.53a1.7 1.7 0 00-1.31-.54zM209.2 173.11v-1.21h1.64v-4.97h-1.36v-1.22h2.56l.25 1.9h.17c.07-1.35.76-2.03 2.03-2.03.77 0 1.32.22 1.66.66.34.43.53 1.14.53 2.11h-1.47c0-.54-.09-.92-.25-1.17-.15-.22-.41-.34-.77-.34-.63 0-1.1.26-1.41.8-.3.54-.46 1.3-.46 2.29v1.97h1.81v1.21h-4.94zM220.25 173.25a2.9 2.9 0 01-1.9-.55c-.44-.37-.67-.9-.67-1.59 0-.77.28-1.37.85-1.8a4.05 4.05 0 012.42-.63c.55 0 1.05.06 1.47.19v-.4c0-.5-.17-.86-.52-1.09a3 3 0 00-1.55-.37l-1.77-.05.14-1.3 1.5.01c1.21.01 2.13.29 2.71.79.6.5.9 1.25.9 2.22v3.09l1.24.16v1.18l-2.37.07-.05-1.63h-.16c-.04.56-.27.99-.67 1.28-.4.28-.93.42-1.57.42zm.23-1.18c.42 0 .8-.09 1.08-.24a1.54 1.54 0 00.86-1.37V170a2.9 2.9 0 00-.79-.11c-.25-.02-.51-.03-.77-.03-1.2 0-1.78.37-1.78 1.11 0 .72.45 1.09 1.4 1.09zM230.83 173.25c-1.13 0-1.93-.24-2.43-.7-.5-.47-.76-1.21-.76-2.22v-3.4h-1.85v-1.22h1.85v-2.23h1.49v2.23h3.36v1.22h-3.36v3.32c0 .59.14 1.02.43 1.28.28.27.76.4 1.41.4.23 0 .47-.02.73-.05.27-.01.56-.05.9-.1l.17 1.3a11.77 11.77 0 01-1.94.17zM238.64 173.25c-1.26 0-2.24-.32-2.93-1-.68-.65-1.03-1.61-1.03-2.85 0-1.2.3-2.15.88-2.82a3.1 3.1 0 012.47-1c1 0 1.77.3 2.31.9.54.6.83 1.49.83 2.65 0 .32-.02.65-.04.94h-5c.13.61.43 1.08.88 1.4.45.33 1.04.48 1.79.48.31 0 .61-.01.91-.05.3-.03.6-.07.9-.15l.19 1.3a12.33 12.33 0 01-2.16.2zm-.6-6.38c-.57 0-1.03.18-1.37.54-.34.36-.54.87-.6 1.53h3.76c0-.67-.16-1.17-.48-1.53a1.7 1.7 0 00-1.3-.54z" fill="#8ec07c" fill-rule="nonzero"/><path d="M248.74 174.51a4.12 4.12 0 01-3.52-1.67c-.84-1.11-1.25-2.69-1.25-4.73 0-2 .41-3.55 1.25-4.65.83-1.1 2-1.65 3.52-1.65h.33l-.13 1.26h-.06a2.9 2.9 0 00-2.56 1.33c-.6.87-.9 2.11-.9 3.71 0 1.63.3 2.9.9 3.8a2.9 2.9 0 002.56 1.34h.06l.13 1.26h-.33zM251.04 173.11v-1.21h1.64v-4.97h-1.36v-1.22h2.56l.26 1.9h.17c.07-1.35.75-2.03 2.03-2.03.77 0 1.3.22 1.65.66.34.43.53 1.14.53 2.11h-1.47c0-.54-.09-.92-.24-1.17-.16-.22-.42-.34-.77-.34-.63 0-1.1.26-1.42.8-.3.54-.46 1.3-.46 2.29v1.97h1.82v1.21h-4.94zM263.75 173.25c-1.26 0-2.24-.32-2.93-1-.69-.65-1.03-1.61-1.03-2.85 0-1.2.3-2.15.87-2.82a3.1 3.1 0 012.47-1c1 0 1.77.3 2.32.9.54.6.83 1.49.83 2.65 0 .32-.02.65-.05.94h-5c.13.61.43 1.08.89 1.4.44.33 1.04.48 1.78.48.32 0 .62-.01.92-.05.3-.03.6-.07.9-.15l.18 1.3a12.33 12.33 0 01-2.16.2zm-.6-6.38c-.57 0-1.03.18-1.37.54-.35.36-.55.87-.6 1.53h3.75c0-.67-.15-1.17-.47-1.53a1.7 1.7 0 00-1.31-.54zM271.97 173.25c-1.21 0-2.15-.32-2.81-1-.66-.65-1-1.61-1-2.85 0-1.2.33-2.15.99-2.82.64-.67 1.57-1 2.77-1 .72 0 1.34.13 1.85.4.52.26.87.65 1.1 1.13l-1.14.86a2.22 2.22 0 00-1.87-1.07c-.69 0-1.22.21-1.59.64-.38.41-.57 1.01-.57 1.79 0 .84.22 1.48.63 1.92a2.4 2.4 0 001.81.68 13.88 13.88 0 002.18-.19l.17 1.3c-.42.09-.83.14-1.26.17-.43.03-.84.04-1.26.04zM279.77 173.25a2.95 2.95 0 01-2.39-1.01 4.2 4.2 0 01-.85-2.83c0-1.21.28-2.17.85-2.83.58-.67 1.36-1 2.39-1s1.83.33 2.38 1c.58.66.86 1.62.86 2.83a4.2 4.2 0 01-.86 2.83 2.94 2.94 0 01-2.38 1.01zm0-1.32c.54 0 .96-.22 1.26-.66.3-.44.44-1.06.44-1.86s-.14-1.41-.44-1.86c-.3-.42-.72-.65-1.26-.65s-.96.23-1.26.65c-.3.45-.44 1.06-.44 1.86s.14 1.42.44 1.86c.3.44.72.66 1.26.66zM284.51 173.11v-1.21h1.64v-4.97h-1.35v-1.22h2.55l.26 1.9h.17c.07-1.35.76-2.03 2.03-2.03.77 0 1.31.22 1.66.66.34.43.53 1.14.53 2.11h-1.48c0-.54-.08-.92-.24-1.17-.16-.22-.41-.34-.77-.34-.63 0-1.1.26-1.41.8-.3.54-.46 1.3-.46 2.29v1.97h1.81v1.21h-4.94zM295.94 173.25c-.93 0-1.66-.32-2.17-.97a4.44 4.44 0 01-.78-2.8c0-1.24.26-2.2.78-2.88a2.6 2.6 0 012.18-1.02c1.17 0 1.83.49 1.96 1.47h.13v-4.4h1.48v10.46l-1.33.07-.13-1.21h-.15c-.06.43-.26.74-.6.96-.36.2-.82.32-1.37.32zm-1.49-3.77c0 1.67.57 2.52 1.73 2.52 1.24 0 1.86-.42 1.86-1.26v-1.79c0-1.4-.63-2.1-1.88-2.1-.55 0-.97.22-1.27.68a3.7 3.7 0 00-.44 1.95zM304.3 173.25a13.61 13.61 0 01-2.52-.21l.17-1.34c.48.08.91.13 1.28.17.39.04.73.06 1.07.06.75 0 1.29-.08 1.63-.22.35-.16.5-.38.5-.7 0-.23-.05-.4-.17-.5-.11-.11-.3-.2-.54-.26l-1.72-.42a4.32 4.32 0 01-1.6-.7c-.34-.28-.5-.69-.5-1.25 0-.81.3-1.4.92-1.75.63-.37 1.63-.55 3-.55.68 0 1.33.05 1.95.13l-.15 1.29c-.37-.03-.7-.06-.99-.07l-.85-.03c-.82 0-1.42.07-1.8.21-.38.14-.56.37-.56.7 0 .22.08.37.24.46.14.1.39.18.7.27l1.37.33c.77.18 1.35.44 1.7.74.36.32.54.77.54 1.37 0 .79-.3 1.37-.87 1.73-.58.36-1.51.54-2.8.54zM310.47 174.51l.13-1.26h.06c1.1 0 1.96-.45 2.56-1.34.6-.9.9-2.17.9-3.8 0-1.6-.3-2.84-.9-3.71a2.91 2.91 0 00-2.56-1.33h-.06l-.13-1.26h.33c1.52 0 2.69.55 3.53 1.65.83 1.1 1.24 2.65 1.24 4.65 0 2.04-.41 3.62-1.24 4.73a4.17 4.17 0 01-3.53 1.67h-.33zM321.61 167.64a1 1 0 01-.73-.3 1 1 0 01-.3-.73 1 1 0 01.3-.73 1 1 0 01.73-.3 1 1 0 01.73.3c.2.2.3.45.3.73a1 1 0 01-.3.73 1 1 0 01-.73.3zm0 5.61a1 1 0 01-.73-.3c-.2-.21-.3-.45-.3-.74a1 1 0 01.3-.73 1 1 0 01.73-.3 1 1 0 01.73.3c.2.2.3.45.3.73 0 .29-.1.53-.3.74a1 1 0 01-.73.3zM58.56 192.51v-1.21h1.64v-4.97h-1.36v-1.22h2.56l.26 1.9h.17c.07-1.35.76-2.03 2.03-2.03.77 0 1.31.22 1.65.66.35.43.53 1.14.53 2.12h-1.47c0-.55-.09-.93-.24-1.18-.16-.22-.42-.34-.77-.34-.63 0-1.1.26-1.42.8-.3.54-.45 1.3-.45 2.29v1.97h1.8v1.21h-4.93zM71.27 192.65c-1.26 0-2.24-.32-2.93-1-.69-.65-1.03-1.61-1.03-2.85 0-1.2.3-2.14.87-2.82a3.1 3.1 0 012.47-1c1 0 1.77.3 2.32.9.54.6.83 1.49.83 2.65 0 .32-.02.65-.05.94h-5c.13.61.43 1.08.89 1.4.44.33 1.04.48 1.79.48.3 0 .6-.01.9-.05.3-.03.6-.07.9-.15l.2 1.3a12.33 12.33 0 01-2.16.2zm-.6-6.38c-.57 0-1.03.19-1.37.54-.35.36-.55.87-.6 1.53h3.75c0-.67-.15-1.17-.47-1.53a1.7 1.7 0 00-1.31-.54zM79.5 192.65c-1.22 0-2.16-.32-2.82-1-.66-.65-1-1.61-1-2.85 0-1.2.33-2.14.99-2.82.64-.67 1.57-1 2.77-1 .73 0 1.34.13 1.85.4.52.26.87.65 1.1 1.13l-1.14.86a2.22 2.22 0 00-1.87-1.07c-.69 0-1.21.21-1.59.64-.38.42-.57 1.02-.57 1.79 0 .84.22 1.48.63 1.92a2.4 2.4 0 001.82.68 13.88 13.88 0 002.17-.19l.17 1.3c-.42.09-.83.14-1.26.17-.43.03-.84.04-1.26.04zM87.3 192.65a2.95 2.95 0 01-2.4-1.01 4.2 4.2 0 01-.85-2.83c0-1.21.28-2.17.86-2.83.57-.67 1.35-1 2.38-1 1.03 0 1.83.33 2.39 1 .57.66.85 1.62.85 2.83a4.2 4.2 0 01-.85 2.83 2.94 2.94 0 01-2.39 1.01zm0-1.32c.53 0 .95-.22 1.25-.66.3-.44.44-1.06.44-1.86s-.14-1.41-.44-1.85c-.3-.43-.72-.66-1.26-.66s-.96.23-1.26.66c-.3.44-.44 1.05-.44 1.85s.14 1.42.44 1.86c.3.44.72.66 1.26.66zM92.03 192.51v-1.21h1.64v-4.97h-1.35v-1.22h2.55l.26 1.9h.17c.07-1.35.76-2.03 2.03-2.03.77 0 1.31.22 1.66.66.34.43.53 1.14.53 2.12h-1.48c0-.55-.08-.93-.24-1.18-.15-.22-.41-.34-.77-.34-.63 0-1.1.26-1.41.8-.3.54-.46 1.3-.46 2.29v1.97h1.81v1.21h-4.94zM103.46 192.65c-.93 0-1.66-.32-2.17-.97a4.44 4.44 0 01-.78-2.8c0-1.24.26-2.2.78-2.88a2.6 2.6 0 012.18-1.02c1.17 0 1.83.49 1.96 1.48h.13v-4.4h1.48v10.45l-1.33.07-.12-1.21h-.16c-.06.43-.26.74-.6.96-.36.21-.82.32-1.37.32zm-1.49-3.77c0 1.67.57 2.52 1.73 2.52 1.24 0 1.86-.42 1.86-1.26v-1.79c0-1.4-.63-2.1-1.87-2.1-.56 0-.98.22-1.28.68a3.7 3.7 0 00-.44 1.95zM110.81 194V181.1h4.36v1.33h-2.97v10.24h2.97V194h-4.36zM118.68 187.07l-.13-4.46h1.62l-.15 4.46h-1.34zm2.83 0l-.14-4.46h1.61l-.14 4.46h-1.33z" fill="#fbf1c7" fill-rule="nonzero"/><path d="M130.4 192.65c-1.12 0-1.92-.24-2.42-.7-.5-.47-.76-1.21-.76-2.22v-3.4h-1.86v-1.22h1.86v-2.23h1.49v2.23h3.35v1.22h-3.35v3.32c0 .59.14 1.02.42 1.28.29.27.76.4 1.42.4.23 0 .47-.02.73-.05.27-.01.55-.05.9-.1l.17 1.3a11.77 11.77 0 01-1.94.17zM137.9 183.94a1 1 0 01-.73-.3 1 1 0 01-.3-.73 1 1 0 01.3-.73 1 1 0 01.73-.3 1.02 1.02 0 011.05 1.03 1.02 1.02 0 01-1.04 1.03zm-3.47 8.57v-1.21h2.82v-4.96h-2.4v-1.23h3.88v6.19H141v1.21h-6.57zM147.14 192.65c-1.13 0-1.93-.24-2.43-.7-.5-.47-.75-1.21-.75-2.22v-3.4h-1.86v-1.22h1.86v-2.23h1.48v2.23h3.36v1.22h-3.36v3.32c0 .59.15 1.02.43 1.28.29.27.76.4 1.42.4.22 0 .47-.02.72-.05.28-.01.56-.05.9-.1l.18 1.3a11.77 11.77 0 01-1.95.17zM155.27 192.65c-.86 0-1.47-.24-1.86-.7-.37-.47-.57-1.21-.57-2.22v-6.46h-2.17v-1.21h3.66v7.6c0 .38.02.7.11.95.07.24.21.43.43.54.21.12.54.18.96.18.38 0 .88-.09 1.48-.28l.17 1.3a8.71 8.71 0 01-2.21.3zM163.32 192.65c-1.25 0-2.24-.32-2.92-1-.69-.65-1.03-1.61-1.03-2.85 0-1.2.3-2.14.87-2.82a3.1 3.1 0 012.47-1c1 0 1.77.3 2.31.9.55.6.83 1.49.83 2.65 0 .32-.01.65-.04.94h-5c.13.61.43 1.08.88 1.4.45.33 1.05.48 1.79.48.31 0 .61-.01.91-.05.3-.03.6-.07.9-.15l.19 1.3a12.33 12.33 0 01-2.16.2zm-.6-6.38c-.57 0-1.03.19-1.37.54-.34.36-.54.87-.6 1.53h3.76c0-.67-.16-1.17-.47-1.53a1.7 1.7 0 00-1.32-.54z" fill="#b8bb26" fill-rule="nonzero"/><path d="M168.9 187.07l-.14-4.46h1.62l-.14 4.46h-1.35zm2.82 0l-.14-4.46h1.61l-.14 4.46h-1.33zM176.58 194v-1.32h2.88v-10.24h-2.88v-1.33h4.35V194h-4.35z" fill="#fbf1c7" fill-rule="nonzero"/><path d="M192.6 186.47v-1.3h6.97v1.3h-6.97zm0 3.48v-1.3h6.97v1.3h-6.97z" fill="#8ec07c" fill-rule="nonzero"/><path d="M211.44 192.51v-4.5h-2.33v-1.21h2.33v-1.06c0-2.56 1.17-3.83 3.5-3.83.54 0 1.04.05 1.54.15l-.16 1.27c-.29-.03-.54-.06-.77-.07-.23-.02-.44-.02-.66-.02-1.31 0-1.97.82-1.97 2.43v1.13h3.03V188h-3.03v4.5h-1.48z" fill="#fb4934" fill-rule="nonzero"/><path d="M219.1 187.07l-.12-4.46h1.61l-.14 4.46h-1.35zm2.83 0l-.14-4.46h1.61l-.14 4.46h-1.33zM228.86 192.51v-8.58h-2.93v-1.32h7.26v1.32h-2.93v8.58h-1.4zM237.93 192.65a2.95 2.95 0 01-2.39-1.01 4.2 4.2 0 01-.86-2.83c0-1.21.29-2.17.86-2.83.57-.67 1.36-1 2.39-1 1.02 0 1.82.33 2.38 1 .57.66.86 1.62.86 2.83a4.2 4.2 0 01-.86 2.83 2.94 2.94 0 01-2.38 1.01zm0-1.32c.54 0 .95-.22 1.25-.66.3-.44.45-1.06.45-1.86s-.15-1.41-.45-1.85c-.3-.43-.71-.66-1.25-.66-.55 0-.96.23-1.26.66-.3.44-.44 1.05-.44 1.85s.14 1.42.44 1.86c.3.44.71.66 1.26.66zM245.72 192.65c-.92 0-1.65-.32-2.17-.97a4.44 4.44 0 01-.77-2.8c0-1.24.26-2.2.77-2.88a2.6 2.6 0 012.19-1.02c1.17 0 1.83.49 1.96 1.48h.12v-4.4h1.49v10.45l-1.33.07-.13-1.21h-.15c-.06.43-.26.74-.6.96-.36.21-.82.32-1.38.32zm-1.48-3.77c0 1.67.57 2.52 1.73 2.52 1.24 0 1.85-.42 1.85-1.26v-1.79c0-1.4-.62-2.1-1.87-2.1-.55 0-.97.22-1.27.68a3.7 3.7 0 00-.44 1.95zM254.66 192.65a2.95 2.95 0 01-2.38-1.01 4.2 4.2 0 01-.86-2.83c0-1.21.29-2.17.86-2.83.57-.67 1.36-1 2.38-1 1.03 0 1.83.33 2.39 1 .57.66.86 1.62.86 2.83a4.2 4.2 0 01-.86 2.83 2.94 2.94 0 01-2.39 1.01zm0-1.32c.55 0 .96-.22 1.26-.66.3-.44.44-1.06.44-1.86s-.14-1.41-.44-1.85c-.3-.43-.71-.66-1.26-.66-.54 0-.95.23-1.25.66-.3.44-.45 1.05-.45 1.85s.15 1.42.45 1.86c.3.44.71.66 1.25.66z" fill="#b8bb26" fill-rule="nonzero"/><path d="M273 192.51l.21-2.51h-1.81l-.21 2.51h-1.23l.21-2.51h-1.14v-1.19h1.24l.22-2.51h-1.46v-1.19h1.56l.21-2.5h1.23l-.22 2.5h1.82l.21-2.5h1.23l-.21 2.5h4.11v-.74l-.01-.74c0-.79.21-1.39.62-1.82.42-.42 1-.64 1.76-.64a4.48 4.48 0 011.19.14l-.16 1.19-.47-.06-.43-.01c-.33 0-.59.1-.76.31-.17.22-.25.5-.25.89l.01 1.15c.01.38.03.76.03 1.16 0 .46-.14.82-.42 1.07-.27.26-.64.39-1.14.4v.23c.5.02.87.14 1.14.41.28.26.42.62.42 1.06 0 .42-.02.82-.03 1.19l-.01 1.13c0 .41.08.74.25.97.17.24.43.35.76.35l.43-.02.47-.05.16 1.19-.5.1c-.19.03-.4.03-.69.03-.76 0-1.34-.22-1.76-.67a2.72 2.72 0 01-.62-1.9l.01-1.43h-4.53l-.21 2.51H273zm-1.5-3.7h1.81l.22-2.51h-1.82l-.21 2.51zm5.87-1.63c.17 0 .37-.02.6-.1.24-.07.46-.17.64-.3.19-.12.3-.3.35-.48h-4.2l-.22 2.51h4.43a.74.74 0 00-.3-.57 1.8 1.8 0 00-.66-.28 2.85 2.85 0 00-.64-.1v-.68z" fill="#d3869b" fill-rule="nonzero"/><path d="M288.54 183.94a1 1 0 01-.73-.3 1 1 0 01-.3-.73 1 1 0 01.3-.73 1 1 0 01.73-.3 1.02 1.02 0 011.04 1.03 1.02 1.02 0 01-1.04 1.03zm-3.47 8.57v-1.21h2.81v-4.96h-2.4v-1.23h3.89v6.19h2.27v1.21h-6.57z" fill="#fbf1c7" fill-rule="nonzero"/><path d="M294.95 194c-.27 0-.5 0-.68-.03a3.86 3.86 0 01-.5-.1l.15-1.19.47.05.43.02c.33 0 .59-.11.76-.35.17-.23.26-.56.26-.97 0-.39 0-.78-.02-1.13a30.6 30.6 0 01-.03-1.19c0-.44.15-.8.42-1.06.27-.27.64-.4 1.14-.4v-.24c-.5-.01-.87-.14-1.14-.4a1.4 1.4 0 01-.42-1.07c0-.4.02-.78.03-1.16.02-.37.02-.75.02-1.15 0-.39-.09-.67-.26-.89-.17-.21-.43-.31-.76-.31l-.43.01-.47.06-.15-1.19a3.86 3.86 0 011.18-.14c.76 0 1.34.22 1.76.64.41.43.63 1.03.63 1.82l-.02 1.14v1.2c0 .21.09.4.29.54a2.28 2.28 0 001.31.46v1.1c-.18 0-.41.03-.66.1a1.8 1.8 0 00-.67.3.74.74 0 00-.27.61v1.19l.02 1.16c0 .81-.22 1.44-.63 1.9-.42.45-1 .67-1.76.67z" fill="#d3869b" fill-rule="nonzero"/><path d="M302.79 187.07l-.13-4.46h1.62l-.15 4.46h-1.34zm2.83 0l-.14-4.46h1.6l-.13 4.46h-1.33z" fill="#b8bb26" fill-rule="nonzero"/><path d="M27.33 231.31v-4.5H25v-1.21h2.33v-1.06c0-2.55 1.17-3.83 3.5-3.83.54 0 1.04.05 1.54.15l-.16 1.27c-.29-.03-.54-.06-.77-.07-.23-.02-.44-.02-.66-.02-1.31 0-1.97.82-1.97 2.43v1.13h3.03v1.21H28.8v4.5h-1.48zM37.08 231.45a2.95 2.95 0 01-2.39-1 4.2 4.2 0 01-.85-2.84c0-1.21.28-2.17.85-2.83.58-.67 1.36-1 2.39-1s1.83.33 2.38 1c.58.66.86 1.62.86 2.83a4.2 4.2 0 01-.86 2.83 2.94 2.94 0 01-2.38 1.01zm0-1.32c.54 0 .96-.22 1.26-.66.3-.44.44-1.06.44-1.86s-.14-1.41-.44-1.85c-.3-.43-.72-.66-1.26-.66s-.96.23-1.26.66c-.3.44-.44 1.05-.44 1.85s.14 1.42.44 1.86c.3.44.72.66 1.26.66zM41.82 231.31v-1.21h1.64v-4.97h-1.35v-1.22h2.55l.26 1.9h.17c.07-1.35.76-2.02 2.03-2.02.77 0 1.31.2 1.66.65.34.43.52 1.14.52 2.12h-1.47c0-.55-.08-.93-.24-1.18-.16-.22-.41-.34-.77-.34-.63 0-1.1.26-1.41.8-.3.54-.46 1.3-.46 2.29v1.97h1.81v1.21h-4.94z" fill="#fb4934" fill-rule="nonzero"/><path d="M58.56 231.31v-1.21h1.64v-4.97h-1.36v-1.22h2.56l.26 1.9h.17c.07-1.35.76-2.02 2.03-2.02.77 0 1.31.2 1.65.65.35.43.53 1.14.53 2.12h-1.47c0-.55-.09-.93-.24-1.18-.16-.22-.42-.34-.77-.34-.63 0-1.1.26-1.42.8-.3.54-.45 1.3-.45 2.29v1.97h1.8v1.21h-4.93zM71.27 231.45c-1.26 0-2.24-.32-2.93-1-.69-.65-1.03-1.6-1.03-2.85 0-1.2.3-2.14.87-2.82a3.1 3.1 0 012.47-1c1 0 1.77.3 2.32.9.54.6.83 1.49.83 2.65 0 .33-.02.65-.05.94h-5c.13.61.43 1.09.89 1.4.44.33 1.04.49 1.79.49.3 0 .6-.02.9-.06.3-.03.6-.07.9-.14l.2 1.3a12.33 12.33 0 01-2.16.2zm-.6-6.38c-.57 0-1.03.19-1.37.54-.35.36-.55.87-.6 1.53h3.75c0-.67-.15-1.17-.47-1.53a1.7 1.7 0 00-1.31-.54zM79.5 231.45c-1.22 0-2.16-.32-2.82-1-.66-.65-1-1.6-1-2.85 0-1.2.33-2.14.99-2.82.64-.67 1.57-1 2.77-1 .73 0 1.34.13 1.85.4.52.26.87.65 1.1 1.13l-1.14.86a2.22 2.22 0 00-1.87-1.07c-.69 0-1.21.21-1.59.64-.38.42-.57 1.02-.57 1.79 0 .84.22 1.48.63 1.93a2.4 2.4 0 001.82.67 13.88 13.88 0 002.17-.19l.17 1.3c-.42.09-.83.14-1.26.17-.43.03-.84.04-1.26.04zM87.3 231.45a2.95 2.95 0 01-2.4-1 4.2 4.2 0 01-.85-2.84c0-1.21.28-2.17.86-2.83.57-.67 1.35-1 2.38-1 1.03 0 1.83.33 2.39 1 .57.66.85 1.62.85 2.83a4.2 4.2 0 01-.85 2.83 2.94 2.94 0 01-2.39 1.01zm0-1.32c.53 0 .95-.22 1.25-.66.3-.44.44-1.06.44-1.86s-.14-1.41-.44-1.85c-.3-.43-.72-.66-1.26-.66s-.96.23-1.26.66c-.3.44-.44 1.05-.44 1.85s.14 1.42.44 1.86c.3.44.72.66 1.26.66zM92.03 231.31v-1.21h1.64v-4.97h-1.35v-1.22h2.55l.26 1.9h.17c.07-1.35.76-2.02 2.03-2.02.77 0 1.31.2 1.66.65.34.43.53 1.14.53 2.12h-1.48c0-.55-.08-.93-.24-1.18-.15-.22-.41-.34-.77-.34-.63 0-1.1.26-1.41.8-.3.54-.46 1.3-.46 2.29v1.97h1.81v1.21h-4.94zM103.46 231.45c-.93 0-1.66-.32-2.17-.97a4.44 4.44 0 01-.78-2.8c0-1.24.26-2.2.78-2.88a2.6 2.6 0 012.18-1.01c1.17 0 1.83.48 1.96 1.47h.13v-4.4h1.48v10.45l-1.33.07-.12-1.21h-.16c-.06.43-.26.74-.6.96-.36.21-.82.32-1.37.32zm-1.49-3.77c0 1.68.57 2.52 1.73 2.52 1.24 0 1.86-.42 1.86-1.26v-1.78c0-1.42-.63-2.12-1.87-2.12-.56 0-.98.23-1.28.69a3.7 3.7 0 00-.44 1.95z" fill="#fbf1c7" fill-rule="nonzero"/><path d="M121.17 222.74a1 1 0 01-.73-.3 1 1 0 01-.3-.73 1 1 0 01.3-.72 1 1 0 01.73-.3 1.02 1.02 0 011.04 1.02 1.02 1.02 0 01-1.04 1.03zm-3.48 8.57v-1.21h2.82v-4.96h-2.4v-1.23h3.88v6.19h2.27v1.21h-6.57zM126.12 231.31v-7.4h1.34l.12 1.35h.15c.09-.99.75-1.47 1.96-1.47.79 0 1.39.22 1.82.7.42.48.64 1.15.64 2v4.82h-1.49v-4.81c0-.44-.11-.79-.34-1.03a1.28 1.28 0 00-.97-.37c-1.17 0-1.74.68-1.74 2.06v4.15h-1.49z" fill="#fb4934" fill-rule="nonzero"/><path d="M142.24 231.31v-1.21h1.65v-4.97h-1.36v-1.22h2.56l.25 1.9h.17c.08-1.35.76-2.02 2.03-2.02.77 0 1.32.2 1.66.65.34.43.53 1.14.53 2.12h-1.47c0-.55-.09-.93-.25-1.18-.15-.22-.41-.34-.77-.34-.63 0-1.1.26-1.41.8-.3.54-.46 1.3-.46 2.29v1.97h1.82v1.21h-4.95zM154.95 231.45c-1.25 0-2.24-.32-2.92-1-.69-.65-1.03-1.6-1.03-2.85 0-1.2.3-2.14.87-2.82a3.1 3.1 0 012.47-1c1 0 1.77.3 2.31.9.55.6.83 1.49.83 2.65 0 .33-.01.65-.04.94h-5c.13.61.43 1.09.89 1.4.44.33 1.04.49 1.78.49.32 0 .62-.02.92-.06.3-.03.6-.07.9-.14l.18 1.3a12.33 12.33 0 01-2.16.2zm-.6-6.38c-.57 0-1.02.19-1.37.54-.34.36-.54.87-.6 1.53h3.76c0-.67-.16-1.17-.47-1.53a1.7 1.7 0 00-1.32-.54zM163.18 231.45c-1.21 0-2.16-.32-2.81-1-.66-.65-1-1.6-1-2.85 0-1.2.33-2.14.98-2.82.65-.67 1.57-1 2.77-1 .73 0 1.35.13 1.86.4.51.26.87.65 1.1 1.13l-1.14.86a2.22 2.22 0 00-1.87-1.07c-.69 0-1.22.21-1.59.64-.38.42-.57 1.02-.57 1.79 0 .84.21 1.48.63 1.93a2.4 2.4 0 001.81.67 13.88 13.88 0 002.17-.19l.17 1.3c-.41.09-.82.14-1.25.17-.43.03-.85.04-1.26.04zM170.98 231.45a2.95 2.95 0 01-2.39-1 4.2 4.2 0 01-.85-2.84c0-1.21.28-2.17.85-2.83.57-.67 1.36-1 2.39-1s1.83.33 2.38 1c.57.66.86 1.62.86 2.83a4.2 4.2 0 01-.86 2.83 2.94 2.94 0 01-2.38 1.01zm0-1.32c.54 0 .95-.22 1.25-.66.3-.44.45-1.06.45-1.86s-.15-1.41-.45-1.85c-.3-.43-.71-.66-1.25-.66-.55 0-.96.23-1.26.66-.3.44-.44 1.05-.44 1.85s.14 1.42.44 1.86c.3.44.71.66 1.26.66zM175.72 231.31v-1.21h1.64v-4.97H176v-1.22h2.56l.26 1.9h.17c.07-1.35.76-2.02 2.03-2.02.77 0 1.31.2 1.65.65.35.43.53 1.14.53 2.12h-1.47c0-.55-.08-.93-.24-1.18-.16-.22-.42-.34-.77-.34-.63 0-1.1.26-1.42.8-.3.54-.45 1.3-.45 2.29v1.97h1.81v1.21h-4.94zM187.14 231.45c-.92 0-1.65-.32-2.17-.97a4.44 4.44 0 01-.77-2.8c0-1.24.26-2.2.77-2.88a2.6 2.6 0 012.19-1.01c1.17 0 1.83.48 1.95 1.47h.13v-4.4h1.49v10.45l-1.33.07-.13-1.21h-.16c-.05.43-.25.74-.6.96-.35.21-.8.32-1.37.32zm-1.48-3.77c0 1.68.57 2.52 1.73 2.52 1.24 0 1.85-.42 1.85-1.26v-1.78c0-1.42-.63-2.12-1.87-2.12-.56 0-.97.23-1.27.69a3.7 3.7 0 00-.44 1.95zM195.51 231.45a13.61 13.61 0 01-2.52-.2l.17-1.35c.48.08.91.13 1.28.17.39.04.73.06 1.07.06.75 0 1.29-.07 1.63-.22.34-.15.5-.38.5-.7 0-.23-.06-.4-.17-.5-.11-.11-.3-.2-.54-.25l-1.72-.43a4.32 4.32 0 01-1.6-.7c-.34-.27-.51-.69-.51-1.25 0-.81.31-1.4.93-1.75.63-.37 1.63-.54 3-.54.68 0 1.33.04 1.95.12l-.15 1.29c-.37-.03-.7-.06-.99-.07-.3-.02-.57-.03-.86-.03-.81 0-1.41.07-1.8.21-.37.15-.55.37-.55.7 0 .22.08.37.24.46.14.1.39.19.7.27l1.37.33c.77.19 1.34.44 1.7.74.36.32.54.77.54 1.37 0 .79-.3 1.37-.87 1.73-.58.36-1.51.54-2.8.54zM204.45 225.84a1 1 0 01-.73-.3 1 1 0 01-.3-.73 1 1 0 01.3-.72 1 1 0 01.73-.3 1 1 0 01.73.3c.2.2.3.44.3.72a1 1 0 01-.3.73 1 1 0 01-.73.3zm0 5.61a1 1 0 01-.73-.3c-.2-.2-.3-.45-.3-.74a1 1 0 01.3-.73 1 1 0 01.73-.3 1 1 0 01.73.3c.2.2.3.45.3.73 0 .29-.1.53-.3.74a1 1 0 01-.73.3zM62.76 250.85c-1.22 0-2.16-.32-2.82-1-.65-.65-1-1.6-1-2.85 0-1.2.33-2.14.99-2.82.64-.67 1.57-1 2.77-1 .73 0 1.34.13 1.86.4.51.26.87.65 1.1 1.13l-1.15.86a2.22 2.22 0 00-1.87-1.07c-.68 0-1.21.21-1.58.64-.39.42-.57 1.02-.57 1.79 0 .84.21 1.48.62 1.93a2.4 2.4 0 001.82.67 13.88 13.88 0 002.17-.19l.17 1.3c-.41.09-.83.14-1.26.17-.43.03-.84.04-1.25.04zM71.58 250.85c-.85 0-1.47-.24-1.85-.7-.38-.47-.58-1.2-.58-2.22v-6.46h-2.17v-1.21h3.66v7.6c0 .38.03.7.11.95s.22.43.43.55c.22.1.55.17.96.17.38 0 .88-.09 1.48-.27l.18 1.3a8.71 8.71 0 01-2.22.3zM79.32 242.14a1 1 0 01-.73-.3 1 1 0 01-.3-.73 1 1 0 01.3-.72 1 1 0 01.73-.3 1.02 1.02 0 011.05 1.02 1.02 1.02 0 01-1.04 1.03zm-3.47 8.57v-1.21h2.82v-4.96h-2.4v-1.23h3.88v6.19h2.27v1.21h-6.57zM88 250.85c-1.25 0-2.24-.32-2.92-1-.69-.65-1.03-1.6-1.03-2.85 0-1.2.3-2.14.87-2.82a3.1 3.1 0 012.47-1c1 0 1.77.3 2.31.9.55.6.83 1.49.83 2.65 0 .33-.01.65-.04.94h-5c.13.61.43 1.09.89 1.4.44.33 1.04.48 1.78.48.32 0 .62 0 .92-.05.3-.03.6-.07.9-.14l.18 1.3a12.33 12.33 0 01-2.16.2zm-.6-6.38c-.57 0-1.02.19-1.37.54-.34.36-.54.87-.6 1.53h3.76c0-.67-.16-1.17-.47-1.53a1.7 1.7 0 00-1.31-.54zM92.65 250.71v-7.4h1.34l.11 1.35h.16c.09-.99.74-1.47 1.96-1.47.78 0 1.38.22 1.81.7.43.48.64 1.15.64 2v4.82H97.2v-4.81c0-.44-.12-.79-.34-1.03a1.28 1.28 0 00-.98-.37c-1.17 0-1.74.68-1.74 2.06v4.15h-1.48zM105.3 250.85c-1.13 0-1.93-.24-2.43-.7-.5-.47-.76-1.2-.76-2.22v-3.4h-1.85v-1.22h1.85v-2.22h1.49v2.22h3.36v1.22h-3.36v3.33c0 .58.14 1 .43 1.27.28.27.76.4 1.41.4.23 0 .47-.02.73-.05.27-.01.56-.05.9-.1l.17 1.3a11.77 11.77 0 01-1.94.17zM112.4 250.85a1 1 0 01-.73-.3c-.2-.2-.3-.45-.3-.74a1 1 0 01.3-.73 1 1 0 01.73-.3 1 1 0 01.73.3c.2.2.3.45.3.73 0 .29-.1.53-.3.74a1 1 0 01-.73.3zM120.1 250.85a2.3 2.3 0 01-1.8-.7c-.42-.45-.63-1.1-.63-1.95v-4.89h1.48v4.89c0 .43.12.76.36.98.24.23.58.35 1.01.35.55 0 .96-.17 1.23-.52.27-.34.42-.91.42-1.71v-3.99h1.47v6.06l1.01.16v1.18l-2.37.07-.1-1.5h-.13a1.9 1.9 0 01-1.94 1.57zM126.12 253.93V243.3h1.34l.12 1.35h.15c.13-.99.79-1.47 1.96-1.47.94 0 1.67.34 2.19 1 .51.7.77 1.65.77 2.9 0 1.2-.26 2.14-.77 2.8-.52.64-1.25.96-2.17.96-.56 0-1.02-.11-1.36-.32a1.24 1.24 0 01-.62-.96h-.12v4.36h-1.49zm3.36-9.49c-1.26 0-1.87.7-1.87 2.12v1.78c0 .84.61 1.26 1.85 1.26 1.15 0 1.73-.84 1.73-2.52 0-.84-.16-1.5-.44-1.95-.3-.46-.73-.69-1.27-.69zM136.93 250.85c-.93 0-1.65-.32-2.17-.97a4.44 4.44 0 01-.77-2.8c0-1.24.26-2.2.77-2.88a2.6 2.6 0 012.19-1.01c1.17 0 1.82.48 1.95 1.47h.13v-4.4h1.49v10.45l-1.33.07-.13-1.21h-.16c-.05.43-.25.74-.6.96-.35.21-.81.32-1.37.32zm-1.48-3.77c0 1.68.57 2.52 1.72 2.52 1.25 0 1.86-.42 1.86-1.26v-1.78c0-1.42-.63-2.12-1.87-2.12-.56 0-.97.23-1.27.69a3.7 3.7 0 00-.44 1.95zM144.93 250.85a2.9 2.9 0 01-1.9-.55c-.44-.37-.67-.9-.67-1.59 0-.77.28-1.37.86-1.8a4.05 4.05 0 012.4-.63c.57 0 1.07.06 1.48.19v-.4c0-.5-.17-.86-.51-1.09a3 3 0 00-1.56-.37l-1.77-.05.14-1.3 1.5.01c1.21.01 2.13.29 2.71.79.6.51.9 1.25.9 2.22v3.09l1.25.16v1.18l-2.37.07-.06-1.62h-.16c-.04.55-.27.98-.67 1.27-.4.28-.93.42-1.57.42zm.23-1.18c.43 0 .8-.09 1.08-.24a1.54 1.54 0 00.86-1.37v-.45a2.9 2.9 0 00-.79-.11c-.25-.02-.51-.03-.77-.03-1.2 0-1.78.37-1.78 1.11 0 .72.46 1.09 1.4 1.09zM155.51 250.85c-1.13 0-1.93-.24-2.43-.7-.5-.47-.75-1.2-.75-2.22v-3.4h-1.86v-1.22h1.86v-2.22h1.48v2.22h3.36v1.22h-3.36v3.33c0 .58.14 1 .43 1.27s.76.4 1.41.4c.23 0 .48-.02.73-.05.27-.01.56-.05.9-.1l.17 1.3a11.77 11.77 0 01-1.94.17zM163.32 250.85c-1.25 0-2.24-.32-2.92-1-.69-.65-1.03-1.6-1.03-2.85 0-1.2.3-2.14.87-2.82a3.1 3.1 0 012.47-1c1 0 1.77.3 2.31.9.55.6.83 1.49.83 2.65 0 .33-.01.65-.04.94h-5c.13.61.43 1.09.88 1.4.45.33 1.05.48 1.79.48.31 0 .61 0 .91-.05.3-.03.6-.07.9-.14l.19 1.3a12.33 12.33 0 01-2.16.2zm-.6-6.38c-.57 0-1.03.19-1.37.54-.34.36-.54.87-.6 1.53h3.76c0-.67-.16-1.17-.47-1.53a1.7 1.7 0 00-1.32-.54zM167.5 250.71h7V252h-7zM175.72 250.71v-1.21h1.64v-4.97H176v-1.22h2.56l.26 1.9h.17c.07-1.35.76-2.02 2.03-2.02.77 0 1.31.2 1.65.65.35.43.53 1.14.53 2.12h-1.47c0-.55-.08-.93-.24-1.18-.16-.22-.42-.34-.77-.34-.63 0-1.1.26-1.42.8-.3.54-.45 1.3-.45 2.29v1.97h1.81v1.21h-4.94zM188.43 250.85c-1.26 0-2.24-.32-2.93-1-.68-.65-1.03-1.6-1.03-2.85 0-1.2.3-2.14.87-2.82a3.1 3.1 0 012.47-1c1 0 1.78.3 2.32.9.54.6.83 1.49.83 2.65 0 .33-.02.65-.05.94h-5c.13.61.43 1.09.9 1.4.43.33 1.03.48 1.78.48.31 0 .61 0 .91-.05.3-.03.6-.07.9-.14l.19 1.3a12.33 12.33 0 01-2.16.2zm-.6-6.38c-.57 0-1.03.19-1.37.54-.34.36-.54.87-.6 1.53h3.75c0-.67-.15-1.17-.47-1.53a1.7 1.7 0 00-1.31-.54zM196.66 250.85c-1.22 0-2.16-.32-2.82-1-.66-.65-1-1.6-1-2.85 0-1.2.33-2.14.99-2.82.64-.67 1.57-1 2.77-1 .73 0 1.34.13 1.86.4.5.26.87.65 1.1 1.13l-1.15.86a2.22 2.22 0 00-1.87-1.07c-.68 0-1.21.21-1.58.64-.39.42-.58 1.02-.58 1.79 0 .84.22 1.48.63 1.93a2.4 2.4 0 001.82.67 13.88 13.88 0 002.17-.19l.17 1.3c-.41.09-.83.14-1.26.17-.43.03-.84.04-1.25.04zM204.45 250.85a2.95 2.95 0 01-2.38-1 4.2 4.2 0 01-.86-2.84c0-1.21.29-2.17.86-2.83.57-.67 1.35-1 2.38-1 1.03 0 1.83.33 2.39 1 .57.66.85 1.62.85 2.83a4.2 4.2 0 01-.85 2.83 2.94 2.94 0 01-2.39 1.01zm0-1.32c.55 0 .96-.22 1.26-.66.3-.44.44-1.06.44-1.86s-.14-1.41-.44-1.85c-.3-.43-.71-.66-1.26-.66-.54 0-.95.23-1.25.66-.3.44-.45 1.05-.45 1.85s.15 1.42.45 1.86c.3.44.71.66 1.25.66zM209.2 250.71v-1.21h1.64v-4.97h-1.36v-1.22h2.56l.25 1.9h.17c.07-1.35.76-2.02 2.03-2.02.77 0 1.32.2 1.66.65.34.43.53 1.14.53 2.12h-1.47c0-.55-.09-.93-.25-1.18-.15-.22-.41-.34-.77-.34-.63 0-1.1.26-1.41.8-.3.54-.46 1.3-.46 2.29v1.97h1.81v1.21h-4.94zM220.62 250.85c-.93 0-1.66-.32-2.17-.97a4.44 4.44 0 01-.77-2.8c0-1.24.25-2.2.77-2.88a2.6 2.6 0 012.18-1.01c1.17 0 1.83.48 1.96 1.47h.13v-4.4h1.48v10.45l-1.32.07-.13-1.21h-.16c-.06.43-.26.74-.6.96-.36.21-.81.32-1.37.32zm-1.49-3.77c0 1.68.57 2.52 1.73 2.52 1.24 0 1.86-.42 1.86-1.26v-1.78c0-1.42-.63-2.12-1.87-2.12-.56 0-.97.23-1.27.69a3.7 3.7 0 00-.45 1.95zM232 252.11a4.12 4.12 0 01-3.51-1.67c-.85-1.11-1.26-2.68-1.26-4.73 0-2 .41-3.55 1.26-4.65.83-1.1 2-1.65 3.51-1.65h.33l-.13 1.26h-.06a2.9 2.9 0 00-2.55 1.33c-.6.87-.9 2.11-.9 3.71 0 1.63.3 2.9.9 3.8a2.9 2.9 0 002.55 1.34h.06l.13 1.26H232zM234.3 250.71v-1.21h1.64v-4.97h-1.36v-1.22h2.56l.26 1.9h.17c.07-1.35.76-2.02 2.03-2.02.77 0 1.31.2 1.65.65.35.43.53 1.14.53 2.12h-1.47c0-.55-.08-.93-.24-1.18-.16-.22-.42-.34-.77-.34-.63 0-1.1.26-1.42.8-.3.54-.45 1.3-.45 2.29v1.97h1.81v1.21h-4.94zM247.01 250.85c-1.26 0-2.24-.32-2.93-1-.68-.65-1.03-1.6-1.03-2.85 0-1.2.3-2.14.87-2.82a3.1 3.1 0 012.48-1c1 0 1.77.3 2.31.9.54.6.83 1.49.83 2.65 0 .33-.02.65-.04.94h-5c.12.61.42 1.09.88 1.4.44.33 1.04.48 1.79.48.31 0 .61 0 .91-.05.3-.03.6-.07.9-.14l.19 1.3a12.33 12.33 0 01-2.16.2zm-.6-6.38c-.57 0-1.03.19-1.37.54-.34.36-.54.87-.6 1.53h3.76c0-.67-.16-1.17-.48-1.53a1.7 1.7 0 00-1.31-.54zM255.24 250.85c-1.22 0-2.16-.32-2.82-1-.66-.65-1-1.6-1-2.85 0-1.2.33-2.14.99-2.82.64-.67 1.57-1 2.77-1 .73 0 1.34.13 1.85.4.52.26.88.65 1.1 1.13l-1.14.86a2.22 2.22 0 00-1.87-1.07c-.68 0-1.21.21-1.58.64-.39.42-.58 1.02-.58 1.79 0 .84.22 1.48.63 1.93a2.4 2.4 0 001.82.67 13.88 13.88 0 002.17-.19l.17 1.3c-.42.09-.83.14-1.26.17-.43.03-.84.04-1.25.04zM263.03 250.85a2.95 2.95 0 01-2.38-1 4.2 4.2 0 01-.86-2.84c0-1.21.29-2.17.86-2.83.57-.67 1.36-1 2.38-1 1.03 0 1.83.33 2.39 1 .57.66.86 1.62.86 2.83a4.2 4.2 0 01-.86 2.83 2.94 2.94 0 01-2.39 1.01zm0-1.32c.55 0 .96-.22 1.26-.66.3-.44.44-1.06.44-1.86s-.14-1.41-.44-1.85c-.3-.43-.71-.66-1.26-.66-.54 0-.95.23-1.25.66-.3.44-.45 1.05-.45 1.85s.15 1.42.45 1.86c.3.44.71.66 1.25.66zM267.77 250.71v-1.21h1.65v-4.97h-1.36v-1.22h2.56l.25 1.9h.17c.08-1.35.76-2.02 2.03-2.02.77 0 1.32.2 1.66.65.34.43.53 1.14.53 2.12h-1.47c0-.55-.09-.93-.25-1.18-.15-.22-.41-.34-.77-.34-.63 0-1.1.26-1.41.8-.3.54-.46 1.3-.46 2.29v1.97h1.82v1.21h-4.95zM279.2 250.85c-.93 0-1.66-.32-2.17-.97a4.44 4.44 0 01-.77-2.8c0-1.24.25-2.2.77-2.88a2.6 2.6 0 012.18-1.01c1.17 0 1.83.48 1.96 1.47h.13v-4.4h1.48v10.45l-1.32.07-.13-1.21h-.16c-.06.43-.26.74-.6.96-.36.21-.81.32-1.37.32zm-1.49-3.77c0 1.68.57 2.52 1.73 2.52 1.24 0 1.86-.42 1.86-1.26v-1.78c0-1.42-.63-2.12-1.87-2.12-.56 0-.97.23-1.27.69a3.7 3.7 0 00-.45 1.95zM285.37 252.11l.13-1.26h.05c1.1 0 1.96-.45 2.56-1.34.6-.9.9-2.17.9-3.8 0-1.6-.3-2.84-.9-3.71a2.91 2.91 0 00-2.56-1.33h-.05l-.13-1.26h.33c1.51 0 2.68.55 3.52 1.65.83 1.1 1.25 2.65 1.25 4.65 0 2.05-.42 3.62-1.25 4.73a4.17 4.17 0 01-3.52 1.67h-.33z" fill="#fbf1c7" fill-rule="nonzero"/></svg>